<?xml version="1.0" encoding="utf-8"?>
<!-- Generator: Adobe Illustrator 16.0.0, SVG Export Plug-In . SVG Version: 6.00 Build 0)  -->
<!DOCTYPE svg PUBLIC "-//W3C//DTD SVG 1.1//EN" "http://www.w3.org/Graphics/SVG/1.1/DTD/svg11.dtd">
<svg version="1.1" id="Layer_1" xmlns="http://www.w3.org/2000/svg" xmlns:xlink="http://www.w3.org/1999/xlink" x="0px" y="0px"
	 width="168.996px" height="171.431px" viewBox="244.951 745.925 168.996 171.431"
	 enable-background="new 244.951 745.925 168.996 171.431" xml:space="preserve">
<rect x="352.895" y="747" fill="none" width="56.631" height="19.445"/>
<text transform="matrix(1 0 0 1 356.4258 754.2998)"><tspan x="0" y="0" fill="#FFFFFF" font-family="'Raleway-Bold'" font-size="10">Veres One</tspan><tspan x="-1.846" y="10" fill="#FFFFFF" font-family="'Raleway-Bold'" font-size="10">Blockchain</tspan></text>
<rect x="254.815" y="752.633" fill="none" width="45.498" height="7.812"/>
<text transform="matrix(1 0 0 1 256.8594 759.9326)" fill="#F12545" font-family="'Raleway-Bold'" font-size="10">ISSUERS</text>
<rect x="244.951" y="804.553" fill="none" width="65.226" height="10.809"/>
<text transform="matrix(1 0 0 1 253.9346 811.8525)" fill="#33CCFF" font-family="'Raleway-Bold'" font-size="10">WALLETS</text>
<rect x="250.386" y="867.4" fill="none" width="54.356" height="9.008"/>
<text transform="matrix(1 0 0 1 252.7295 874.7002)" fill="#FFFFFF" font-family="'Raleway-Bold'" font-size="10">VERIFIERS</text>
<path fill="none" stroke="#33CCFF" stroke-width="2" stroke-linejoin="round" stroke-miterlimit="10" d="M277.564,787.355v13.098"/>
<path fill="none" stroke="#33CCFF" stroke-width="2" stroke-linejoin="round" stroke-miterlimit="10" d="M277.564,849.479v13.098"/>
<polygon fill="#FFFFFF" points="307.444,885.084 312.504,884.924 309.338,883.113 307.283,880.025 "/>
<polygon fill="#FFFFFF" points="307.444,769.656 312.504,769.816 309.338,771.625 307.283,774.713 "/>
<path fill="none" stroke="#33CCFF" stroke-width="2" stroke-linejoin="round" stroke-miterlimit="10" d="M392.872,874.262
	L392.872,874.262c0.764,0,1.382,0.619,1.382,1.383v5.529l0,0c0,0.365-0.146,0.717-0.404,0.977c-0.26,0.26-0.611,0.404-0.978,0.404
	H368.73c-0.763,0-1.382-0.619-1.382-1.381v-5.529c0-0.764,0.619-1.383,1.382-1.383H392.872z"/>
<path fill="none" stroke="#33CCFF" stroke-width="2" stroke-linejoin="round" stroke-miterlimit="10" d="M392.882,890.73
	L392.882,890.73c0.763,0,1.382,0.619,1.382,1.383v5.527l0,0c0,0.367-0.146,0.719-0.405,0.979c-0.259,0.258-0.61,0.404-0.977,0.404
	H368.74c-0.764,0-1.382-0.619-1.382-1.383v-5.527c0-0.764,0.618-1.383,1.382-1.383H392.882z"/>
<path fill="none" stroke="#33CCFF" stroke-width="2" stroke-linejoin="round" stroke-miterlimit="10" d="M392.929,908.064
	L392.929,908.064c0.763,0,1.382,0.617,1.382,1.381v5.529l0,0c0,0.365-0.146,0.717-0.405,0.977c-0.259,0.26-0.61,0.404-0.977,0.404
	h-24.142c-0.764,0-1.382-0.619-1.382-1.381v-5.529c0-0.764,0.618-1.381,1.382-1.381H392.929z"/>
<line fill="none" stroke="#33CCFF" stroke-width="2" stroke-linejoin="round" stroke-miterlimit="10" x1="380.886" y1="899.367" x2="380.877" y2="908.064"/>
<line fill="none" stroke="#33CCFF" stroke-width="2" stroke-linejoin="round" stroke-miterlimit="10" x1="380.903" y1="882.555" x2="380.895" y2="890.73"/>
<line fill="none" stroke="#33CCFF" stroke-width="2" stroke-linejoin="round" stroke-miterlimit="10" x1="380.924" y1="864.027" x2="380.913" y2="874.262"/>
<path fill="#33CCFF" d="M392.79,785.396h-24.142c-1.313,0-2.382,1.068-2.382,2.383v5.527c0,1.314,1.068,2.383,2.382,2.383h0.56
	c0.592-0.506,1.378-0.834,2.374-0.844c0.353-0.42,0.796-0.77,1.358-0.986c0.027-0.057,0.049-0.115,0.078-0.17h-4.37
	c-0.211,0-0.382-0.172-0.382-0.383v-5.527c0-0.211,0.171-0.383,0.382-0.383h24.142c0.211,0,0.382,0.172,0.382,0.383v5.527
	c0,0.104-0.04,0.199-0.11,0.27c-0.073,0.074-0.169,0.113-0.271,0.113h-4.865c0.21,0.201,0.38,0.432,0.533,0.674
	c0.474,0.021,0.9,0.111,1.278,0.264c0.038,0.002,0.07,0.014,0.107,0.018c0.174-0.021,0.342-0.053,0.531-0.053
	c1.16,0,2.039,0.43,2.657,1.074c0.544-0.055,1.05-0.283,1.443-0.674c0.449-0.451,0.696-1.049,0.696-1.686v-5.527
	C395.172,786.465,394.104,785.396,392.79,785.396z"/>
<path fill="#33CCFF" d="M393.438,854.771c-0.462,0.973-1.315,1.738-2.573,1.957h2.149c0.211,0,0.382,0.172,0.382,0.383v5.527
	c0,0.102-0.04,0.199-0.112,0.271c-0.071,0.07-0.169,0.111-0.27,0.111h-24.142c-0.211,0-0.382-0.172-0.382-0.383v-5.527
	c0-0.211,0.171-0.383,0.382-0.383h1.889c-1.231-0.213-2.077-0.951-2.546-1.896c-0.992,0.289-1.725,1.195-1.725,2.279v5.527
	c0,1.314,1.068,2.383,2.382,2.383h24.142c0.627,0,1.24-0.254,1.684-0.697c0.45-0.451,0.698-1.049,0.698-1.686v-5.527
	C395.396,855.943,394.549,854.973,393.438,854.771z"/>
<path fill="none" stroke="#33CCFF" stroke-width="2" stroke-linejoin="round" stroke-miterlimit="10" d="M348.555,825.553
	L348.555,825.553c0-17.781,14.415-32.197,32.196-32.197l0,0c8.539,0,16.729,3.393,22.767,9.432c6.038,6.037,9.43,14.227,9.43,22.766
	l0,0c0,17.781-14.415,32.195-32.196,32.195l0,0C362.97,857.748,348.555,843.334,348.555,825.553z"/>
<path fill="none" stroke="#33CCFF" stroke-width="0.75" stroke-linejoin="round" stroke-miterlimit="10" d="M353.862,818.242
	L353.862,818.242c0-1.994,1.617-3.611,3.611-3.611h46.79c0.957,0,1.876,0.381,2.553,1.059c0.678,0.678,1.058,1.596,1.058,2.553
	v14.443c0,1.994-1.616,3.611-3.61,3.611h-46.79l0,0c-1.994,0-3.611-1.617-3.611-3.611V818.242z"/>
<rect x="355.762" y="819.031" fill="none" width="34.229" height="12.346"/>
<text transform="matrix(1 0 0 1 357.7129 824.1416)"><tspan x="0" y="0" fill="#33CCFF" font-family="'Raleway-Medium'" font-size="7">Identifier: </tspan><tspan x="5.752" y="7" fill="#33CCFF" font-family="'Raleway-Medium'" font-size="7">1234...</tspan></text>
<line fill="none" stroke="#33CCFF" stroke-width="2" stroke-linejoin="round" stroke-miterlimit="10" x1="380.705" y1="836.531" x2="380.683" y2="857.748"/>
<line fill="none" stroke="#33CCFF" stroke-width="2" stroke-linejoin="round" stroke-miterlimit="10" x1="380.751" y1="793.355" x2="380.729" y2="814.697"/>
<g>
	<path fill="#33CCFF" d="M398.039,818.113c-3.909,0-7.09,3.18-7.09,7.088c0,3.91,3.181,7.09,7.09,7.09s7.09-3.18,7.09-7.09
		C405.129,821.293,401.948,818.113,398.039,818.113L398.039,818.113z M398.039,818.602c3.64,0,6.601,2.961,6.601,6.6
		c0,3.641-2.961,6.602-6.601,6.602s-6.601-2.961-6.601-6.602C391.438,821.562,394.399,818.602,398.039,818.602L398.039,818.602z
		 M397.933,819.582c-1.442,0.027-2.835,0.611-3.869,1.643c-1.062,1.064-1.646,2.475-1.646,3.977c0,1.504,0.584,2.914,1.646,3.977
		c0.048,0.047,0.109,0.072,0.172,0.072c0.063,0,0.127-0.025,0.175-0.072c0.094-0.096,0.094-0.25,0-0.346
		c-0.113-0.113-0.217-0.229-0.317-0.35c0.003-0.004,0.009-0.008,0.011-0.014c0.549-1.127,1.518-1.904,2.632-2.158
		c0.365,0.363,0.813,0.602,1.304,0.602s0.939-0.238,1.304-0.602c1.115,0.252,2.085,1.031,2.633,2.158
		c0.002,0.006,0.006,0.01,0.01,0.016c-0.101,0.119-0.204,0.236-0.316,0.348c-0.094,0.096-0.094,0.25,0,0.346
		c0.047,0.047,0.111,0.072,0.174,0.072s0.125-0.025,0.173-0.072c1.062-1.062,1.646-2.473,1.646-3.977
		c0-1.502-0.584-2.912-1.646-3.977c-0.162-0.16-0.333-0.312-0.513-0.453c-0.106-0.082-0.26-0.062-0.343,0.043
		s-0.064,0.26,0.042,0.342c0.162,0.129,0.321,0.268,0.467,0.416c0.971,0.969,1.504,2.26,1.504,3.629
		c0,1.031-0.301,2.016-0.862,2.852c-0.589-1.078-1.53-1.844-2.621-2.158c0.342-0.5,0.55-1.111,0.55-1.67v-0.49
		c0-1.213-0.987-2.199-2.2-2.199c-1.211,0-2.199,0.986-2.199,2.199v0.49c0,0.559,0.207,1.17,0.549,1.67
		c-1.09,0.314-2.033,1.08-2.62,2.158c-0.562-0.836-0.862-1.82-0.862-2.852c0-1.369,0.533-2.66,1.504-3.629
		c1.16-1.16,2.82-1.699,4.446-1.439c0.134,0.021,0.258-0.07,0.28-0.203c0.021-0.133-0.07-0.26-0.204-0.279
		C398.599,819.596,398.264,819.572,397.933,819.582L397.933,819.582z M399.912,819.918c-0.095,0.004-0.185,0.064-0.219,0.158
		c-0.048,0.127,0.017,0.268,0.144,0.316c0.174,0.064,0.346,0.139,0.513,0.223c0.035,0.018,0.073,0.027,0.11,0.027
		c0.089,0,0.175-0.049,0.218-0.137c0.061-0.119,0.013-0.266-0.107-0.326c-0.183-0.092-0.371-0.174-0.562-0.246
		C399.977,819.922,399.943,819.918,399.912,819.918L399.912,819.918z M398.039,822.025c0.942,0,1.711,0.768,1.711,1.709v0.49
		c0,0.971-0.806,2.199-1.711,2.199c-0.904,0-1.71-1.229-1.71-2.199v-0.49C396.329,822.793,397.097,822.025,398.039,822.025
		L398.039,822.025z M395.687,829.209c-0.096-0.01-0.192,0.033-0.241,0.121l-0.245,0.424c-0.067,0.117-0.027,0.266,0.089,0.334
		c0.038,0.021,0.081,0.033,0.122,0.033c0.083,0,0.166-0.045,0.212-0.121l0.244-0.426c0.067-0.115,0.028-0.266-0.09-0.334
		C395.748,829.225,395.718,829.213,395.687,829.209L395.687,829.209z M400.393,829.209c-0.032,0.004-0.062,0.016-0.092,0.031
		c-0.118,0.068-0.155,0.219-0.089,0.336l0.244,0.424c0.045,0.076,0.128,0.121,0.212,0.121c0.041,0,0.084-0.01,0.122-0.033
		c0.117-0.066,0.156-0.217,0.088-0.334l-0.244-0.424C400.584,829.244,400.486,829.199,400.393,829.209L400.393,829.209z
		 M396.771,829.688c-0.094,0.012-0.176,0.08-0.202,0.178l-0.125,0.473c-0.036,0.131,0.042,0.264,0.172,0.301
		c0.022,0.004,0.044,0.008,0.063,0.008c0.107,0,0.208-0.072,0.236-0.182l0.126-0.473c0.036-0.131-0.043-0.266-0.172-0.299
		C396.836,829.684,396.804,829.682,396.771,829.688L396.771,829.688z M399.308,829.688c-0.032-0.006-0.064-0.004-0.099,0.006
		c-0.129,0.033-0.207,0.168-0.174,0.299l0.129,0.473c0.027,0.109,0.128,0.182,0.235,0.182c0.021,0,0.041-0.004,0.063-0.008
		c0.13-0.037,0.207-0.17,0.174-0.301l-0.127-0.473C399.483,829.768,399.401,829.699,399.308,829.688L399.308,829.688z
		 M398.039,829.846c-0.135,0-0.244,0.111-0.244,0.246v0.488c0,0.135,0.109,0.244,0.244,0.244c0.136,0,0.246-0.109,0.246-0.244
		v-0.488C398.285,829.957,398.175,829.846,398.039,829.846L398.039,829.846z"/>
</g>
<path fill="none" stroke="#33CCFF" stroke-width="2" stroke-linejoin="round" stroke-miterlimit="10" d="M368.957,777.619
	L368.957,777.619c-0.764,0-1.383-0.617-1.383-1.381v-5.529l0,0c0-0.365,0.146-0.717,0.405-0.977c0.259-0.26,0.61-0.404,0.978-0.404
	h24.141c0.764,0,1.383,0.619,1.383,1.381v5.529c0,0.764-0.619,1.381-1.383,1.381H368.957z"/>
<line fill="none" stroke="#33CCFF" stroke-width="2" stroke-linejoin="round" stroke-miterlimit="10" x1="381.188" y1="786.66" x2="381.197" y2="777.619"/>
<g>
	<g>
		<path fill="#33CCFF" d="M281.868,820.039c-1.168,0-2.118,0.947-2.118,2.117v21.18c0,1.17,0.95,2.117,2.118,2.117h11.014
			c1.169,0,2.118-0.947,2.118-2.117v-21.18c0-1.17-0.949-2.117-2.118-2.117H281.868z M281.868,820.885h11.014
			c0.7,0,1.271,0.57,1.271,1.271v0.424h-4.66c-0.234,0-0.424,0.189-0.424,0.424c0,0.232,0.189,0.422,0.424,0.422h4.66v16.945
			h-13.556v-16.945h4.659c0.235,0,0.424-0.189,0.424-0.422c0-0.234-0.188-0.424-0.424-0.424h-4.659v-0.424
			C280.598,821.455,281.168,820.885,281.868,820.885L281.868,820.885z M286.951,822.58c-0.234,0-0.423,0.189-0.423,0.424
			c0,0.232,0.188,0.422,0.423,0.422h0.848c0.235,0,0.424-0.189,0.424-0.422c0-0.234-0.188-0.424-0.424-0.424H286.951z
			 M281.868,836.982c-0.234,0-0.424,0.189-0.424,0.424v0.846c0,0.234,0.189,0.424,0.424,0.424c0.235,0,0.424-0.189,0.424-0.424
			v-0.846C282.292,837.172,282.104,836.982,281.868,836.982L281.868,836.982z M283.986,836.982c-0.235,0-0.424,0.189-0.424,0.424
			v0.846c0,0.234,0.188,0.424,0.424,0.424s0.424-0.189,0.424-0.424v-0.846C284.41,837.172,284.222,836.982,283.986,836.982
			L283.986,836.982z M286.104,836.982c-0.235,0-0.424,0.189-0.424,0.424v0.846c0,0.234,0.188,0.424,0.424,0.424
			s0.424-0.189,0.424-0.424v-0.846C286.528,837.172,286.34,836.982,286.104,836.982L286.104,836.982z M288.646,836.982
			c-0.235,0-0.424,0.189-0.424,0.424v0.846c0,0.234,0.188,0.424,0.424,0.424c0.234,0,0.423-0.189,0.423-0.424v-0.846
			C289.069,837.172,288.881,836.982,288.646,836.982L288.646,836.982z M290.765,836.982c-0.235,0-0.425,0.189-0.425,0.424v0.846
			c0,0.234,0.189,0.424,0.425,0.424c0.234,0,0.423-0.189,0.423-0.424v-0.846C291.188,837.172,290.999,836.982,290.765,836.982
			L290.765,836.982z M292.882,836.982c-0.234,0-0.424,0.189-0.424,0.424v0.846c0,0.234,0.189,0.424,0.424,0.424
			c0.235,0,0.424-0.189,0.424-0.424v-0.846C293.306,837.172,293.117,836.982,292.882,836.982L292.882,836.982z M280.598,841.219
			h13.556v2.117c0,0.701-0.571,1.271-1.271,1.271h-11.014c-0.7,0-1.271-0.57-1.271-1.271V841.219z M286.104,842.066
			c-0.235,0-0.424,0.189-0.424,0.422c0,0.234,0.188,0.424,0.424,0.424h2.542c0.234,0,0.423-0.189,0.423-0.424
			c0-0.232-0.188-0.422-0.423-0.422H286.104z"/>
	</g>
	<g>
		<path fill="#33CCFF" d="M275.285,840.32v1.037c0,0.285,0.232,0.518,0.518,0.518s0.519-0.232,0.519-0.518v-1.037
			c0-0.283-0.233-0.518-0.519-0.518S275.285,840.037,275.285,840.32z"/>
		<path fill="#33CCFF" d="M278.393,839.803c-0.285,0-0.518,0.234-0.518,0.518v1.037c0,0.285,0.232,0.518,0.518,0.518
			s0.518-0.232,0.518-0.518v-1.037C278.91,840.037,278.678,839.803,278.393,839.803z"/>
		<path fill="#33CCFF" d="M279.75,843.336v-0.426h-17.931c-0.284,0-0.518-0.232-0.518-0.518v-3.986c0-1.785,1.04-3.436,2.65-4.205
			l7.023-3.359c1.255,1.6,2.922,2.748,4.827,2.748c1.49,0,2.832-0.707,3.947-1.779v-1.518c-1.094,1.34-2.483,2.26-3.947,2.26
			c-3.289,0-6.215-4.633-6.215-8.287v-1.035c0-3.426,2.788-6.215,6.215-6.215c2.309,0,4.323,1.268,5.395,3.143
			c0.213-0.072,0.436-0.119,0.671-0.119h0.435c-1.184-2.4-3.648-4.059-6.5-4.059c-3.997,0-7.25,3.252-7.25,7.25v1.035
			c0,1.76,0.67,3.922,1.814,5.721l-6.862,3.281c-1.969,0.939-3.239,2.957-3.239,5.139v3.986c0,0.855,0.698,1.555,1.554,1.555h18.031
			C279.791,843.752,279.75,843.551,279.75,843.336z"/>
		<path fill="#33CCFF" d="M278.393,836.695h-5.18c-0.284,0-0.518,0.232-0.518,0.52c0,0.285,0.233,0.518,0.518,0.518h5.18
			c0.285,0,0.518-0.232,0.518-0.518C278.91,836.928,278.678,836.695,278.393,836.695z"/>
		<path fill="#33CCFF" d="M270.106,840.32v1.037c0,0.285,0.232,0.518,0.518,0.518s0.518-0.232,0.518-0.518v-1.037
			c0-0.283-0.232-0.518-0.518-0.518S270.106,840.037,270.106,840.32z"/>
		<path fill="#33CCFF" d="M262.338,840.32v1.037c0,0.285,0.232,0.518,0.518,0.518s0.518-0.232,0.518-0.518v-1.037
			c0-0.283-0.232-0.518-0.518-0.518S262.338,840.037,262.338,840.32z"/>
		<path fill="#33CCFF" d="M264.927,840.32v1.037c0,0.285,0.233,0.518,0.519,0.518s0.518-0.232,0.518-0.518v-1.037
			c0-0.283-0.232-0.518-0.518-0.518S264.927,840.037,264.927,840.32z"/>
		<path fill="#33CCFF" d="M272.695,840.32v1.037c0,0.285,0.233,0.518,0.518,0.518c0.285,0,0.519-0.232,0.519-0.518v-1.037
			c0-0.283-0.233-0.518-0.519-0.518C272.929,839.803,272.695,840.037,272.695,840.32z"/>
		<path fill="#33CCFF" d="M267.517,840.32v1.037c0,0.285,0.232,0.518,0.519,0.518c0.284,0,0.518-0.232,0.518-0.518v-1.037
			c0-0.283-0.233-0.518-0.518-0.518C267.749,839.803,267.517,840.037,267.517,840.32z"/>
	</g>
</g>
<path fill="#F12545" d="M264.205,764.363c-0.776,0-1.41,0.635-1.41,1.412v16.938c0,0.777,0.634,1.412,1.41,1.412h27.289
	c0.777,0,1.411-0.635,1.411-1.412v-16.938c0-0.777-0.634-1.412-1.411-1.412H264.205z M264.205,765.305h27.289
	c0.26,0,0.471,0.211,0.471,0.471v13.645c-0.26,0-0.471,0.211-0.471,0.471v0.939c0,0.26,0.211,0.471,0.471,0.471v1.412
	c0,0.26-0.211,0.471-0.471,0.471h-27.289c-0.258,0-0.47-0.211-0.47-0.471v-1.412c0.259,0,0.47-0.211,0.47-0.471v-0.939
	c0-0.26-0.211-0.471-0.47-0.471v-13.645C263.735,765.516,263.947,765.305,264.205,765.305L264.205,765.305z M283.51,768.127
	c-1.549,0-2.808,1.191-2.808,2.66v0.621c0,0.484,0.136,0.996,0.384,1.461c-1.909,0.73-3.236,2.297-3.236,4.109
	c0,0.297,0.241,0.539,0.543,0.539c0.295,0,0.534-0.242,0.534-0.539c0-1.445,1.167-2.684,2.829-3.205
	c0.479,0.455,1.086,0.758,1.754,0.758s1.274-0.303,1.756-0.764c1.665,0.525,2.836,1.766,2.836,3.211c0,0.297,0.244,0.539,0.54,0.539
	c0.298,0,0.536-0.242,0.536-0.539c0-1.818-1.33-3.383-3.245-4.113c0.25-0.465,0.386-0.973,0.386-1.457v-0.621
	C286.318,769.318,285.058,768.127,283.51,768.127L283.51,768.127z M283.51,769.068c1.03,0,1.868,0.771,1.868,1.719v0.621
	c0,0.389-0.136,0.818-0.362,1.184c-0.263,0.428-0.648,0.787-1.092,0.928c-0.132,0.049-0.273,0.07-0.414,0.07
	s-0.277-0.021-0.409-0.066c-0.442-0.141-0.832-0.498-1.092-0.932c-0.229-0.365-0.365-0.795-0.365-1.184v-0.621
	C281.644,769.84,282.479,769.068,283.51,769.068L283.51,769.068z M270.322,770.951c-0.519,0-0.94,0.422-0.94,0.941v2.822
	c0,0.518,0.422,0.941,0.94,0.941h3.764c0.519,0,0.941-0.424,0.941-0.941v-2.822c0-0.52-0.423-0.941-0.941-0.941H270.322z
	 M267.97,771.422c-0.12,0-0.241,0.045-0.333,0.137l-1.411,1.412c-0.184,0.184-0.184,0.48,0,0.664l1.411,1.412
	c0.092,0.092,0.212,0.139,0.333,0.139s0.241-0.047,0.333-0.139c0.184-0.184,0.184-0.482,0-0.666l-1.079-1.078l1.079-1.078
	c0.184-0.184,0.184-0.482,0-0.666C268.211,771.467,268.089,771.422,267.97,771.422L267.97,771.422z M270.322,771.893h3.764v2.822
	h-3.764V771.893z M266.088,779.42c-0.26,0-0.471,0.211-0.471,0.471v0.939c0,0.26,0.211,0.471,0.471,0.471
	c0.259,0,0.47-0.211,0.47-0.471v-0.939C266.558,779.631,266.347,779.42,266.088,779.42L266.088,779.42z M268.44,779.42
	c-0.26,0-0.471,0.211-0.471,0.471v0.939c0,0.26,0.211,0.471,0.471,0.471c0.259,0,0.47-0.211,0.47-0.471v-0.939
	C268.91,779.631,268.699,779.42,268.44,779.42L268.44,779.42z M270.792,779.42c-0.258,0-0.47,0.211-0.47,0.471v0.939
	c0,0.26,0.212,0.471,0.47,0.471c0.26,0,0.471-0.211,0.471-0.471v-0.939C271.263,779.631,271.052,779.42,270.792,779.42
	L270.792,779.42z M273.145,779.42c-0.259,0-0.47,0.211-0.47,0.471v0.939c0,0.26,0.211,0.471,0.47,0.471
	c0.26,0,0.471-0.211,0.471-0.471v-0.939C273.615,779.631,273.404,779.42,273.145,779.42L273.145,779.42z M275.497,779.42
	c-0.259,0-0.47,0.211-0.47,0.471v0.939c0,0.26,0.211,0.471,0.47,0.471c0.26,0,0.471-0.211,0.471-0.471v-0.939
	C275.968,779.631,275.757,779.42,275.497,779.42L275.497,779.42z M277.85,779.42c-0.259,0-0.471,0.211-0.471,0.471v0.939
	c0,0.26,0.212,0.471,0.471,0.471c0.26,0,0.471-0.211,0.471-0.471v-0.939C278.32,779.631,278.109,779.42,277.85,779.42L277.85,779.42
	z M280.202,779.42c-0.259,0-0.471,0.211-0.471,0.471v0.939c0,0.26,0.212,0.471,0.471,0.471c0.26,0,0.471-0.211,0.471-0.471v-0.939
	C280.673,779.631,280.462,779.42,280.202,779.42L280.202,779.42z M282.555,779.42c-0.259,0-0.471,0.211-0.471,0.471v0.939
	c0,0.26,0.212,0.471,0.471,0.471c0.26,0,0.471-0.211,0.471-0.471v-0.939C283.025,779.631,282.814,779.42,282.555,779.42
	L282.555,779.42z M284.907,779.42c-0.259,0-0.471,0.211-0.471,0.471v0.939c0,0.26,0.212,0.471,0.471,0.471
	c0.26,0,0.471-0.211,0.471-0.471v-0.939C285.378,779.631,285.167,779.42,284.907,779.42L284.907,779.42z M287.26,779.42
	c-0.26,0-0.471,0.211-0.471,0.471v0.939c0,0.26,0.211,0.471,0.471,0.471c0.259,0,0.471-0.211,0.471-0.471v-0.939
	C287.73,779.631,287.519,779.42,287.26,779.42L287.26,779.42z M289.612,779.42c-0.26,0-0.471,0.211-0.471,0.471v0.939
	c0,0.26,0.211,0.471,0.471,0.471c0.259,0,0.471-0.211,0.471-0.471v-0.939C290.083,779.631,289.871,779.42,289.612,779.42
	L289.612,779.42z"/>
<path fill="#FFFFFF" d="M274.972,879.453c-5.356,0-9.714,4.357-9.714,9.713s4.357,9.715,9.714,9.715
	c2.144,0,4.124-0.699,5.731-1.877c0,0,1.078,1.055,1.131,1.074c0,0.008-0.002,0.016-0.002,0.025c0,0.52,0.201,1.008,0.568,1.373
	l4.02,4.02c0.379,0.379,0.876,0.568,1.373,0.568c0.498,0,0.996-0.189,1.375-0.568l0.133-0.135c0.367-0.365,0.569-0.854,0.569-1.373
	s-0.202-1.008-0.569-1.373l-4.02-4.02c-0.385-0.385-0.893-0.572-1.397-0.564c-0.02-0.053-1.076-1.135-1.076-1.135
	c1.18-1.607,1.878-3.586,1.878-5.73C284.686,883.811,280.328,879.453,274.972,879.453L274.972,879.453z M274.972,880.229
	c4.929,0,8.937,4.01,8.937,8.938c0,4.93-4.008,8.938-8.937,8.938s-8.937-4.008-8.937-8.938
	C266.035,884.238,270.043,880.229,274.972,880.229L274.972,880.229z M274.972,881.783c-1.972,0-3.826,0.768-5.222,2.162
	c-2.877,2.879-2.877,7.562,0,10.441c1.396,1.395,3.25,2.162,5.222,2.162s3.826-0.768,5.221-2.162c2.878-2.879,2.878-7.562,0-10.441
	C278.798,882.551,276.943,881.783,274.972,881.783L274.972,881.783z M274.972,882.561c1.764,0,3.423,0.688,4.67,1.936
	c2.575,2.574,2.575,6.766,0,9.34c-1.247,1.248-2.906,1.936-4.67,1.936s-3.423-0.688-4.67-1.936c-2.576-2.574-2.576-6.764,0-9.34
	C271.549,883.248,273.208,882.561,274.972,882.561L274.972,882.561z M274.897,883.727c-1.413,0.018-2.762,0.582-3.773,1.592
	c-0.152,0.154-0.152,0.398,0,0.551c0.076,0.074,0.176,0.115,0.276,0.115c0.099,0,0.198-0.041,0.274-0.115
	c0.99-0.99,2.357-1.48,3.755-1.344c0.214,0.02,0.404-0.135,0.425-0.348c0.021-0.215-0.135-0.404-0.349-0.426
	C275.303,883.732,275.099,883.723,274.897,883.727L274.897,883.727z M277.637,884.455c-0.148-0.021-0.305,0.047-0.389,0.186
	c-0.11,0.184-0.052,0.422,0.134,0.531c0.318,0.195,0.618,0.43,0.887,0.697c0.076,0.076,0.175,0.115,0.274,0.115
	c0.101,0,0.199-0.039,0.276-0.115c0.149-0.15,0.149-0.396,0-0.549c-0.314-0.312-0.663-0.586-1.037-0.812
	C277.737,884.48,277.687,884.463,277.637,884.455L277.637,884.455z M269.531,888.777c-0.214,0-0.388,0.174-0.388,0.389
	c0,0.217,0.174,0.389,0.388,0.389h0.777c0.214,0,0.389-0.172,0.389-0.389c0-0.215-0.175-0.389-0.389-0.389H269.531z
	 M279.634,888.777c-0.214,0-0.389,0.174-0.389,0.389c0,0.217,0.175,0.389,0.389,0.389h0.777c0.214,0,0.389-0.172,0.389-0.389
	c0-0.215-0.175-0.389-0.389-0.389H279.634z M270.655,890.525c-0.05-0.002-0.104,0.008-0.152,0.027l-0.721,0.291
	c-0.199,0.08-0.294,0.307-0.214,0.506c0.061,0.15,0.206,0.244,0.359,0.244c0.049,0,0.099-0.01,0.146-0.029l0.722-0.291
	c0.198-0.08,0.294-0.307,0.214-0.506C270.948,890.619,270.807,890.527,270.655,890.525L270.655,890.525z M279.264,890.6
	c-0.152,0-0.296,0.09-0.358,0.236c-0.083,0.199,0.008,0.426,0.206,0.51l0.716,0.305c0.048,0.02,0.1,0.029,0.151,0.029
	c0.152,0,0.295-0.088,0.358-0.236c0.083-0.197-0.009-0.426-0.206-0.508l-0.715-0.305C279.365,890.609,279.313,890.6,279.264,890.6
	L279.264,890.6z M271.675,892.074c-0.101,0-0.199,0.039-0.274,0.113l-0.55,0.551c-0.151,0.15-0.151,0.396,0,0.549
	c0.076,0.076,0.175,0.113,0.275,0.113c0.1,0,0.198-0.037,0.274-0.113l0.549-0.549c0.152-0.152,0.152-0.398,0-0.551
	C271.874,892.113,271.773,892.074,271.675,892.074L271.675,892.074z M278.269,892.074c-0.099,0-0.199,0.039-0.274,0.113
	c-0.152,0.152-0.152,0.398,0,0.551l0.549,0.549c0.076,0.076,0.175,0.113,0.274,0.113c0.101,0,0.198-0.037,0.274-0.113
	c0.152-0.152,0.152-0.398,0-0.549l-0.549-0.551C278.467,892.113,278.367,892.074,278.269,892.074L278.269,892.074z M273.15,893.07
	c-0.152,0-0.296,0.088-0.358,0.236l-0.304,0.715c-0.083,0.197,0.01,0.426,0.206,0.51c0.051,0.021,0.101,0.031,0.152,0.031
	c0.15,0,0.294-0.09,0.358-0.236l0.304-0.715c0.083-0.197-0.01-0.428-0.207-0.51C273.252,893.08,273.2,893.07,273.15,893.07
	L273.15,893.07z M276.725,893.102c-0.05,0-0.103,0.008-0.151,0.027c-0.2,0.082-0.296,0.307-0.216,0.506l0.291,0.721
	c0.061,0.152,0.207,0.244,0.361,0.244c0.049,0,0.098-0.01,0.146-0.029c0.198-0.08,0.294-0.307,0.214-0.506l-0.292-0.721
	C277.018,893.195,276.877,893.104,276.725,893.102L276.725,893.102z M274.972,893.441c-0.214,0-0.389,0.172-0.389,0.387v0.777
	c0,0.217,0.175,0.389,0.389,0.389s0.389-0.172,0.389-0.389v-0.777C275.36,893.613,275.186,893.441,274.972,893.441L274.972,893.441z
	 M282.318,895.51l0.729,0.729c-0.184,0.092-0.36,0.207-0.513,0.359l-0.135,0.131c-0.151,0.152-0.266,0.328-0.357,0.512l-0.729-0.727
	C281.674,896.205,282.01,895.869,282.318,895.51L282.318,895.51z M283.908,896.805c0.299,0,0.598,0.113,0.826,0.342l4.019,4.018
	c0.22,0.221,0.341,0.514,0.341,0.824s-0.122,0.605-0.342,0.824l-0.135,0.135c-0.455,0.453-1.192,0.453-1.647,0l-4.019-4.02
	c-0.221-0.221-0.342-0.514-0.342-0.824s0.121-0.604,0.342-0.824l0.133-0.133C283.312,896.918,283.611,896.805,283.908,896.805
	L283.908,896.805z"/>
<polygon fill="#FFFFFF" points="341.184,802.471 309,769.656 307.938,771.453 309,772.463 338.285,802.424 311.053,827.268 
	338.114,852.107 309,882.195 307.938,883.328 309,885.002 340.952,852.121 313.938,827.328 "/>
</svg>
