<?xml version="1.0" encoding="utf-8"?>
<!-- Generator: Adobe Illustrator 16.0.0, SVG Export Plug-In . SVG Version: 6.00 Build 0)  -->
<!DOCTYPE svg PUBLIC "-//W3C//DTD SVG 1.1//EN" "http://www.w3.org/Graphics/SVG/1.1/DTD/svg11.dtd">
<svg version="1.1" id="Layer_1" xmlns="http://www.w3.org/2000/svg" xmlns:xlink="http://www.w3.org/1999/xlink" x="0px" y="0px"
	 width="108.053px" height="97.87px" viewBox="0 0 108.053 97.87" enable-background="new 0 0 108.053 97.87" xml:space="preserve">
<g>
	<path fill="#47C8F5" d="M74.617,72.963c-6.858,0-12.453,5.594-12.453,12.453S67.759,97.87,74.617,97.87
		c6.859,0,12.454-5.595,12.454-12.454S81.477,72.963,74.617,72.963z M74.617,94.312c-4.934,0-8.895-3.961-8.895-8.895
		s3.961-8.895,8.895-8.895c4.935,0,8.896,3.961,8.896,8.895S79.552,94.312,74.617,94.312z"/>
	<path fill="#47C8F5" d="M74.73,89.052c-0.976,0-1.771,0.795-1.771,1.77c0,0.976,0.795,1.771,1.771,1.771
		c0.975,0,1.77-0.795,1.77-1.771C76.5,89.847,75.705,89.052,74.73,89.052L74.73,89.052z"/>
	<path fill="#47C8F5" d="M74.73,78.24c-0.976,0-1.771,0.795-1.771,1.77c0,0.976,0.795,1.771,1.771,1.771
		c0.975,0,1.77-0.795,1.77-1.771C76.5,79.036,75.705,78.24,74.73,78.24L74.73,78.24z"/>
	<path fill="#47C8F5" d="M78.253,85.417c0,0.976,0.795,1.771,1.771,1.771c0.975,0,1.771-0.795,1.771-1.771
		c0-0.975-0.796-1.771-1.771-1.771C79.048,83.646,78.253,84.441,78.253,85.417L78.253,85.417z"/>
	<path fill="#47C8F5" d="M67.441,85.417c0,0.976,0.795,1.771,1.771,1.771s1.771-0.795,1.771-1.771c0-0.975-0.795-1.771-1.771-1.771
		S67.441,84.441,67.441,85.417L67.441,85.417z"/>
	<path fill="#47C8F5" d="M95.6,36.46c-6.859,0-12.454,5.594-12.454,12.454c0,6.859,5.595,12.453,12.454,12.453
		c6.858,0,12.453-5.594,12.453-12.453C108.053,42.054,102.458,36.46,95.6,36.46z M95.6,57.809c-4.935,0-8.896-3.961-8.896-8.895
		c0-4.934,3.961-8.896,8.896-8.896c4.934,0,8.895,3.961,8.895,8.896C104.494,53.847,100.533,57.809,95.6,57.809z"/>
	<path fill="#47C8F5" d="M95.712,52.548c-0.976,0-1.771,0.795-1.771,1.771c0,0.976,0.795,1.771,1.771,1.771
		c0.975,0,1.771-0.795,1.771-1.771C97.482,53.344,96.687,52.548,95.712,52.548L95.712,52.548z"/>
	<path fill="#47C8F5" d="M95.712,41.737c-0.976,0-1.771,0.795-1.771,1.77c0,0.976,0.795,1.771,1.771,1.771
		c0.975,0,1.771-0.795,1.771-1.771C97.482,42.532,96.687,41.737,95.712,41.737L95.712,41.737z"/>
	<path fill="#47C8F5" d="M99.234,48.914c0,0.975,0.795,1.771,1.771,1.771s1.771-0.795,1.771-1.771c0-0.976-0.795-1.771-1.771-1.771
		S99.234,47.938,99.234,48.914L99.234,48.914z"/>
	<path fill="#47C8F5" d="M88.423,48.914c0,0.975,0.796,1.771,1.771,1.771c0.976,0,1.771-0.795,1.771-1.771
		c0-0.976-0.795-1.771-1.771-1.771C89.219,47.143,88.423,47.938,88.423,48.914L88.423,48.914z"/>
	<path fill="#47C8F5" d="M12.453,36.46C5.594,36.46,0,42.054,0,48.914c0,6.859,5.594,12.453,12.453,12.453
		s12.453-5.594,12.453-12.453C24.906,42.054,19.312,36.46,12.453,36.46z M12.453,57.809c-4.934,0-8.896-3.961-8.896-8.895
		c0-4.934,3.962-8.896,8.896-8.896c4.935,0,8.896,3.961,8.896,8.896C21.349,53.847,17.388,57.809,12.453,57.809z"/>
	<path fill="#47C8F5" d="M12.565,52.548c-0.975,0-1.771,0.795-1.771,1.771c0,0.976,0.796,1.771,1.771,1.771
		c0.976,0,1.771-0.795,1.771-1.771C14.336,53.344,13.541,52.548,12.565,52.548L12.565,52.548z"/>
	<path fill="#47C8F5" d="M12.565,41.737c-0.975,0-1.771,0.795-1.771,1.77c0,0.976,0.796,1.771,1.771,1.771
		c0.976,0,1.771-0.795,1.771-1.771C14.336,42.532,13.541,41.737,12.565,41.737L12.565,41.737z"/>
	<path fill="#47C8F5" d="M16.089,48.914c0,0.975,0.795,1.771,1.77,1.771c0.976,0,1.771-0.795,1.771-1.771
		c0-0.976-0.796-1.771-1.771-1.771C16.884,47.143,16.089,47.938,16.089,48.914L16.089,48.914z"/>
	<path fill="#47C8F5" d="M5.277,48.914c0,0.975,0.795,1.771,1.77,1.771c0.976,0,1.771-0.795,1.771-1.771
		c0-0.976-0.796-1.771-1.771-1.771C6.072,47.143,5.277,47.938,5.277,48.914L5.277,48.914z"/>
	<path fill="#47C8F5" d="M33.158,72.963c-6.858,0-12.453,5.594-12.453,12.453S26.3,97.87,33.158,97.87
		c6.859,0,12.454-5.595,12.454-12.454S40.018,72.963,33.158,72.963z M33.158,94.312c-4.934,0-8.895-3.961-8.895-8.895
		s3.961-8.895,8.895-8.895c4.935,0,8.896,3.961,8.896,8.895S38.093,94.312,33.158,94.312z"/>
	<path fill="#47C8F5" d="M33.271,89.052c-0.976,0-1.771,0.795-1.771,1.77c0,0.976,0.795,1.771,1.771,1.771
		c0.975,0,1.771-0.795,1.771-1.771C35.042,89.847,34.246,89.052,33.271,89.052L33.271,89.052z"/>
	<path fill="#47C8F5" d="M33.271,78.24c-0.976,0-1.771,0.795-1.771,1.77c0,0.976,0.795,1.771,1.771,1.771
		c0.975,0,1.771-0.795,1.771-1.771C35.042,79.036,34.246,78.24,33.271,78.24L33.271,78.24z"/>
	<path fill="#47C8F5" d="M36.794,85.417c0,0.976,0.795,1.771,1.771,1.771s1.771-0.795,1.771-1.771c0-0.975-0.795-1.771-1.771-1.771
		S36.794,84.441,36.794,85.417L36.794,85.417z"/>
	<path fill="#47C8F5" d="M25.982,85.417c0,0.976,0.795,1.771,1.771,1.771s1.771-0.795,1.771-1.771c0-0.975-0.795-1.771-1.771-1.771
		S25.982,84.441,25.982,85.417L25.982,85.417z"/>
	<path fill="#47C8F5" d="M33.824,0c-6.859,0-12.453,5.594-12.453,12.453s5.594,12.454,12.453,12.454s12.453-5.595,12.453-12.454
		S40.684,0,33.824,0z M33.824,21.349c-4.935,0-8.896-3.961-8.896-8.896s3.961-8.895,8.896-8.895c4.934,0,8.896,3.961,8.896,8.895
		S38.758,21.349,33.824,21.349z"/>
	<path fill="#47C8F5" d="M33.937,16.088c-0.976,0-1.771,0.795-1.771,1.771s0.795,1.771,1.771,1.771s1.771-0.795,1.771-1.771
		S34.912,16.088,33.937,16.088L33.937,16.088z"/>
	<path fill="#47C8F5" d="M33.937,5.277c-0.976,0-1.771,0.795-1.771,1.771c0,0.976,0.795,1.771,1.771,1.771s1.771-0.795,1.771-1.771
		C35.707,6.072,34.912,5.277,33.937,5.277L33.937,5.277z"/>
	<path fill="#47C8F5" d="M37.459,12.453c0,0.976,0.796,1.771,1.771,1.771c0.976,0,1.771-0.795,1.771-1.771
		c0-0.975-0.795-1.771-1.771-1.771C38.255,10.683,37.459,11.478,37.459,12.453L37.459,12.453z"/>
	<path fill="#47C8F5" d="M26.647,12.453c0,0.976,0.796,1.771,1.771,1.771c0.976,0,1.771-0.795,1.771-1.771
		c0-0.975-0.795-1.771-1.771-1.771C27.443,10.683,26.647,11.478,26.647,12.453L26.647,12.453z"/>
	<path fill="#47C8F5" d="M74.617,0c-6.858,0-12.453,5.594-12.453,12.453s5.595,12.454,12.453,12.454
		c6.859,0,12.454-5.595,12.454-12.454S81.477,0,74.617,0z M74.617,21.349c-4.934,0-8.895-3.961-8.895-8.896s3.961-8.895,8.895-8.895
		c4.935,0,8.896,3.961,8.896,8.895S79.552,21.349,74.617,21.349z"/>
	<path fill="#47C8F5" d="M74.73,16.088c-0.976,0-1.771,0.795-1.771,1.771s0.795,1.771,1.771,1.771c0.975,0,1.77-0.795,1.77-1.771
		S75.705,16.088,74.73,16.088L74.73,16.088z"/>
	<path fill="#47C8F5" d="M74.73,5.277c-0.976,0-1.771,0.795-1.771,1.771c0,0.976,0.795,1.771,1.771,1.771
		c0.975,0,1.77-0.795,1.77-1.771C76.5,6.072,75.705,5.277,74.73,5.277L74.73,5.277z"/>
	<path fill="#47C8F5" d="M78.253,12.453c0,0.976,0.795,1.771,1.771,1.771c0.975,0,1.771-0.795,1.771-1.771
		c0-0.975-0.796-1.771-1.771-1.771C79.048,10.683,78.253,11.478,78.253,12.453L78.253,12.453z"/>
	<path fill="#47C8F5" d="M67.441,12.453c0,0.976,0.795,1.771,1.771,1.771s1.771-0.795,1.771-1.771c0-0.975-0.795-1.771-1.771-1.771
		S67.441,11.478,67.441,12.453L67.441,12.453z"/>
	<polygon fill="#47C8F5" points="17.829,62.53 16.427,61.109 16.955,59.184 18.888,58.679 20.29,60.1 19.762,62.026 	"/>
	<polygon fill="#47C8F5" points="21.048,67.587 19.645,66.166 20.174,64.24 22.106,63.735 23.509,65.156 22.98,67.082 	"/>
	<polygon fill="#47C8F5" points="24.022,72.296 22.619,70.875 23.148,68.949 25.081,68.444 26.484,69.866 25.955,71.792 	"/>
	<polygon fill="#47C8F5" points="27.28,76.601 25.877,75.18 26.406,73.254 28.338,72.75 29.741,74.17 29.212,76.096 	"/>
	<polygon fill="#47C8F5" points="79.655,24.773 78.253,23.353 78.781,21.427 80.714,20.922 82.117,22.343 81.589,24.269 	"/>
	<polygon fill="#47C8F5" points="82.874,29.83 81.472,28.409 82,26.483 83.933,25.979 85.336,27.399 84.807,29.325 	"/>
	<polygon fill="#47C8F5" points="85.85,34.539 84.446,33.118 84.976,31.192 86.908,30.688 88.311,32.109 87.781,34.035 	"/>
	<polygon fill="#47C8F5" points="89.106,38.844 87.704,37.423 88.232,35.497 90.165,34.993 91.567,36.414 91.039,38.339 	"/>
	<polygon fill="#47C8F5" points="81.965,74.011 81.25,75.876 79.278,76.19 78.02,74.639 78.734,72.773 80.707,72.46 	"/>
	<polygon fill="#47C8F5" points="85.238,68.99 84.524,70.855 82.553,71.169 81.294,69.618 82.008,67.753 83.98,67.439 	"/>
	<polygon fill="#47C8F5" points="88.298,64.335 87.584,66.2 85.611,66.514 84.354,64.963 85.067,63.098 87.04,62.784 	"/>
	<polygon fill="#47C8F5" points="46.277,20.608 45.563,22.473 43.591,22.787 42.333,21.236 43.048,19.371 45.02,19.057 	"/>
	<polygon fill="#47C8F5" points="50.574,23.242 49.86,25.106 47.888,25.421 46.63,23.87 47.345,22.005 49.316,21.691 	"/>
	<polygon fill="#47C8F5" points="55.866,25.992 55.152,27.856 53.18,28.171 51.922,26.62 52.636,24.755 54.608,24.441 	"/>
	<polygon fill="#47C8F5" points="60.413,28.986 59.698,30.851 57.727,31.165 56.468,29.613 57.183,27.749 59.154,27.435 	"/>
	<polygon fill="#47C8F5" points="70.393,35.011 69.679,36.876 67.706,37.19 66.448,35.639 67.162,33.774 69.134,33.46 	"/>
	<polygon fill="#47C8F5" points="65.443,31.967 64.729,33.832 62.757,34.146 61.499,32.594 62.214,30.73 64.186,30.416 	"/>
	<polygon fill="#47C8F5" points="75.383,37.895 74.668,39.759 72.695,40.073 71.438,38.522 72.152,36.658 74.124,36.343 	"/>
	<polygon fill="#47C8F5" points="80.445,40.395 79.73,42.26 77.759,42.574 76.5,41.022 77.215,39.158 79.188,38.844 	"/>
	<polygon fill="#47C8F5" points="85.118,43.526 84.404,45.391 82.432,45.705 81.174,44.154 81.888,42.29 83.86,41.975 	"/>
	<polygon fill="#47C8F5" points="69.069,24.793 67.205,24.079 66.891,22.106 68.442,20.849 70.307,21.563 70.62,23.535 	"/>
	<polygon fill="#47C8F5" points="66.437,29.09 64.571,28.376 64.257,26.404 65.808,25.146 67.673,25.86 67.987,27.832 	"/>
	<polygon fill="#47C8F5" points="60.692,39.261 58.827,38.547 58.513,36.574 60.064,35.316 61.929,36.03 62.243,38.002 	"/>
	<polygon fill="#47C8F5" points="36.23,26.161 34.662,27.397 32.808,26.657 32.521,24.68 34.09,23.444 35.944,24.185 	"/>
	<polygon fill="#47C8F5" points="36.23,31.428 34.662,32.664 32.808,31.923 32.521,29.947 34.09,28.711 35.944,29.452 	"/>
	<polygon fill="#47C8F5" points="36.23,37.084 34.662,38.32 32.808,37.579 32.521,35.603 34.09,34.367 35.944,35.107 	"/>
	<polygon fill="#47C8F5" points="36.23,42.716 34.662,43.952 32.808,43.211 32.521,41.234 34.09,39.999 35.944,40.739 	"/>
	<polygon fill="#47C8F5" points="36.23,48.422 34.662,49.658 32.808,48.917 32.521,46.941 34.09,45.705 35.944,46.446 	"/>
	<polygon fill="#47C8F5" points="36.23,54.112 34.662,55.349 32.808,54.608 32.521,52.631 34.09,51.396 35.944,52.136 	"/>
	<polygon fill="#47C8F5" points="36.23,60.033 34.662,61.27 32.808,60.529 32.521,58.552 34.09,57.317 35.944,58.057 	"/>
	<polygon fill="#47C8F5" points="36.23,65.39 34.662,66.625 32.808,65.885 32.521,63.908 34.09,62.673 35.944,63.413 	"/>
	<polygon fill="#47C8F5" points="36.23,71.11 34.662,72.347 32.808,71.606 32.521,69.629 34.09,68.394 35.944,69.134 	"/>
	<polygon fill="#47C8F5" points="26.234,52.704 26.495,54.684 24.911,55.9 23.066,55.136 22.805,53.157 24.389,51.94 	"/>
	<polygon fill="#47C8F5" points="30.762,55.394 31.023,57.373 29.439,58.59 27.594,57.826 27.333,55.847 28.917,54.63 	"/>
	<polygon fill="#47C8F5" points="40.467,61.158 40.729,63.138 39.144,64.354 37.299,63.591 37.037,61.611 38.621,60.395 	"/>
	<polygon fill="#47C8F5" points="50.265,66.979 50.526,68.959 48.942,70.175 47.098,69.411 46.835,67.432 48.42,66.215 	"/>
	<polygon fill="#47C8F5" points="55.355,70.003 55.617,71.983 54.032,73.199 52.188,72.435 51.926,70.456 53.51,69.239 	"/>
	<polygon fill="#47C8F5" points="59.961,72.738 60.223,74.718 58.638,75.935 56.792,75.171 56.531,73.191 58.115,71.975 	"/>
	<polygon fill="#47C8F5" points="64.879,75.66 65.141,77.64 63.556,78.857 61.711,78.093 61.449,76.113 63.033,74.897 	"/>
	<polygon fill="#47C8F5" points="54.999,49.241 53.135,48.526 52.82,46.554 54.371,45.296 56.236,46.01 56.55,47.982 	"/>
	<polygon fill="#47C8F5" points="58.044,44.292 56.179,43.578 55.864,41.605 57.416,40.347 59.281,41.062 59.595,43.034 	"/>
	<polygon fill="#47C8F5" points="52.116,54.23 50.251,53.516 49.938,51.544 51.488,50.286 53.353,51 53.667,52.972 	"/>
	<polygon fill="#47C8F5" points="49.615,59.293 47.751,58.579 47.437,56.606 48.988,55.349 50.853,56.063 51.166,58.035 	"/>
	<polygon fill="#47C8F5" points="46.484,63.967 44.619,63.252 44.306,61.28 45.856,60.022 47.721,60.736 48.035,62.708 	"/>
	<polygon fill="#47C8F5" points="43.851,68.571 41.985,67.856 41.672,65.884 43.223,64.626 45.088,65.34 45.401,67.312 	"/>
	<polygon fill="#47C8F5" points="41.018,73.966 39.152,73.252 38.838,71.279 40.39,70.021 42.254,70.736 42.568,72.708 	"/>
	<polygon fill="#47C8F5" points="90.872,59.59 90.157,61.455 88.185,61.769 86.927,60.218 87.642,58.354 89.613,58.039 	"/>
</g>
</svg>
