<?xml version="1.0" encoding="utf-8"?>
<!-- Generator: Adobe Illustrator 16.0.0, SVG Export Plug-In . SVG Version: 6.00 Build 0)  -->
<!DOCTYPE svg PUBLIC "-//W3C//DTD SVG 1.1//EN" "http://www.w3.org/Graphics/SVG/1.1/DTD/svg11.dtd">
<svg version="1.1" id="Layer_1" xmlns="http://www.w3.org/2000/svg" xmlns:xlink="http://www.w3.org/1999/xlink" x="0px" y="0px"
	 width="189.707px" height="270.965px" viewBox="1562.87 283.221 189.707 270.965"
	 enable-background="new 1562.87 283.221 189.707 270.965" xml:space="preserve">
<g>
	<rect x="1636.288" y="322.496" fill="none" width="41.086" height="16.812"/>
	<text transform="matrix(1 0 0 1 1643.9551 328.4316)"><tspan x="0" y="0" fill="#33CCFF" font-family="'Montserrat-Regular'" font-size="8">Wallet </tspan><tspan x="-0.684" y="8" fill="#33CCFF" font-family="'Montserrat-Regular'" font-size="8">Holder</tspan></text>
	<rect x="1589.673" y="347.622" fill="none" width="60.155" height="4.878"/>
	<text transform="matrix(1 0 0 1 1600.4854 351.3311)" fill="#FFFFFF" font-family="'Montserrat-Regular'" font-size="5">Government ID</text>
	<rect x="1676.617" y="347.622" fill="none" width="38.017" height="7.545"/>
	<text transform="matrix(1 0 0 1 1682.5986 351.3311)" fill="#FFFFFF" font-family="'Montserrat-Regular'" font-size="5">Prove Age</text>
	<rect x="1589.673" y="383.333" fill="none" width="60.155" height="4.879"/>
	<text transform="matrix(1 0 0 1 1604.4658 387.043)" fill="#FFFFFF" font-family="'Montserrat-Regular'" font-size="5">Prescription</text>
	<rect x="1671.675" y="383.333" fill="none" width="47.901" height="9.507"/>
	<text transform="matrix(1 0 0 1 1676.0908 387.043)" fill="#FFFFFF" font-family="'Montserrat-Regular'" font-size="5">Fill Prescription</text>
	<rect x="1589.673" y="455.688" fill="none" width="60.155" height="4.879"/>
	<text transform="matrix(1 0 0 1 1599.541 459.3975)" fill="#FFFFFF" font-family="'Montserrat-Regular'" font-size="5">KYC Credentials</text>
	<rect x="1671.675" y="455.688" fill="none" width="47.901" height="9.507"/>
	<text transform="matrix(1 0 0 1 1687.9453 459.3975)" fill="#FFFFFF" font-family="'Montserrat-Regular'" font-size="5">Invest</text>
	<rect x="1589.673" y="491.218" fill="none" width="60.155" height="4.879"/>
	<text transform="matrix(1 0 0 1 1609.7402 494.9277)" fill="#FFFFFF" font-family="'Montserrat-Regular'" font-size="5">Coupon</text>
	<rect x="1671.675" y="491.218" fill="none" width="47.901" height="9.507"/>
	<text transform="matrix(1 0 0 1 1679.208 494.9277)" fill="#FFFFFF" font-family="'Montserrat-Regular'" font-size="5">Get Discount</text>
	<rect x="1589.673" y="525.977" fill="none" width="60.155" height="4.879"/>
	<text transform="matrix(1 0 0 1 1605.2979 529.6865)" fill="#FFFFFF" font-family="'Montserrat-Regular'" font-size="5">Credit Card</text>
	<rect x="1671.675" y="525.977" fill="none" width="47.901" height="9.507"/>
	<text transform="matrix(1 0 0 1 1677.3857 529.6865)" fill="#FFFFFF" font-family="'Montserrat-Regular'" font-size="5">Purchase Item</text>
	<rect x="1589.673" y="417.025" fill="none" width="60.155" height="12.287"/>
	<text transform="matrix(1 0 0 1 1607.0605 420.7354)"><tspan x="0" y="0" fill="#FFFFFF" font-family="'Montserrat-Regular'" font-size="5">Employee</tspan><tspan x="4.598" y="6" fill="#FFFFFF" font-family="'Montserrat-Regular'" font-size="5">Badge</tspan></text>
	<rect x="1671.675" y="416.68" fill="none" width="47.901" height="13.221"/>
	<text transform="matrix(1 0 0 1 1686.8154 420.3896)"><tspan x="0" y="0" fill="#FFFFFF" font-family="'Montserrat-Regular'" font-size="5">Access</tspan><tspan x="-3.042" y="6" fill="#FFFFFF" font-family="'Montserrat-Regular'" font-size="5">Resource</tspan></text>
	<g>
		<rect x="1605.833" y="359.598" fill="#FFFFFF" width="26.612" height="2"/>
		<polygon fill="#FFFFFF" points="1634.234,360.546 1630.656,356.966 1631.502,360.513 1630.656,364.124 		"/>
	</g>
	<g>
		<rect x="1681.404" y="359.598" fill="#FFFFFF" width="26.612" height="2"/>
		<polygon fill="#FFFFFF" points="1709.806,360.546 1706.228,356.966 1707.073,360.513 1706.228,364.124 		"/>
	</g>
	<g>
		<rect x="1605.833" y="395.459" fill="#FFFFFF" width="26.612" height="2"/>
		<polygon fill="#FFFFFF" points="1634.234,396.407 1630.656,392.827 1631.502,396.374 1630.656,399.985 		"/>
	</g>
	<g>
		<rect x="1681.404" y="395.459" fill="#FFFFFF" width="26.612" height="2"/>
		<polygon fill="#FFFFFF" points="1709.806,396.407 1706.228,392.827 1707.073,396.374 1706.228,399.985 		"/>
	</g>
	<g>
		<rect x="1605.833" y="431.42" fill="#FFFFFF" width="26.612" height="2"/>
		<polygon fill="#FFFFFF" points="1634.234,432.368 1630.656,428.788 1631.502,432.335 1630.656,435.946 		"/>
	</g>
	<g>
		<rect x="1681.404" y="431.42" fill="#FFFFFF" width="26.612" height="2"/>
		<polygon fill="#FFFFFF" points="1709.806,432.368 1706.228,428.788 1707.073,432.335 1706.228,435.946 		"/>
	</g>
	<g>
		<rect x="1605.833" y="466.909" fill="#FFFFFF" width="26.612" height="2"/>
		<polygon fill="#FFFFFF" points="1634.234,467.857 1630.656,464.277 1631.502,467.824 1630.656,471.436 		"/>
	</g>
	<g>
		<rect x="1681.404" y="466.909" fill="#FFFFFF" width="26.612" height="2"/>
		<polygon fill="#FFFFFF" points="1709.806,467.857 1706.228,464.277 1707.073,467.824 1706.228,471.436 		"/>
	</g>
	<g>
		<rect x="1605.833" y="502.803" fill="#FFFFFF" width="26.612" height="2"/>
		<polygon fill="#FFFFFF" points="1634.234,503.751 1630.656,500.171 1631.502,503.718 1630.656,507.329 		"/>
	</g>
	<g>
		<rect x="1681.404" y="502.803" fill="#FFFFFF" width="26.612" height="2"/>
		<polygon fill="#FFFFFF" points="1709.806,503.751 1706.228,500.171 1707.073,503.718 1706.228,507.329 		"/>
	</g>
	<g>
		<rect x="1605.833" y="539.059" fill="#FFFFFF" width="26.612" height="2"/>
		<polygon fill="#FFFFFF" points="1634.234,540.007 1630.656,536.427 1631.502,539.974 1630.656,543.585 		"/>
	</g>
	<g>
		<rect x="1681.404" y="539.059" fill="#FFFFFF" width="26.612" height="2"/>
		<polygon fill="#FFFFFF" points="1709.806,540.007 1706.228,536.427 1707.073,539.974 1706.228,543.585 		"/>
	</g>
	<g>
		<g>
			<path fill="#33CCFF" d="M1662.161,288.279c-1.457,0-2.64,1.18-2.64,2.639v26.393c0,1.459,1.183,2.639,2.64,2.639h13.725
				c1.457,0,2.64-1.18,2.64-2.639v-26.393c0-1.459-1.183-2.639-2.64-2.639H1662.161z M1662.161,289.333h13.725
				c0.873,0,1.583,0.71,1.583,1.585v0.527h-5.806c-0.293,0-0.528,0.236-0.528,0.528c0,0.29,0.235,0.526,0.528,0.526h5.806v21.116
				h-16.892V292.5h5.807c0.293,0,0.528-0.236,0.528-0.526c0-0.292-0.235-0.528-0.528-0.528h-5.807v-0.527
				C1660.577,290.043,1661.288,289.333,1662.161,289.333L1662.161,289.333z M1668.495,291.445c-0.292,0-0.528,0.236-0.528,0.528
				c0,0.29,0.236,0.526,0.528,0.526h1.057c0.292,0,0.528-0.236,0.528-0.526c0-0.292-0.236-0.528-0.528-0.528H1668.495z
				 M1662.161,309.394c-0.294,0-0.528,0.235-0.528,0.528v1.054c0,0.292,0.234,0.528,0.528,0.528c0.293,0,0.528-0.236,0.528-0.528
				v-1.054C1662.689,309.629,1662.454,309.394,1662.161,309.394L1662.161,309.394z M1664.801,309.394
				c-0.294,0-0.528,0.235-0.528,0.528v1.054c0,0.292,0.234,0.528,0.528,0.528c0.292,0,0.527-0.236,0.527-0.528v-1.054
				C1665.328,309.629,1665.093,309.394,1664.801,309.394L1664.801,309.394z M1667.438,309.394c-0.292,0-0.526,0.235-0.526,0.528
				v1.054c0,0.292,0.234,0.528,0.526,0.528c0.295,0,0.528-0.236,0.528-0.528v-1.054
				C1667.967,309.629,1667.733,309.394,1667.438,309.394L1667.438,309.394z M1670.607,309.394c-0.294,0-0.527,0.235-0.527,0.528
				v1.054c0,0.292,0.233,0.528,0.527,0.528c0.293,0,0.527-0.236,0.527-0.528v-1.054
				C1671.135,309.629,1670.9,309.394,1670.607,309.394L1670.607,309.394z M1673.246,309.394c-0.292,0-0.528,0.235-0.528,0.528v1.054
				c0,0.292,0.236,0.528,0.528,0.528s0.528-0.236,0.528-0.528v-1.054C1673.774,309.629,1673.538,309.394,1673.246,309.394
				L1673.246,309.394z M1675.886,309.394c-0.293,0-0.528,0.235-0.528,0.528v1.054c0,0.292,0.235,0.528,0.528,0.528
				c0.294,0,0.528-0.236,0.528-0.528v-1.054C1676.414,309.629,1676.18,309.394,1675.886,309.394L1675.886,309.394z
				 M1660.577,314.673h16.892v2.638c0,0.875-0.71,1.585-1.583,1.585h-13.725c-0.873,0-1.584-0.71-1.584-1.585V314.673z
				 M1667.438,315.729c-0.292,0-0.526,0.236-0.526,0.526c0,0.292,0.234,0.528,0.526,0.528h3.169c0.293,0,0.527-0.236,0.527-0.528
				c0-0.29-0.234-0.526-0.527-0.526H1667.438z"/>
		</g>
		<g>
			<path fill="#33CCFF" d="M1653.957,313.553v1.293c0,0.355,0.29,0.645,0.646,0.645c0.354,0,0.645-0.289,0.645-0.645v-1.293
				c0-0.353-0.29-0.645-0.645-0.645C1654.247,312.908,1653.957,313.2,1653.957,313.553z"/>
			<path fill="#33CCFF" d="M1657.83,312.908c-0.355,0-0.646,0.292-0.646,0.645v1.293c0,0.355,0.29,0.645,0.646,0.645
				c0.354,0,0.645-0.289,0.645-0.645v-1.293C1658.475,313.2,1658.185,312.908,1657.83,312.908z"/>
			<path fill="#33CCFF" d="M1659.521,317.311v-0.529h-22.346c-0.354,0-0.645-0.291-0.645-0.646v-4.968
				c0-2.225,1.296-4.281,3.303-5.24l8.753-4.187c1.563,1.993,3.641,3.425,6.016,3.425c1.856,0,3.529-0.881,4.919-2.218v-1.892
				c-1.363,1.67-3.095,2.816-4.919,2.816c-4.099,0-7.745-5.773-7.745-10.327v-1.29c0-4.27,3.473-7.744,7.745-7.744
				c2.877,0,5.388,1.579,6.723,3.916c0.265-0.09,0.542-0.148,0.836-0.148h0.541c-1.475-2.992-4.546-5.059-8.1-5.059
				c-4.982,0-9.035,4.053-9.035,9.035v1.29c0,2.193,0.835,4.888,2.261,7.13l-8.553,4.088c-2.452,1.172-4.035,3.686-4.035,6.404
				v4.968c0,1.065,0.869,1.937,1.936,1.937h22.47C1659.572,317.83,1659.521,317.579,1659.521,317.311z"/>
			<path fill="#33CCFF" d="M1657.83,309.035h-6.455c-0.355,0-0.646,0.29-0.646,0.648c0,0.355,0.29,0.645,0.646,0.645h6.455
				c0.354,0,0.645-0.289,0.645-0.645C1658.475,309.325,1658.185,309.035,1657.83,309.035z"/>
			<path fill="#33CCFF" d="M1647.502,313.553v1.293c0,0.355,0.291,0.645,0.646,0.645c0.355,0,0.646-0.289,0.646-0.645v-1.293
				c0-0.353-0.291-0.645-0.646-0.645C1647.793,312.908,1647.502,313.2,1647.502,313.553z"/>
			<path fill="#33CCFF" d="M1637.822,313.553v1.293c0,0.355,0.29,0.645,0.646,0.645s0.645-0.289,0.645-0.645v-1.293
				c0-0.353-0.289-0.645-0.645-0.645S1637.822,313.2,1637.822,313.553z"/>
			<path fill="#33CCFF" d="M1641.049,313.553v1.293c0,0.355,0.291,0.645,0.646,0.645s0.645-0.289,0.645-0.645v-1.293
				c0-0.353-0.289-0.645-0.645-0.645S1641.049,313.2,1641.049,313.553z"/>
			<path fill="#33CCFF" d="M1650.729,313.553v1.293c0,0.355,0.29,0.645,0.646,0.645s0.646-0.289,0.646-0.645v-1.293
				c0-0.353-0.291-0.645-0.646-0.645S1650.729,313.2,1650.729,313.553z"/>
			<path fill="#33CCFF" d="M1644.275,313.553v1.293c0,0.355,0.29,0.645,0.646,0.645c0.354,0,0.646-0.289,0.646-0.645v-1.293
				c0-0.353-0.291-0.645-0.646-0.645C1644.565,312.908,1644.275,313.2,1644.275,313.553z"/>
		</g>
	</g>
	<rect x="1562.87" y="329.594" fill="none" width="35.926" height="13.906"/>
	<text transform="matrix(1 0 0 1 1563.4248 335.5293)" fill="#F12545" font-family="'Montserrat-Regular'" font-size="8">ISSUERS</text>
	<rect x="1709.746" y="329.463" fill="none" width="42.831" height="7.54"/>
	<text transform="matrix(1 0 0 1 1709.874 335.3984)" fill="#FFFFFF" font-family="'Montserrat-Regular'" font-size="8">VERIFIERS</text>
	<path fill="#FEFEFE" d="M1730.977,385.057c-0.027,0-0.053,0.002-0.08,0.007c-0.027,0.006-0.054,0.014-0.082,0.025
		c-0.024,0.012-0.05,0.025-0.074,0.041c-0.013,0.01-0.026,0.014-0.041,0.023l-12.623,10.813c-0.185,0.157-0.209,0.441-0.058,0.635
		c0.088,0.107,0.213,0.162,0.337,0.162c0.099,0,0.196-0.033,0.277-0.104l1.463-1.254v11.269h-1.306
		c-0.241,0-0.435,0.201-0.435,0.451s0.193,0.45,0.435,0.45h24.376c0.241,0,0.436-0.2,0.436-0.45s-0.194-0.451-0.436-0.451h-1.306
		v-11.269l1.463,1.254c0.081,0.07,0.18,0.104,0.278,0.104c0.124,0,0.248-0.055,0.335-0.162c0.153-0.193,0.127-0.478-0.058-0.635
		l-12.624-10.813c-0.012-0.01-0.026-0.014-0.04-0.023c-0.026-0.018-0.05-0.031-0.078-0.041c-0.026-0.012-0.05-0.018-0.078-0.025
		C1731.031,385.059,1731.004,385.057,1730.977,385.057L1730.977,385.057z M1730.979,386.085l10.011,8.575v7.51h-20.022v-7.51
		L1730.979,386.085z M1729.673,390.456c-0.48,0-0.871,0.404-0.871,0.9v1.803h-1.74c-0.48,0-0.872,0.405-0.872,0.901v2.703
		c0,0.496,0.392,0.9,0.872,0.9h1.74v1.803c0,0.496,0.391,0.9,0.871,0.9h2.61c0.48,0,0.871-0.404,0.871-0.9v-1.803h1.743
		c0.479,0,0.868-0.404,0.868-0.9v-2.703c0-0.496-0.39-0.901-0.868-0.901h-1.743v-1.803c0-0.496-0.391-0.9-0.871-0.9H1729.673z
		 M1729.673,391.356h2.61v1.803c0,0.496,0.392,0.901,0.871,0.901h1.743v2.703h-1.743c-0.479,0-0.871,0.404-0.871,0.9v1.803h-2.61
		v-1.803c0-0.496-0.392-0.9-0.871-0.9h-1.74v-2.703h1.74c0.479,0,0.871-0.405,0.871-0.901V391.356z M1720.967,403.07h20.022v3.604
		h-20.022V403.07z M1722.271,403.972c-0.241,0-0.435,0.2-0.435,0.451v0.9c0,0.25,0.193,0.451,0.435,0.451
		c0.242,0,0.436-0.201,0.436-0.451v-0.9C1722.707,404.172,1722.514,403.972,1722.271,403.972L1722.271,403.972z M1724.449,403.972
		c-0.241,0-0.436,0.2-0.436,0.451v0.9c0,0.25,0.194,0.451,0.436,0.451s0.435-0.201,0.435-0.451v-0.9
		C1724.884,404.172,1724.69,403.972,1724.449,403.972L1724.449,403.972z M1726.626,403.972c-0.242,0-0.437,0.2-0.437,0.451v0.9
		c0,0.25,0.194,0.451,0.437,0.451c0.241,0,0.436-0.201,0.436-0.451v-0.9C1727.062,404.172,1726.867,403.972,1726.626,403.972
		L1726.626,403.972z M1728.802,403.972c-0.241,0-0.436,0.2-0.436,0.451v0.9c0,0.25,0.194,0.451,0.436,0.451
		c0.242,0,0.436-0.201,0.436-0.451v-0.9C1729.237,404.172,1729.044,403.972,1728.802,403.972L1728.802,403.972z M1730.979,403.972
		c-0.241,0-0.436,0.2-0.436,0.451v0.9c0,0.25,0.194,0.451,0.436,0.451c0.24,0,0.436-0.201,0.436-0.451v-0.9
		C1731.414,404.172,1731.219,403.972,1730.979,403.972L1730.979,403.972z M1733.154,403.972c-0.24,0-0.436,0.2-0.436,0.451v0.9
		c0,0.25,0.195,0.451,0.436,0.451c0.241,0,0.436-0.201,0.436-0.451v-0.9C1733.59,404.172,1733.396,403.972,1733.154,403.972
		L1733.154,403.972z M1735.331,403.972c-0.241,0-0.434,0.2-0.434,0.451v0.9c0,0.25,0.192,0.451,0.434,0.451s0.435-0.201,0.435-0.451
		v-0.9C1735.766,404.172,1735.572,403.972,1735.331,403.972L1735.331,403.972z M1737.508,403.972c-0.242,0-0.435,0.2-0.435,0.451
		v0.9c0,0.25,0.192,0.451,0.435,0.451c0.241,0,0.434-0.201,0.434-0.451v-0.9C1737.941,404.172,1737.749,403.972,1737.508,403.972
		L1737.508,403.972z M1739.684,403.972c-0.241,0-0.435,0.2-0.435,0.451v0.9c0,0.25,0.193,0.451,0.435,0.451s0.436-0.201,0.436-0.451
		v-0.9C1740.119,404.172,1739.925,403.972,1739.684,403.972L1739.684,403.972z"/>
	<path fill="#F12545" d="M1579.532,527.313c-0.242,0-0.435,0.192-0.435,0.433v3.013h-6.507c-0.717,0-1.303,0.584-1.303,1.302
		c0,0.563,0.365,1.042,0.868,1.222v20.036h-1.302c-0.24,0-0.435,0.194-0.435,0.434s0.194,0.434,0.435,0.434h19.957
		c0.24,0,0.435-0.194,0.435-0.434s-0.194-0.434-0.435-0.434h-1.302v-20.036c0.503-0.18,0.868-0.658,0.868-1.222
		c0-0.718-0.586-1.302-1.303-1.302h-7.375v-1.712c0-0.24-0.193-0.434-0.434-0.434c-0.241,0-0.434,0.193-0.434,0.434v1.712h-0.867
		v-3.013C1579.966,527.506,1579.772,527.313,1579.532,527.313L1579.532,527.313z M1572.591,531.627h16.484
		c0.239,0,0.435,0.195,0.435,0.434c0,0.239-0.195,0.435-0.435,0.435h-16.484c-0.239,0-0.435-0.195-0.435-0.435
		C1572.156,531.822,1572.352,531.627,1572.591,531.627L1572.591,531.627z M1573.023,533.362h15.619v17.352h-6.074v-0.021
		c0-0.479-0.39-0.869-0.868-0.869h-1.734c-0.478,0-0.868,0.391-0.868,0.869v0.021h-6.074v-15.616h11.281
		c0.238,0,0.433-0.196,0.433-0.436c0-0.237-0.194-0.433-0.433-0.433h-11.281V533.362z M1585.604,534.229
		c-0.24,0-0.433,0.195-0.433,0.433c0,0.239,0.192,0.436,0.433,0.436h1.736c0.24,0,0.434-0.196,0.434-0.436
		c0-0.237-0.193-0.433-0.434-0.433H1585.604z M1575.193,535.965c-0.241,0-0.435,0.195-0.435,0.434c0,0.239,0.193,0.435,0.435,0.435
		h0.868c0.24,0,0.434-0.195,0.434-0.435c0-0.238-0.193-0.434-0.434-0.434H1575.193z M1578.663,535.965
		c-0.239,0-0.434,0.195-0.434,0.434c0,0.239,0.194,0.435,0.434,0.435h0.869c0.24,0,0.434-0.195,0.434-0.435
		c0-0.238-0.193-0.434-0.434-0.434H1578.663z M1582.134,535.965c-0.24,0-0.434,0.195-0.434,0.434c0,0.239,0.193,0.435,0.434,0.435
		h0.869c0.239,0,0.434-0.195,0.434-0.435c0-0.238-0.194-0.434-0.434-0.434H1582.134z M1585.604,535.965
		c-0.24,0-0.433,0.195-0.433,0.434c0,0.239,0.192,0.435,0.433,0.435h0.868c0.241,0,0.435-0.195,0.435-0.435
		c0-0.238-0.193-0.434-0.435-0.434H1585.604z M1575.193,537.7c-0.241,0-0.435,0.195-0.435,0.434c0,0.239,0.193,0.436,0.435,0.436
		h0.868c0.24,0,0.434-0.196,0.434-0.436c0-0.238-0.193-0.434-0.434-0.434H1575.193z M1578.663,537.7
		c-0.239,0-0.434,0.195-0.434,0.434c0,0.239,0.194,0.436,0.434,0.436h0.869c0.24,0,0.434-0.196,0.434-0.436
		c0-0.238-0.193-0.434-0.434-0.434H1578.663z M1582.134,537.7c-0.24,0-0.434,0.195-0.434,0.434c0,0.239,0.193,0.436,0.434,0.436
		h0.869c0.239,0,0.434-0.196,0.434-0.436c0-0.238-0.194-0.434-0.434-0.434H1582.134z M1585.604,537.7
		c-0.24,0-0.433,0.195-0.433,0.434c0,0.239,0.192,0.436,0.433,0.436h0.868c0.241,0,0.435-0.196,0.435-0.436
		c0-0.238-0.193-0.434-0.435-0.434H1585.604z M1575.193,539.437c-0.241,0-0.435,0.193-0.435,0.434c0,0.238,0.193,0.433,0.435,0.433
		h0.868c0.24,0,0.434-0.194,0.434-0.433c0-0.24-0.193-0.434-0.434-0.434H1575.193z M1578.663,539.437
		c-0.239,0-0.434,0.193-0.434,0.434c0,0.238,0.194,0.433,0.434,0.433h0.869c0.24,0,0.434-0.194,0.434-0.433
		c0-0.24-0.193-0.434-0.434-0.434H1578.663z M1582.134,539.437c-0.24,0-0.434,0.193-0.434,0.434c0,0.238,0.193,0.433,0.434,0.433
		h0.869c0.239,0,0.434-0.194,0.434-0.433c0-0.24-0.194-0.434-0.434-0.434H1582.134z M1585.604,539.437
		c-0.24,0-0.433,0.193-0.433,0.434c0,0.238,0.192,0.433,0.433,0.433h0.868c0.241,0,0.435-0.194,0.435-0.433
		c0-0.24-0.193-0.434-0.435-0.434H1585.604z M1575.193,541.171c-0.241,0-0.435,0.194-0.435,0.434c0,0.238,0.193,0.434,0.435,0.434
		h0.868c0.24,0,0.434-0.195,0.434-0.434c0-0.239-0.193-0.434-0.434-0.434H1575.193z M1578.663,541.171
		c-0.239,0-0.434,0.194-0.434,0.434c0,0.238,0.194,0.434,0.434,0.434h0.869c0.24,0,0.434-0.195,0.434-0.434
		c0-0.239-0.193-0.434-0.434-0.434H1578.663z M1582.134,541.171c-0.24,0-0.434,0.194-0.434,0.434c0,0.238,0.193,0.434,0.434,0.434
		h0.869c0.239,0,0.434-0.195,0.434-0.434c0-0.239-0.194-0.434-0.434-0.434H1582.134z M1585.604,541.171
		c-0.24,0-0.433,0.194-0.433,0.434c0,0.238,0.192,0.434,0.433,0.434h0.868c0.241,0,0.435-0.195,0.435-0.434
		c0-0.239-0.193-0.434-0.435-0.434H1585.604z M1575.193,542.906c-0.241,0-0.435,0.194-0.435,0.433c0,0.24,0.193,0.434,0.435,0.434
		h0.868c0.24,0,0.434-0.193,0.434-0.434c0-0.238-0.193-0.433-0.434-0.433H1575.193z M1578.663,542.906
		c-0.239,0-0.434,0.194-0.434,0.433c0,0.24,0.194,0.434,0.434,0.434h0.869c0.24,0,0.434-0.193,0.434-0.434
		c0-0.238-0.193-0.433-0.434-0.433H1578.663z M1582.134,542.906c-0.24,0-0.434,0.194-0.434,0.433c0,0.24,0.193,0.434,0.434,0.434
		h0.869c0.239,0,0.434-0.193,0.434-0.434c0-0.238-0.194-0.433-0.434-0.433H1582.134z M1585.604,542.906
		c-0.24,0-0.433,0.194-0.433,0.433c0,0.24,0.192,0.434,0.433,0.434h0.868c0.241,0,0.435-0.193,0.435-0.434
		c0-0.238-0.193-0.433-0.435-0.433H1585.604z M1575.193,544.641c-0.241,0-0.435,0.195-0.435,0.434c0,0.24,0.193,0.435,0.435,0.435
		h0.868c0.24,0,0.434-0.194,0.434-0.435c0-0.238-0.193-0.434-0.434-0.434H1575.193z M1578.663,544.641
		c-0.239,0-0.434,0.195-0.434,0.434c0,0.24,0.194,0.435,0.434,0.435h0.869c0.24,0,0.434-0.194,0.434-0.435
		c0-0.238-0.193-0.434-0.434-0.434H1578.663z M1582.134,544.641c-0.24,0-0.434,0.195-0.434,0.434c0,0.24,0.193,0.435,0.434,0.435
		h0.869c0.239,0,0.434-0.194,0.434-0.435c0-0.238-0.194-0.434-0.434-0.434H1582.134z M1585.604,544.641
		c-0.24,0-0.433,0.195-0.433,0.434c0,0.24,0.192,0.435,0.433,0.435h0.868c0.241,0,0.435-0.194,0.435-0.435
		c0-0.238-0.193-0.434-0.435-0.434H1585.604z M1575.193,546.376c-0.241,0-0.435,0.196-0.435,0.435c0,0.24,0.193,0.434,0.435,0.434
		h0.868c0.24,0,0.434-0.193,0.434-0.434c0-0.238-0.193-0.435-0.434-0.435H1575.193z M1578.663,546.376
		c-0.239,0-0.434,0.196-0.434,0.435c0,0.24,0.194,0.434,0.434,0.434h0.869c0.24,0,0.434-0.193,0.434-0.434
		c0-0.238-0.193-0.435-0.434-0.435H1578.663z M1582.134,546.376c-0.24,0-0.434,0.196-0.434,0.435c0,0.24,0.193,0.434,0.434,0.434
		h0.869c0.239,0,0.434-0.193,0.434-0.434c0-0.238-0.194-0.435-0.434-0.435H1582.134z M1585.604,546.376
		c-0.24,0-0.433,0.196-0.433,0.435c0,0.24,0.192,0.434,0.433,0.434h0.868c0.241,0,0.435-0.193,0.435-0.434
		c0-0.238-0.193-0.435-0.435-0.435H1585.604z M1575.193,548.111c-0.241,0-0.435,0.195-0.435,0.435c0,0.238,0.193,0.435,0.435,0.435
		h0.868c0.24,0,0.434-0.196,0.434-0.435c0-0.239-0.193-0.435-0.434-0.435H1575.193z M1578.663,548.111
		c-0.239,0-0.434,0.195-0.434,0.435c0,0.238,0.194,0.435,0.434,0.435h0.869c0.24,0,0.434-0.196,0.434-0.435
		c0-0.239-0.193-0.435-0.434-0.435H1578.663z M1582.134,548.111c-0.24,0-0.434,0.195-0.434,0.435c0,0.238,0.193,0.435,0.434,0.435
		h0.869c0.239,0,0.434-0.196,0.434-0.435c0-0.239-0.194-0.435-0.434-0.435H1582.134z M1585.604,548.111
		c-0.24,0-0.433,0.195-0.433,0.435c0,0.238,0.192,0.435,0.433,0.435h0.868c0.241,0,0.435-0.196,0.435-0.435
		c0-0.239-0.193-0.435-0.435-0.435H1585.604z M1579.966,550.693h1.734v2.603h-1.734V550.693z M1573.023,551.582h6.074v1.736h-6.074
		V551.582z M1582.568,551.582h6.074v1.736h-6.074V551.582z"/>
	<path fill="#F12545" d="M1575.385,492.538c-0.23,0-0.419,0.187-0.419,0.417v3.749h-3.771c-0.692,0-1.258,0.564-1.258,1.257
		c0,0.476,0.269,0.887,0.658,1.099l-2.169,4.339c-0.404,0.809-0.245,1.78,0.392,2.419l0.119,0.118c0.291,0.291,0.635,0.501,1,0.643
		v9.403h-1.258c-0.229,0-0.418,0.187-0.418,0.42c0,0.231,0.188,0.419,0.418,0.419h24.308c0.23,0,0.419-0.188,0.419-0.419
		c0-0.233-0.188-0.42-0.419-0.42h-1.257v-9.403c0.364-0.142,0.708-0.352,1-0.643l0.118-0.118c0.638-0.639,0.797-1.61,0.393-2.419
		l-2.169-4.339c0.39-0.214,0.658-0.623,0.658-1.099c0-0.692-0.565-1.257-1.258-1.257h-12.991v-1.653c0-0.231-0.188-0.42-0.42-0.42
		c-0.229,0-0.419,0.188-0.419,0.42v1.653h-0.838v-3.749C1575.804,492.725,1575.616,492.538,1575.385,492.538L1575.385,492.538z
		 M1571.194,497.542h19.277c0.23,0,0.419,0.188,0.419,0.419s-0.188,0.42-0.419,0.42h-19.277c-0.23,0-0.419-0.189-0.419-0.42
		S1570.964,497.542,1571.194,497.542L1571.194,497.542z M1571.452,499.218h3.09l-0.823,3.705c-0.052,0.226,0.093,0.45,0.317,0.5
		c0.031,0.008,0.062,0.012,0.091,0.012c0.193,0,0.366-0.135,0.41-0.329l0.839-3.772c0.007-0.038,0.004-0.076,0.001-0.115h10.91
		c-0.001,0.039-0.005,0.077,0.004,0.115l0.838,3.772c0.045,0.194,0.217,0.329,0.409,0.329c0.03,0,0.061-0.005,0.092-0.012
		c0.225-0.05,0.366-0.274,0.315-0.5l-0.821-3.705h3.089l2.278,4.554c0.241,0.486,0.146,1.07-0.237,1.453l-0.118,0.117
		c-0.73,0.734-1.909,0.817-2.737,0.196l-1.105-0.831c-0.444-0.332-1.065-0.332-1.509,0l-1.342,1.008
		c-0.74,0.555-1.774,0.555-2.515,0l-1.341-1.006c-0.103-0.078-0.217-0.136-0.335-0.179v-3.61c0-0.233-0.188-0.419-0.419-0.419
		s-0.419,0.186-0.419,0.419v3.61c-0.118,0.043-0.232,0.101-0.336,0.179l-1.34,1.006c-0.74,0.555-1.775,0.555-2.515,0l-1.342-1.006
		c-0.444-0.334-1.065-0.334-1.509,0l-1.105,0.829c-0.828,0.62-2.007,0.537-2.741-0.196l-0.116-0.117
		c-0.384-0.383-0.477-0.966-0.235-1.45L1571.452,499.218z M1574.127,505.296c0.089,0,0.179,0.026,0.251,0.083l1.344,1.005
		c1.036,0.777,2.482,0.777,3.52,0l1.342-1.005c0.146-0.111,0.353-0.111,0.5,0l1.342,1.005c0.519,0.389,1.14,0.583,1.761,0.583
		c0.62,0,1.241-0.194,1.759-0.583l1.343-1.005c0.148-0.111,0.354-0.111,0.502,0l1.104,0.828c0.59,0.442,1.303,0.627,1.997,0.572
		v5.001h-1.257c-0.23,0-0.419,0.188-0.419,0.419c0,0.231,0.188,0.418,0.419,0.418h1.257v3.364h-11.734v-3.353h1.328
		c0.23,0,0.419-0.187,0.419-0.419s-0.188-0.419-0.419-0.419h-1.328v-3.353c0-0.462-0.377-0.839-0.838-0.839h-4.191
		c-0.461,0-0.837,0.377-0.837,0.839v3.353h-2.515v-5.014c0.694,0.057,1.407-0.128,1.997-0.57l1.104-0.828
		C1573.951,505.322,1574.039,505.296,1574.127,505.296L1574.127,505.296z M1582.509,507.6c-0.461,0-0.837,0.377-0.837,0.839v3.331
		c0,0.462,0.376,0.838,0.837,0.838h5.029c0.462,0,0.838-0.376,0.838-0.838v-3.331c0-0.462-0.376-0.839-0.838-0.839H1582.509z
		 M1574.127,508.438h4.191v7.521h-4.191V508.438z M1582.509,508.438h5.029v3.331h-5.029V508.438z M1577.061,511.372
		c-0.229,0-0.419,0.187-0.419,0.419v0.838c0,0.232,0.189,0.419,0.419,0.419c0.231,0,0.42-0.187,0.42-0.419v-0.838
		C1577.48,511.559,1577.292,511.372,1577.061,511.372L1577.061,511.372z M1570.775,512.629h2.515v3.353h-2.515V512.629z
		 M1572.032,513.468c-0.231,0-0.42,0.186-0.42,0.419v0.837c0,0.233,0.188,0.42,0.42,0.42c0.23,0,0.419-0.187,0.419-0.42v-0.837
		C1572.451,513.653,1572.263,513.468,1572.032,513.468L1572.032,513.468z M1580.833,513.468c-0.23,0-0.419,0.186-0.419,0.419v0.837
		c0,0.233,0.188,0.42,0.419,0.42s0.419-0.187,0.419-0.42v-0.837C1581.252,513.653,1581.063,513.468,1580.833,513.468
		L1580.833,513.468z M1582.928,513.468c-0.23,0-0.419,0.186-0.419,0.419v0.837c0,0.233,0.188,0.42,0.419,0.42
		c0.231,0,0.42-0.187,0.42-0.42v-0.837C1583.348,513.653,1583.159,513.468,1582.928,513.468L1582.928,513.468z M1585.023,513.468
		c-0.229,0-0.419,0.186-0.419,0.419v0.837c0,0.233,0.189,0.42,0.419,0.42c0.23,0,0.419-0.187,0.419-0.42v-0.837
		C1585.442,513.653,1585.254,513.468,1585.023,513.468L1585.023,513.468z M1587.12,513.468c-0.231,0-0.42,0.186-0.42,0.419v0.837
		c0,0.233,0.188,0.42,0.42,0.42c0.229,0,0.418-0.187,0.418-0.42v-0.837C1587.538,513.653,1587.35,513.468,1587.12,513.468
		L1587.12,513.468z M1589.215,513.468c-0.23,0-0.419,0.186-0.419,0.419v0.837c0,0.233,0.188,0.42,0.419,0.42
		c0.229,0,0.419-0.187,0.419-0.42v-0.837C1589.634,513.653,1589.444,513.468,1589.215,513.468L1589.215,513.468z"/>
	<path fill="#FEFEFE" d="M1725.385,348.334c-0.23,0-0.419,0.187-0.419,0.417v3.749h-3.771c-0.692,0-1.258,0.564-1.258,1.257
		c0,0.476,0.269,0.887,0.658,1.099l-2.169,4.339c-0.404,0.809-0.245,1.78,0.392,2.419l0.119,0.118c0.291,0.291,0.635,0.501,1,0.643
		v9.403h-1.258c-0.229,0-0.418,0.187-0.418,0.42c0,0.231,0.188,0.419,0.418,0.419h24.308c0.23,0,0.419-0.188,0.419-0.419
		c0-0.233-0.188-0.42-0.419-0.42h-1.257v-9.403c0.364-0.142,0.708-0.352,1-0.643l0.118-0.118c0.638-0.639,0.797-1.61,0.393-2.419
		l-2.169-4.339c0.39-0.214,0.658-0.623,0.658-1.099c0-0.692-0.565-1.257-1.258-1.257h-12.991v-1.653c0-0.231-0.188-0.42-0.42-0.42
		c-0.229,0-0.419,0.188-0.419,0.42v1.653h-0.838v-3.749C1725.804,348.521,1725.616,348.334,1725.385,348.334L1725.385,348.334z
		 M1721.194,353.338h19.277c0.23,0,0.419,0.188,0.419,0.419s-0.188,0.42-0.419,0.42h-19.277c-0.23,0-0.419-0.189-0.419-0.42
		S1720.964,353.338,1721.194,353.338L1721.194,353.338z M1721.452,355.014h3.09l-0.823,3.705c-0.052,0.226,0.093,0.45,0.317,0.5
		c0.031,0.008,0.062,0.012,0.091,0.012c0.193,0,0.366-0.135,0.41-0.329l0.839-3.772c0.007-0.038,0.004-0.076,0.001-0.115h10.91
		c-0.001,0.039-0.005,0.077,0.004,0.115l0.838,3.772c0.045,0.194,0.217,0.329,0.409,0.329c0.03,0,0.061-0.005,0.092-0.012
		c0.225-0.05,0.366-0.274,0.315-0.5l-0.821-3.705h3.089l2.278,4.554c0.241,0.486,0.146,1.07-0.237,1.453l-0.118,0.117
		c-0.73,0.734-1.909,0.817-2.737,0.196l-1.105-0.831c-0.444-0.332-1.065-0.332-1.509,0l-1.342,1.008
		c-0.74,0.555-1.774,0.555-2.515,0l-1.341-1.006c-0.103-0.078-0.217-0.136-0.335-0.179v-3.61c0-0.233-0.188-0.419-0.419-0.419
		s-0.419,0.186-0.419,0.419v3.61c-0.118,0.043-0.232,0.101-0.336,0.179l-1.34,1.006c-0.74,0.555-1.775,0.555-2.515,0l-1.342-1.006
		c-0.444-0.334-1.065-0.334-1.509,0l-1.105,0.829c-0.828,0.62-2.007,0.537-2.741-0.196l-0.116-0.117
		c-0.384-0.383-0.477-0.966-0.235-1.45L1721.452,355.014z M1724.127,361.092c0.089,0,0.179,0.026,0.251,0.083l1.344,1.005
		c1.036,0.777,2.482,0.777,3.52,0l1.342-1.005c0.146-0.111,0.353-0.111,0.5,0l1.342,1.005c0.519,0.389,1.14,0.583,1.761,0.583
		c0.62,0,1.241-0.194,1.759-0.583l1.343-1.005c0.148-0.111,0.354-0.111,0.502,0l1.104,0.828c0.59,0.442,1.303,0.627,1.997,0.572
		v5.001h-1.257c-0.23,0-0.419,0.188-0.419,0.419c0,0.231,0.188,0.418,0.419,0.418h1.257v3.364h-11.734v-3.353h1.328
		c0.23,0,0.419-0.187,0.419-0.419s-0.188-0.419-0.419-0.419h-1.328v-3.353c0-0.462-0.377-0.839-0.838-0.839h-4.191
		c-0.461,0-0.837,0.377-0.837,0.839v3.353h-2.515v-5.014c0.694,0.057,1.407-0.128,1.997-0.57l1.104-0.828
		C1723.951,361.118,1724.039,361.092,1724.127,361.092L1724.127,361.092z M1732.509,363.396c-0.461,0-0.837,0.377-0.837,0.839v3.331
		c0,0.462,0.376,0.838,0.837,0.838h5.029c0.462,0,0.838-0.376,0.838-0.838v-3.331c0-0.462-0.376-0.839-0.838-0.839H1732.509z
		 M1724.127,364.234h4.191v7.521h-4.191V364.234z M1732.509,364.234h5.029v3.331h-5.029V364.234z M1727.061,367.168
		c-0.229,0-0.419,0.187-0.419,0.419v0.838c0,0.232,0.189,0.419,0.419,0.419c0.231,0,0.42-0.187,0.42-0.419v-0.838
		C1727.48,367.354,1727.292,367.168,1727.061,367.168L1727.061,367.168z M1720.775,368.425h2.515v3.353h-2.515V368.425z
		 M1722.032,369.264c-0.231,0-0.42,0.186-0.42,0.419v0.837c0,0.233,0.188,0.42,0.42,0.42c0.23,0,0.419-0.187,0.419-0.42v-0.837
		C1722.451,369.449,1722.263,369.264,1722.032,369.264L1722.032,369.264z M1730.833,369.264c-0.23,0-0.419,0.186-0.419,0.419v0.837
		c0,0.233,0.188,0.42,0.419,0.42s0.419-0.187,0.419-0.42v-0.837C1731.252,369.449,1731.063,369.264,1730.833,369.264
		L1730.833,369.264z M1732.928,369.264c-0.23,0-0.419,0.186-0.419,0.419v0.837c0,0.233,0.188,0.42,0.419,0.42
		c0.231,0,0.42-0.187,0.42-0.42v-0.837C1733.348,369.449,1733.159,369.264,1732.928,369.264L1732.928,369.264z M1735.023,369.264
		c-0.229,0-0.419,0.186-0.419,0.419v0.837c0,0.233,0.189,0.42,0.419,0.42c0.23,0,0.419-0.187,0.419-0.42v-0.837
		C1735.442,369.449,1735.254,369.264,1735.023,369.264L1735.023,369.264z M1737.12,369.264c-0.231,0-0.42,0.186-0.42,0.419v0.837
		c0,0.233,0.188,0.42,0.42,0.42c0.229,0,0.418-0.187,0.418-0.42v-0.837C1737.538,369.449,1737.35,369.264,1737.12,369.264
		L1737.12,369.264z M1739.215,369.264c-0.23,0-0.419,0.186-0.419,0.419v0.837c0,0.233,0.188,0.42,0.419,0.42
		c0.229,0,0.419-0.187,0.419-0.42v-0.837C1739.634,369.449,1739.444,369.264,1739.215,369.264L1739.215,369.264z"/>
	<g>
		<g>
			<path fill="#F12545" d="M1581.421,384.351c-1.161,0-2.321,0.15-3.452,0.453l-1.182,0.315c-0.492,0.133-0.862,0.543-0.941,1.047
				l-0.763,4.87c-0.028,0.184,0.008,0.361,0.089,0.521c-0.285,0.529-0.497,1.097-0.627,1.687l-0.945,4.222
				c-0.191,0.865-0.536,1.677-1.023,2.414l-0.639,0.97c-0.198,0.301-0.25,0.669-0.146,1.012c0.029,0.093,0.069,0.178,0.116,0.258
				l-0.701,0.336c-1.634,0.78-2.689,2.456-2.689,4.268v2.451c0,0.712,0.579,1.29,1.29,1.29h23.229c0.711,0,1.29-0.578,1.29-1.29
				v-2.451c0-1.812-1.056-3.487-2.689-4.268l-0.551-0.264c0.074-0.103,0.139-0.214,0.178-0.338c0.105-0.346,0.048-0.711-0.155-1.01
				l-0.749-1.095c-0.492-0.721-0.846-1.511-1.047-2.35l-0.914-3.811c-0.161-0.675-0.436-1.312-0.806-1.902
				c0.14-0.183,0.204-0.415,0.167-0.649l-0.765-4.87c-0.079-0.503-0.447-0.914-0.941-1.047l-1.182-0.315
				C1583.743,384.501,1582.583,384.351,1581.421,384.351L1581.421,384.351z M1581.421,385.21c1.087,0,2.175,0.141,3.23,0.426
				l1.181,0.315c0.165,0.044,0.287,0.181,0.314,0.35l0.765,4.867h-0.002l-2.618-0.876c-0.264-0.09-0.534-0.16-0.806-0.221
				c0.322-0.432,0.518-0.967,0.518-1.546c0-1.423-1.158-2.581-2.582-2.581c-1.423,0-2.58,1.158-2.58,2.581
				c0,0.579,0.194,1.114,0.517,1.546c-0.271,0.062-0.542,0.131-0.806,0.221l-2.618,0.876l0.763-4.868
				c0.026-0.168,0.149-0.305,0.314-0.349l1.183-0.315C1579.249,385.351,1580.335,385.21,1581.421,385.21L1581.421,385.21z
				 M1581.421,386.805c0.949,0,1.721,0.771,1.721,1.721s-0.771,1.721-1.721,1.721c-0.948,0-1.72-0.771-1.72-1.721
				S1580.473,386.805,1581.421,386.805L1581.421,386.805z M1582.67,390.784c0.457,0.068,0.909,0.176,1.348,0.324l2.618,0.877
				c0.049,0.016,0.099,0.016,0.149,0.023c0.363,0.548,0.625,1.146,0.778,1.781l0.913,3.81c0.226,0.941,0.621,1.828,1.172,2.634
				l0.749,1.094c0.075,0.111,0.061,0.217,0.044,0.271c-0.027,0.086-0.094,0.154-0.18,0.198l-4.551-2.176
				c0.221-0.419,0.405-0.854,0.55-1.289c0.462-0.186,0.87-0.739,1.072-1.492c0.286-1.063,0.018-1.963-0.636-2.138
				c-0.027-0.008-0.057-0.015-0.089-0.02c-0.017-0.482-0.032-0.76-0.053-0.888c-0.043-0.233-0.265-0.388-0.499-0.349
				c-0.234,0.043-0.389,0.265-0.348,0.498c0.02,0.118,0.039,0.736,0.047,1l0.01,0.283c0.006,0.153,0.097,0.293,0.233,0.363
				c0.136,0.071,0.301,0.062,0.43-0.021c0.023-0.015,0.041-0.023,0.047-0.029c0.08,0.094,0.184,0.491,0.026,1.078
				c-0.167,0.621-0.482,0.908-0.577,0.919c-0.189,0-0.357,0.124-0.412,0.308c-0.614,2.065-2.218,4.153-4.092,4.153
				c-1.875,0-3.478-2.088-4.091-4.153c-0.056-0.184-0.221-0.308-0.412-0.308c-0.098-0.011-0.411-0.298-0.578-0.919
				c-0.166-0.622-0.038-1.034,0.002-1.082c0,0,0.023,0.003,0.072,0.033c0.128,0.084,0.293,0.093,0.43,0.021
				c0.137-0.07,0.226-0.208,0.233-0.363l0.009-0.252c0.009-0.252,0.03-0.92,0.053-1.045c0.041-0.233-0.115-0.455-0.349-0.497
				c-0.238-0.044-0.457,0.114-0.498,0.348c-0.024,0.133-0.039,0.423-0.058,0.901c-0.032,0.005-0.063,0.012-0.091,0.02
				c-0.653,0.175-0.921,1.074-0.636,2.138c0.202,0.753,0.61,1.307,1.072,1.492c0.145,0.436,0.331,0.87,0.552,1.289l-4.44,2.121
				c-0.043-0.047-0.068-0.099-0.078-0.133c-0.018-0.058-0.036-0.171,0.042-0.287l0.639-0.969c0.544-0.826,0.931-1.734,1.146-2.701
				l0.941-4.221c0.111-0.492,0.287-0.964,0.52-1.409c0.103,0.005,0.206-0.004,0.305-0.037l2.62-0.877
				c0.438-0.148,0.891-0.254,1.348-0.324c0.371,0.205,0.797,0.322,1.248,0.322C1581.873,391.106,1582.299,390.989,1582.67,390.784
				L1582.67,390.784z M1583.618,391.538c-0.093,0.006-0.186,0.021-0.274,0.053l-0.673,0.227c-1.122,0.377-2.377,0.579-3.629,0.579
				h-1.099c-0.238,0-0.431,0.192-0.431,0.431s0.192,0.43,0.431,0.43h1.099c1.345,0,2.695-0.217,3.905-0.625l0.672-0.229
				c0.021-0.007,0.042-0.007,0.061-0.007c0.021,0,0.039,0.004,0.039,0l0.688,0.726c0.165,0.174,0.437,0.182,0.608,0.018
				c0.171-0.164,0.18-0.438,0.016-0.608l-0.689-0.726C1584.167,391.618,1583.892,391.524,1583.618,391.538L1583.618,391.538z
				 M1577.571,400.361c0.948,1.422,2.312,2.498,3.85,2.498c1.536,0,2.902-1.076,3.849-2.498l0.425,0.203l-3.386,8.887
				c-0.019,0.049-0.025,0.103-0.025,0.151h-1.726c0-0.049-0.005-0.103-0.025-0.151l-3.384-8.887L1577.571,400.361z
				 M1576.369,400.938l3.302,8.665h-1.054l-3.104-3.879l1.091-1.456c0.08-0.106,0.106-0.244,0.07-0.374l-0.78-2.727
				L1576.369,400.938z M1586.474,400.938l0.475,0.229l-0.779,2.727c-0.037,0.13-0.011,0.268,0.069,0.374l1.079,1.442l-3.208,3.609
				c-0.071,0.08-0.103,0.183-0.103,0.283h-0.835L1586.474,400.938z M1587.738,401.543l3.528,1.687
				c1.335,0.64,2.199,2.01,2.199,3.492v2.451c0,0.237-0.193,0.43-0.43,0.43h-8.027l3.186-3.585c0.137-0.152,0.146-0.38,0.023-0.543
				l-1.163-1.55L1587.738,401.543z M1575.106,401.543l0.681,2.382l-1.163,1.55c-0.117,0.155-0.113,0.373,0.009,0.525l2.884,3.603
				h-7.71c-0.236,0-0.43-0.192-0.43-0.43v-2.451c0-1.48,0.864-2.853,2.201-3.492L1575.106,401.543z M1570.667,407.022
				c-0.238,0-0.43,0.191-0.43,0.431v0.859c0,0.239,0.191,0.431,0.43,0.431c0.239,0,0.431-0.191,0.431-0.431v-0.859
				C1571.098,407.214,1570.906,407.022,1570.667,407.022L1570.667,407.022z M1572.818,407.022c-0.239,0-0.43,0.191-0.43,0.431v0.859
				c0,0.239,0.19,0.431,0.43,0.431c0.238,0,0.43-0.191,0.43-0.431v-0.859C1573.248,407.214,1573.057,407.022,1572.818,407.022
				L1572.818,407.022z M1574.969,407.022c-0.238,0-0.43,0.191-0.43,0.431v0.859c0,0.239,0.191,0.431,0.43,0.431
				c0.239,0,0.431-0.191,0.431-0.431v-0.859C1575.399,407.214,1575.208,407.022,1574.969,407.022L1574.969,407.022z
				 M1587.874,407.022c-0.238,0-0.431,0.191-0.431,0.431v0.859c0,0.239,0.192,0.431,0.431,0.431s0.43-0.191,0.43-0.431v-0.859
				C1588.304,407.214,1588.112,407.022,1587.874,407.022L1587.874,407.022z M1590.024,407.022c-0.238,0-0.43,0.191-0.43,0.431v0.859
				c0,0.239,0.191,0.431,0.43,0.431c0.239,0,0.43-0.191,0.43-0.431v-0.859C1590.454,407.214,1590.264,407.022,1590.024,407.022
				L1590.024,407.022z M1592.176,407.022c-0.239,0-0.431,0.191-0.431,0.431v0.859c0,0.239,0.191,0.431,0.431,0.431
				c0.238,0,0.43-0.191,0.43-0.431v-0.859C1592.605,407.214,1592.414,407.022,1592.176,407.022L1592.176,407.022z"/>
		</g>
	</g>
	<path fill="#F12545" d="M1580.833,458.487c-0.149,0-0.302,0.028-0.442,0.085l-11.049,4.353c-0.366,0.144-0.569,0.514-0.495,0.901
		c0.072,0.387,0.399,0.656,0.792,0.656h0.7v0.807c0,0.445,0.362,0.808,0.807,0.808h0.808v8.073h-0.808
		c-0.444,0-0.807,0.362-0.807,0.808v0.807h-0.808c-0.445,0-0.808,0.363-0.808,0.808v2.019c0,0.222,0.182,0.403,0.403,0.403h23.412
		c0.222,0,0.403-0.182,0.403-0.403v-2.019c0-0.444-0.362-0.808-0.807-0.808h-0.808v-0.807c0-0.445-0.363-0.808-0.808-0.808h-0.807
		v-8.073h0.807c0.444,0,0.808-0.362,0.808-0.808v-0.807h0.7c0.393,0,0.719-0.27,0.793-0.656c0.072-0.388-0.131-0.758-0.496-0.901
		l-11.049-4.353C1581.135,458.516,1580.983,458.487,1580.833,458.487L1580.833,458.487z M1580.833,459.295
		c0.051,0,0.1,0.01,0.147,0.028l11.048,4.352h-1.104c-0.223,0-0.404,0.182-0.404,0.403v1.211h-19.375v-0.807h14.936
		c0.222,0,0.403-0.182,0.403-0.404c0-0.222-0.182-0.403-0.403-0.403h-16.442l11.048-4.352
		C1580.733,459.305,1580.783,459.295,1580.833,459.295L1580.833,459.295z M1580.833,460.445c-0.667,0-1.211,0.545-1.211,1.211
		c0,0.668,0.544,1.212,1.211,1.212s1.211-0.544,1.211-1.212C1582.044,460.99,1581.5,460.445,1580.833,460.445L1580.833,460.445z
		 M1580.833,461.152c0.277,0,0.505,0.228,0.505,0.504c0,0.278-0.228,0.505-0.505,0.505s-0.505-0.227-0.505-0.505
		C1580.328,461.38,1580.556,461.152,1580.833,461.152L1580.833,461.152z M1587.695,463.675c-0.223,0-0.403,0.182-0.403,0.403
		c0,0.223,0.181,0.404,0.403,0.404h1.614c0.223,0,0.404-0.182,0.404-0.404c0-0.222-0.182-0.403-0.404-0.403H1587.695z
		 M1572.761,466.097h1.614v8.073h-1.614V466.097z M1575.182,466.097h1.615v8.073h-1.615V466.097z M1577.604,466.097h1.615v8.073
		h-1.615V466.097z M1580.026,466.097h1.614v8.073h-1.614V466.097z M1582.448,466.097h1.614v8.073h-1.614V466.097z M1584.87,466.097
		h1.614v8.073h-1.614V466.097z M1587.292,466.097h1.614v8.073h-1.614V466.097z M1571.146,474.978h19.375v1.211
		c0,0.222,0.182,0.403,0.404,0.403h1.211v1.614h-22.604v-1.614h1.211c0.222,0,0.403-0.182,0.403-0.403V474.978z M1572.761,475.784
		c-0.223,0-0.404,0.182-0.404,0.404v0.807c0,0.223,0.182,0.404,0.404,0.404c0.222,0,0.403-0.182,0.403-0.404v-0.807
		C1573.164,475.966,1572.982,475.784,1572.761,475.784L1572.761,475.784z M1574.778,475.784c-0.222,0-0.403,0.182-0.403,0.404v0.807
		c0,0.223,0.182,0.404,0.403,0.404s0.403-0.182,0.403-0.404v-0.807C1575.182,475.966,1575,475.784,1574.778,475.784
		L1574.778,475.784z M1576.797,475.784c-0.223,0-0.403,0.182-0.403,0.404v0.807c0,0.223,0.181,0.404,0.403,0.404
		c0.222,0,0.403-0.182,0.403-0.404v-0.807C1577.2,475.966,1577.019,475.784,1576.797,475.784L1576.797,475.784z M1578.815,475.784
		c-0.223,0-0.404,0.182-0.404,0.404v0.807c0,0.223,0.182,0.404,0.404,0.404c0.222,0,0.403-0.182,0.403-0.404v-0.807
		C1579.219,475.966,1579.037,475.784,1578.815,475.784L1578.815,475.784z M1580.833,475.784c-0.222,0-0.403,0.182-0.403,0.404v0.807
		c0,0.223,0.182,0.404,0.403,0.404s0.403-0.182,0.403-0.404v-0.807C1581.236,475.966,1581.055,475.784,1580.833,475.784
		L1580.833,475.784z M1582.852,475.784c-0.223,0-0.403,0.182-0.403,0.404v0.807c0,0.223,0.181,0.404,0.403,0.404
		c0.222,0,0.403-0.182,0.403-0.404v-0.807C1583.255,475.966,1583.073,475.784,1582.852,475.784L1582.852,475.784z M1584.87,475.784
		c-0.223,0-0.404,0.182-0.404,0.404v0.807c0,0.223,0.182,0.404,0.404,0.404c0.222,0,0.403-0.182,0.403-0.404v-0.807
		C1585.273,475.966,1585.092,475.784,1584.87,475.784L1584.87,475.784z M1586.888,475.784c-0.222,0-0.403,0.182-0.403,0.404v0.807
		c0,0.223,0.182,0.404,0.403,0.404c0.223,0,0.404-0.182,0.404-0.404v-0.807C1587.292,475.966,1587.11,475.784,1586.888,475.784
		L1586.888,475.784z M1588.906,475.784c-0.223,0-0.403,0.182-0.403,0.404v0.807c0,0.223,0.181,0.404,0.403,0.404
		c0.222,0,0.403-0.182,0.403-0.404v-0.807C1589.31,475.966,1589.128,475.784,1588.906,475.784L1588.906,475.784z"/>
	<g>
		<g>
			<path fill="#F12545" d="M1580.854,349.073c-0.071,0.004-0.144,0.025-0.208,0.064c-0.126,0.079-0.204,0.218-0.204,0.367v3.909
				c-2.752,0.211-4.949,2.409-5.161,5.161h-0.453c-0.238,0-0.433,0.191-0.433,0.432c0,0.239,0.194,0.432,0.433,0.432h0.432v1.727
				h-3.455v-0.432c0-0.713-0.581-1.295-1.295-1.295h-0.864c-0.714,0-1.296,0.582-1.296,1.295v0.512
				c-0.5,0.178-0.863,0.654-0.863,1.217c0,0.561,0.363,1.037,0.863,1.215v9.582h-0.432c-0.237,0-0.432,0.191-0.432,0.432
				c0,0.238,0.194,0.432,0.432,0.432h25.912c0.237,0,0.432-0.193,0.432-0.432c0-0.24-0.194-0.432-0.432-0.432h-0.432v-9.582
				c0.5-0.178,0.863-0.654,0.863-1.215c0-0.562-0.363-1.039-0.863-1.217v-0.512c0-0.713-0.582-1.295-1.296-1.295h-0.864
				c-0.714,0-1.295,0.582-1.295,1.295v0.432h-3.455v-1.727h0.432c0.238,0,0.433-0.192,0.433-0.432c0-0.24-0.194-0.432-0.433-0.432
				h-0.453c-0.212-2.752-2.409-4.95-5.161-5.161v-1.501c0.886,0.398,1.854,0.615,2.826,0.615h0.197c0.237,0,0.432-0.191,0.432-0.432
				v-1.728c0-0.239-0.194-0.432-0.432-0.432h-0.197c-0.935,0-1.871-0.222-2.704-0.638l-0.359-0.181
				C1581.001,349.085,1580.927,349.07,1580.854,349.073L1580.854,349.073z M1581.306,350.197c0.813,0.364,1.701,0.568,2.591,0.601
				v0.863c-0.854-0.033-1.705-0.251-2.469-0.635l-0.122-0.061V350.197z M1580.874,354.256c2.475,0,4.513,1.901,4.73,4.319h-9.461
				C1576.361,356.157,1578.399,354.256,1580.874,354.256L1580.874,354.256z M1576.124,359.438h2.591v1.727h-2.591V359.438z
				 M1579.578,359.438h2.592v1.727h-2.592V359.438z M1583.033,359.438h2.591v1.727h-2.591V359.438z M1569.646,360.302h0.864
				c0.237,0,0.432,0.193,0.432,0.432v0.432h-1.728v-0.432C1569.214,360.495,1569.408,360.302,1569.646,360.302L1569.646,360.302z
				 M1591.238,360.302h0.864c0.237,0,0.432,0.193,0.432,0.432v0.432h-1.727v-0.432
				C1590.808,360.495,1591.001,360.302,1591.238,360.302L1591.238,360.302z M1568.782,362.03h24.184
				c0.238,0,0.433,0.193,0.433,0.432c0,0.236-0.194,0.432-0.433,0.432h-24.184c-0.238,0-0.433-0.195-0.433-0.432
				C1568.35,362.224,1568.544,362.03,1568.782,362.03L1568.782,362.03z M1569.214,363.757h23.32v9.502h-8.638v-1.75
				c0-0.477-0.388-0.863-0.863-0.863h-4.318c-0.476,0-0.864,0.387-0.864,0.863v1.75h-8.637V363.757z M1572.237,365.483
				c-0.238,0-0.433,0.193-0.433,0.432c0,0.24,0.194,0.434,0.433,0.434h0.863c0.237,0,0.432-0.193,0.432-0.434
				c0-0.238-0.194-0.432-0.432-0.432H1572.237z M1574.828,365.483c-0.238,0-0.433,0.193-0.433,0.432c0,0.24,0.194,0.434,0.433,0.434
				h0.863c0.238,0,0.433-0.193,0.433-0.434c0-0.238-0.194-0.432-0.433-0.432H1574.828z M1579.146,365.483
				c-0.237,0-0.432,0.193-0.432,0.432c0,0.24,0.194,0.434,0.432,0.434h0.864c0.237,0,0.432-0.193,0.432-0.434
				c0-0.238-0.194-0.432-0.432-0.432H1579.146z M1581.737,365.483c-0.237,0-0.432,0.193-0.432,0.432c0,0.24,0.194,0.434,0.432,0.434
				h0.864c0.237,0,0.432-0.193,0.432-0.434c0-0.238-0.194-0.432-0.432-0.432H1581.737z M1586.057,365.483
				c-0.238,0-0.433,0.193-0.433,0.432c0,0.24,0.194,0.434,0.433,0.434h0.863c0.238,0,0.433-0.193,0.433-0.434
				c0-0.238-0.194-0.432-0.433-0.432H1586.057z M1588.647,365.483c-0.237,0-0.432,0.193-0.432,0.432c0,0.24,0.194,0.434,0.432,0.434
				h0.863c0.238,0,0.433-0.193,0.433-0.434c0-0.238-0.194-0.432-0.433-0.432H1588.647z M1572.237,367.212
				c-0.238,0-0.433,0.191-0.433,0.432s0.194,0.432,0.433,0.432h0.863c0.237,0,0.432-0.191,0.432-0.432s-0.194-0.432-0.432-0.432
				H1572.237z M1574.828,367.212c-0.238,0-0.433,0.191-0.433,0.432s0.194,0.432,0.433,0.432h0.863c0.238,0,0.433-0.191,0.433-0.432
				s-0.194-0.432-0.433-0.432H1574.828z M1579.146,367.212c-0.237,0-0.432,0.191-0.432,0.432s0.194,0.432,0.432,0.432h0.864
				c0.237,0,0.432-0.191,0.432-0.432s-0.194-0.432-0.432-0.432H1579.146z M1581.737,367.212c-0.237,0-0.432,0.191-0.432,0.432
				s0.194,0.432,0.432,0.432h0.864c0.237,0,0.432-0.191,0.432-0.432s-0.194-0.432-0.432-0.432H1581.737z M1586.057,367.212
				c-0.238,0-0.433,0.191-0.433,0.432s0.194,0.432,0.433,0.432h0.863c0.238,0,0.433-0.191,0.433-0.432s-0.194-0.432-0.433-0.432
				H1586.057z M1588.647,367.212c-0.237,0-0.432,0.191-0.432,0.432s0.194,0.432,0.432,0.432h0.863c0.238,0,0.433-0.191,0.433-0.432
				s-0.194-0.432-0.433-0.432H1588.647z M1572.237,368.938c-0.238,0-0.433,0.193-0.433,0.432c0,0.24,0.194,0.434,0.433,0.434h0.863
				c0.237,0,0.432-0.193,0.432-0.434c0-0.238-0.194-0.432-0.432-0.432H1572.237z M1574.828,368.938
				c-0.238,0-0.433,0.193-0.433,0.432c0,0.24,0.194,0.434,0.433,0.434h0.863c0.238,0,0.433-0.193,0.433-0.434
				c0-0.238-0.194-0.432-0.433-0.432H1574.828z M1579.146,368.938c-0.237,0-0.432,0.193-0.432,0.432c0,0.24,0.194,0.434,0.432,0.434
				h0.864c0.237,0,0.432-0.193,0.432-0.434c0-0.238-0.194-0.432-0.432-0.432H1579.146z M1581.737,368.938
				c-0.237,0-0.432,0.193-0.432,0.432c0,0.24,0.194,0.434,0.432,0.434h0.864c0.237,0,0.432-0.193,0.432-0.434
				c0-0.238-0.194-0.432-0.432-0.432H1581.737z M1586.057,368.938c-0.238,0-0.433,0.193-0.433,0.432c0,0.24,0.194,0.434,0.433,0.434
				h0.863c0.238,0,0.433-0.193,0.433-0.434c0-0.238-0.194-0.432-0.433-0.432H1586.057z M1588.647,368.938
				c-0.237,0-0.432,0.193-0.432,0.432c0,0.24,0.194,0.434,0.432,0.434h0.863c0.238,0,0.433-0.193,0.433-0.434
				c0-0.238-0.194-0.432-0.433-0.432H1588.647z M1572.237,370.667c-0.238,0-0.433,0.191-0.433,0.432s0.194,0.432,0.433,0.432h0.863
				c0.237,0,0.432-0.191,0.432-0.432s-0.194-0.432-0.432-0.432H1572.237z M1574.828,370.667c-0.238,0-0.433,0.191-0.433,0.432
				s0.194,0.432,0.433,0.432h0.863c0.238,0,0.433-0.191,0.433-0.432s-0.194-0.432-0.433-0.432H1574.828z M1586.057,370.667
				c-0.238,0-0.433,0.191-0.433,0.432s0.194,0.432,0.433,0.432h0.863c0.238,0,0.433-0.191,0.433-0.432s-0.194-0.432-0.433-0.432
				H1586.057z M1588.647,370.667c-0.237,0-0.432,0.191-0.432,0.432s0.194,0.432,0.432,0.432h0.863c0.238,0,0.433-0.191,0.433-0.432
				s-0.194-0.432-0.433-0.432H1588.647z M1578.715,371.509h0.863v1.727h-0.863V371.509z M1580.442,371.509h0.863v1.727h-0.863
				V371.509z M1582.17,371.509h0.863v1.727h-0.863V371.509z"/>
		</g>
	</g>
	<path fill="#F12545" d="M1578.627,419.796c-0.233,0-0.424,0.188-0.424,0.424v2.951h-6.375c-0.703,0-1.275,0.572-1.275,1.274
		c0,0.554,0.357,1.021,0.851,1.197v19.627h-1.275c-0.233,0-0.425,0.19-0.425,0.425s0.191,0.425,0.425,0.425h22.57
		c0.469,0,0.85-0.382,0.85-0.85v-1.041c0-0.812-0.449-1.542-1.177-1.903l-3.337-1.657c0.234-0.396,0.431-0.822,0.575-1.247
		c0.36-0.164,0.676-0.598,0.828-1.177c0.098-0.353,0.114-0.705,0.057-1.003c-0.082-0.392-0.303-0.662-0.605-0.743
		c-0.013,0-0.021-0.003-0.033-0.008c-0.034-0.208-0.089-0.423-0.171-0.663c0.039,0.012,0.073,0.024,0.106,0.038
		c0.145,0.059,0.315,0.033,0.438-0.068c0.12-0.098,0.175-0.259,0.14-0.416c-0.283-1.294-0.978-2.27-1.967-2.839v-6.899
		c0.492-0.176,0.85-0.644,0.85-1.197c0-0.702-0.572-1.274-1.275-1.274h-7.224v-1.677c0-0.233-0.192-0.424-0.426-0.424
		s-0.424,0.19-0.424,0.424v1.677h-0.851v-2.951C1579.053,419.984,1578.861,419.796,1578.627,419.796L1578.627,419.796z
		 M1571.828,424.021h16.148c0.233,0,0.426,0.19,0.426,0.424c0,0.234-0.192,0.426-0.426,0.426h-16.148
		c-0.234,0-0.425-0.191-0.425-0.426C1571.403,424.212,1571.594,424.021,1571.828,424.021L1571.828,424.021z M1572.253,425.721
		h15.299v6.454c-0.437-0.131-0.911-0.202-1.42-0.202h-0.279c-0.552,0-1.33,0.144-1.914,0.459c-0.604-0.3-1.29-0.462-2.057-0.462
		h-0.28c-0.606,0-1.495,0.179-2.091,0.564c-1.081,0.06-1.848,0.853-1.968,2.057c-0.074,0.732-0.005,1.276,0.037,1.602
		c0.012,0.098,0.028,0.22,0.026,0.246c-0.002,0.019-0.005,0.034-0.009,0.053c-0.012,0.004-0.021,0.005-0.031,0.009
		c-0.304,0.081-0.524,0.352-0.604,0.743c-0.06,0.296-0.042,0.65,0.052,1.001c0.155,0.579,0.468,1.011,0.83,1.181
		c0.148,0.438,0.346,0.865,0.582,1.262l-3.295,1.639c-0.728,0.361-1.179,1.09-1.179,1.902v1.042h-1.7V425.721z M1574.378,427.421
		c-0.233,0-0.425,0.19-0.425,0.425s0.191,0.425,0.425,0.425h0.85c0.234,0,0.425-0.19,0.425-0.425s-0.19-0.425-0.425-0.425H1574.378z
		 M1577.777,427.421c-0.234,0-0.425,0.19-0.425,0.425s0.19,0.425,0.425,0.425h0.85c0.234,0,0.426-0.19,0.426-0.425
		s-0.191-0.425-0.426-0.425H1577.777z M1581.178,427.421c-0.234,0-0.425,0.19-0.425,0.425s0.19,0.425,0.425,0.425h0.85
		c0.233,0,0.425-0.19,0.425-0.425s-0.191-0.425-0.425-0.425H1581.178z M1584.577,427.421c-0.234,0-0.425,0.19-0.425,0.425
		s0.19,0.425,0.425,0.425h0.851c0.233,0,0.425-0.19,0.425-0.425s-0.191-0.425-0.425-0.425H1584.577z M1574.378,429.121
		c-0.233,0-0.425,0.19-0.425,0.424c0,0.234,0.191,0.426,0.425,0.426h0.85c0.234,0,0.425-0.191,0.425-0.426
		c0-0.233-0.19-0.424-0.425-0.424H1574.378z M1577.777,429.121c-0.234,0-0.425,0.19-0.425,0.424c0,0.234,0.19,0.426,0.425,0.426
		h0.85c0.234,0,0.426-0.191,0.426-0.426c0-0.233-0.191-0.424-0.426-0.424H1577.777z M1581.178,429.121
		c-0.234,0-0.425,0.19-0.425,0.424c0,0.234,0.19,0.426,0.425,0.426h0.85c0.233,0,0.425-0.191,0.425-0.426
		c0-0.233-0.191-0.424-0.425-0.424H1581.178z M1584.577,429.121c-0.234,0-0.425,0.19-0.425,0.424c0,0.234,0.19,0.426,0.425,0.426
		h0.851c0.233,0,0.425-0.191,0.425-0.426c0-0.233-0.191-0.424-0.425-0.424H1584.577z M1574.378,430.82
		c-0.233,0-0.425,0.191-0.425,0.425s0.191,0.426,0.425,0.426h0.85c0.234,0,0.425-0.192,0.425-0.426s-0.19-0.425-0.425-0.425
		H1574.378z M1577.777,430.82c-0.234,0-0.425,0.191-0.425,0.425s0.19,0.426,0.425,0.426h0.85c0.234,0,0.426-0.192,0.426-0.426
		s-0.191-0.425-0.426-0.425H1577.777z M1574.378,432.521c-0.233,0-0.425,0.191-0.425,0.425s0.191,0.425,0.425,0.425h0.85
		c0.234,0,0.425-0.191,0.425-0.425s-0.19-0.425-0.425-0.425H1574.378z M1581.602,432.821h0.28c0.281,0,0.547,0.031,0.804,0.079
		c-0.494,0.354-0.817,0.943-0.892,1.69c-0.073,0.734-0.006,1.274,0.038,1.602c0.013,0.098,0.024,0.221,0.024,0.246
		c-0.003,0.019-0.003,0.034-0.008,0.053c-0.014,0.004-0.021,0.007-0.033,0.007c-0.304,0.081-0.524,0.354-0.604,0.743
		c-0.061,0.299-0.042,0.65,0.055,1.003c0.154,0.579,0.468,1.013,0.828,1.177c0.149,0.435,0.345,0.863,0.585,1.267l-3.3,1.638
		c-0.727,0.359-1.176,1.092-1.176,1.903v1.041h-3.4v-1.042c0-0.487,0.271-0.925,0.707-1.143l3.722-1.849
		c0.007-0.004,0.011-0.011,0.017-0.014c0.014-0.007,0.026-0.01,0.038-0.019c0.017-0.012,0.025-0.03,0.038-0.043
		c0.021-0.019,0.039-0.035,0.054-0.055c0.019-0.025,0.031-0.051,0.043-0.075c0.01-0.025,0.021-0.047,0.028-0.071
		c0.007-0.028,0.008-0.055,0.01-0.083c0.002-0.027,0.002-0.052-0.002-0.078c-0.003-0.028-0.012-0.055-0.021-0.081
		c-0.006-0.017-0.005-0.035-0.013-0.052c-0.007-0.01-0.016-0.017-0.022-0.026c-0.004-0.009-0.006-0.02-0.013-0.03
		c-0.349-0.493-0.626-1.065-0.801-1.655c-0.054-0.181-0.195-0.3-0.383-0.3c-0.057-0.021-0.257-0.214-0.368-0.63
		c-0.084-0.31-0.062-0.538-0.029-0.655c0.116,0.051,0.249,0.047,0.362-0.011c0.135-0.07,0.223-0.207,0.231-0.359
		c0.006-0.14,0.02-0.279,0.043-0.413c0.024-0.141,0.006-0.292-0.021-0.502c-0.04-0.307-0.098-0.771-0.034-1.407
		c0.083-0.825,0.539-1.297,1.26-1.297c0.092,0,0.182-0.03,0.256-0.085C1580.26,433.03,1581.005,432.821,1581.602,432.821
		L1581.602,432.821z M1585.853,432.822h0.279c1.557,0,2.7,0.756,3.219,2.104c-0.154,0.013-0.304,0.063-0.423,0.178
		c-0.114,0.11-0.278,0.358-0.117,0.8c0.169,0.455,0.229,0.718,0.245,1.096c0.005,0.152,0.106,0.281,0.243,0.354
		c0.106,0.049,0.233,0.055,0.349,0.013c0.032,0.114,0.055,0.347-0.03,0.657c-0.111,0.417-0.311,0.607-0.344,0.629
		c-0.188,0-0.354,0.123-0.408,0.302c-0.131,0.451-0.336,0.913-0.596,1.336c-0.148,0.25-0.317,0.483-0.505,0.696
		c-0.537,0.624-1.202,1.055-1.912,1.055c-0.701,0-1.364-0.422-1.899-1.038c-0.188-0.213-0.356-0.446-0.512-0.697
		c-0.262-0.43-0.466-0.893-0.603-1.352c-0.055-0.179-0.195-0.302-0.387-0.302c-0.055-0.021-0.254-0.212-0.365-0.629
		c-0.085-0.311-0.062-0.539-0.029-0.654c0.114,0.052,0.245,0.047,0.361-0.013c0.134-0.066,0.225-0.205,0.229-0.357
		c0.009-0.14,0.021-0.28,0.047-0.411c0.024-0.145,0.003-0.294-0.021-0.502c-0.039-0.311-0.1-0.773-0.035-1.411
		c0.081-0.825,0.541-1.297,1.26-1.297c0.093,0,0.181-0.029,0.254-0.084C1584.51,433.03,1585.258,432.822,1585.853,432.822
		L1585.853,432.822z M1574.378,434.22c-0.233,0-0.425,0.192-0.425,0.426s0.191,0.425,0.425,0.425h0.85
		c0.234,0,0.425-0.191,0.425-0.425s-0.19-0.426-0.425-0.426H1574.378z M1584.333,434.243c-0.251-0.021-0.505,0.095-0.65,0.316
		l-0.447,0.68c-0.129,0.196-0.076,0.46,0.12,0.588c0.072,0.048,0.154,0.071,0.234,0.071c0.138,0,0.273-0.068,0.354-0.19l0.379-0.577
		l0.322,0.158c0.816,0.398,1.728,0.609,2.635,0.609h0.716c0.234,0,0.426-0.19,0.426-0.425c0-0.236-0.191-0.425-0.426-0.425h-0.716
		c-0.777,0-1.561-0.182-2.264-0.522l-0.436-0.214C1584.501,434.272,1584.416,434.25,1584.333,434.243L1584.333,434.243z
		 M1574.378,435.92c-0.233,0-0.425,0.19-0.425,0.426c0,0.233,0.191,0.425,0.425,0.425h0.85c0.234,0,0.425-0.191,0.425-0.425
		c0-0.235-0.19-0.426-0.425-0.426H1574.378z M1574.378,437.62c-0.233,0-0.425,0.19-0.425,0.425s0.191,0.425,0.425,0.425h0.85
		c0.234,0,0.425-0.19,0.425-0.425s-0.19-0.425-0.425-0.425H1574.378z M1574.378,439.32c-0.233,0-0.425,0.19-0.425,0.424
		c0,0.234,0.191,0.426,0.425,0.426h0.85c0.234,0,0.425-0.191,0.425-0.426c0-0.233-0.19-0.424-0.425-0.424H1574.378z
		 M1588.541,441.372l3.451,1.713c0.434,0.218,0.706,0.655,0.706,1.144v1.041h-13.646v-1.041c0-0.488,0.271-0.926,0.706-1.144
		l3.415-1.694c0.706,0.878,1.641,1.5,2.679,1.5C1586.897,442.891,1587.837,442.262,1588.541,441.372L1588.541,441.372z"/>
	<g>
		<path fill="#FEFEFE" d="M1720.812,422.946c-0.362,0-0.663,0.3-0.663,0.663v13.266c0,0.363,0.301,0.663,0.663,0.663h7.628v1.327
			h-0.995c-0.729,0-1.326,0.597-1.326,1.326v0.663h9.949v-0.663c0-0.729-0.598-1.326-1.327-1.326h-0.994v-1.327h7.627
			c0.363,0,0.663-0.3,0.663-0.663v-13.266c0-0.363-0.3-0.663-0.663-0.663H1720.812z M1720.812,423.609h20.562v13.266h-20.562
			V423.609z M1721.807,434.885c-0.183,0-0.332,0.149-0.332,0.332s0.149,0.332,0.332,0.332s0.332-0.149,0.332-0.332
			S1721.989,434.885,1721.807,434.885L1721.807,434.885z M1723.133,434.885c-0.183,0-0.331,0.149-0.331,0.332
			s0.148,0.332,0.331,0.332s0.332-0.149,0.332-0.332S1723.315,434.885,1723.133,434.885L1723.133,434.885z M1724.46,434.885
			c-0.183,0-0.332,0.149-0.332,0.332s0.149,0.332,0.332,0.332s0.331-0.149,0.331-0.332S1724.643,434.885,1724.46,434.885
			L1724.46,434.885z M1725.786,434.885c-0.183,0-0.331,0.149-0.331,0.332s0.148,0.332,0.331,0.332s0.332-0.149,0.332-0.332
			S1725.969,434.885,1725.786,434.885L1725.786,434.885z M1727.113,434.885c-0.184,0-0.332,0.149-0.332,0.332
			s0.148,0.332,0.332,0.332c0.182,0,0.331-0.149,0.331-0.332S1727.295,434.885,1727.113,434.885L1727.113,434.885z
			 M1728.439,434.885c-0.183,0-0.332,0.149-0.332,0.332s0.149,0.332,0.332,0.332s0.332-0.149,0.332-0.332
			S1728.622,434.885,1728.439,434.885L1728.439,434.885z M1729.766,434.885c-0.183,0-0.331,0.149-0.331,0.332
			s0.148,0.332,0.331,0.332s0.332-0.149,0.332-0.332S1729.948,434.885,1729.766,434.885L1729.766,434.885z M1731.093,434.885
			c-0.183,0-0.332,0.149-0.332,0.332s0.149,0.332,0.332,0.332s0.331-0.149,0.331-0.332S1731.275,434.885,1731.093,434.885
			L1731.093,434.885z M1732.419,434.885c-0.183,0-0.331,0.149-0.331,0.332s0.148,0.332,0.331,0.332s0.332-0.149,0.332-0.332
			S1732.602,434.885,1732.419,434.885L1732.419,434.885z M1733.746,434.885c-0.184,0-0.332,0.149-0.332,0.332
			s0.148,0.332,0.332,0.332c0.182,0,0.331-0.149,0.331-0.332S1733.928,434.885,1733.746,434.885L1733.746,434.885z
			 M1735.072,434.885c-0.183,0-0.332,0.149-0.332,0.332s0.149,0.332,0.332,0.332s0.332-0.149,0.332-0.332
			S1735.255,434.885,1735.072,434.885L1735.072,434.885z M1736.398,434.885c-0.183,0-0.331,0.149-0.331,0.332
			s0.148,0.332,0.331,0.332s0.332-0.149,0.332-0.332S1736.581,434.885,1736.398,434.885L1736.398,434.885z M1737.726,434.885
			c-0.183,0-0.332,0.149-0.332,0.332s0.149,0.332,0.332,0.332s0.331-0.149,0.331-0.332S1737.908,434.885,1737.726,434.885
			L1737.726,434.885z M1739.052,434.885c-0.183,0-0.332,0.149-0.332,0.332s0.149,0.332,0.332,0.332s0.331-0.149,0.331-0.332
			S1739.234,434.885,1739.052,434.885L1739.052,434.885z M1740.378,434.885c-0.183,0-0.331,0.149-0.331,0.332
			s0.148,0.332,0.331,0.332s0.332-0.149,0.332-0.332S1740.561,434.885,1740.378,434.885L1740.378,434.885z M1729.103,437.538h3.979
			v1.327h-3.979V437.538z M1727.444,439.528h7.296c0.37,0,0.664,0.292,0.664,0.663h-8.623
			C1726.781,439.82,1727.074,439.528,1727.444,439.528L1727.444,439.528z"/>
	</g>
	<path fill="#FEFEFE" d="M1731.162,455.688c-0.407,0-0.828,0.192-1.31,0.497c-0.484,0.302-1.007,0.734-1.497,1.271
		c-0.979,1.071-1.832,2.574-1.832,4.299v5.4l-2.779,3.193c-0.509,0.584-0.789,1.332-0.789,2.107v1.073
		c0,0.197,0.16,0.357,0.356,0.357h3.434c0.161,0.273,0.396,0.493,0.696,0.609c-0.117,0.19-0.204,0.401-0.204,0.639
		c0,0.687,0.562,1.249,1.249,1.249h0.199c0.212,2.17,2.278,3.508,2.278,3.508l0.198,0.134l0.198-0.134c0,0,2.066-1.338,2.278-3.508
		h0.199c0.687,0,1.249-0.562,1.249-1.249c0-0.237-0.086-0.448-0.204-0.639c0.301-0.116,0.535-0.336,0.696-0.609h3.433
		c0.197,0,0.357-0.16,0.357-0.357v-1.073c0-0.775-0.28-1.523-0.789-2.107l-2.779-3.193v-5.4c0-1.725-0.853-3.228-1.833-4.299
		c-0.489-0.537-1.012-0.97-1.496-1.271C1731.99,455.88,1731.569,455.688,1731.162,455.688L1731.162,455.688z M1731.162,456.401
		c0.128,0,0.51,0.12,0.932,0.385c0.419,0.267,0.899,0.66,1.348,1.149c0.893,0.979,1.646,2.331,1.646,3.819v5.532
		c0,0.03,0.005,0.06,0.012,0.089c-0.007,0.029-0.012,0.059-0.012,0.088c0,0.193,0.153,0.351,0.347,0.356l2.608,2.996
		c0.396,0.455,0.613,1.037,0.613,1.64v0.717h-2.854c0-0.013-0.002-0.023-0.002-0.035c-0.02-0.183-0.172-0.322-0.354-0.322
		c-0.194,0-0.353,0.155-0.357,0.351c0,0.001,0,0.004,0,0.007c0,0.398-0.314,0.714-0.714,0.714h-0.535
		c-0.022,0-0.047,0.003-0.07,0.008c-0.024,0.006-0.047,0.013-0.068,0.021c-0.044,0.02-0.083,0.047-0.116,0.081
		c-0.016,0.018-0.03,0.037-0.043,0.057c-0.013,0.021-0.023,0.041-0.03,0.065c-0.029,0.078-0.031,0.165-0.002,0.243
		c0.003,0.012,0.009,0.022,0.013,0.034c0.036,0.075,0.099,0.137,0.174,0.171c0.023,0.01,0.046,0.019,0.068,0.023
		c0.012,0.002,0.024,0.005,0.035,0.006c0.014,0.002,0.026,0.004,0.04,0.004c0.3,0,0.535,0.234,0.535,0.534s-0.235,0.535-0.535,0.535
		h-5.352c-0.3,0-0.535-0.235-0.535-0.535s0.235-0.534,0.535-0.534c0.036,0,0.07-0.008,0.105-0.018
		c0.021-0.009,0.045-0.019,0.065-0.029c0.052-0.028,0.095-0.07,0.127-0.121c0.006-0.012,0.012-0.021,0.017-0.032
		c0.006-0.011,0.01-0.021,0.015-0.033c0.017-0.044,0.024-0.092,0.021-0.14c0-0.012-0.001-0.023-0.003-0.034
		c-0.005-0.036-0.016-0.072-0.03-0.104c-0.006-0.011-0.011-0.021-0.017-0.03c-0.008-0.012-0.014-0.021-0.021-0.029
		c-0.007-0.01-0.015-0.02-0.022-0.028c-0.017-0.018-0.035-0.034-0.053-0.049c-0.01-0.005-0.021-0.013-0.031-0.018
		c-0.03-0.019-0.064-0.033-0.099-0.039c-0.012-0.004-0.024-0.006-0.035-0.007c-0.014-0.002-0.026-0.003-0.04-0.003h-0.535
		c-0.399,0-0.713-0.313-0.714-0.713c0,0,0,0,0-0.001c0-0.013-0.002-0.023-0.002-0.035c-0.02-0.183-0.172-0.322-0.354-0.322
		c-0.194,0-0.354,0.155-0.357,0.351c0,0.001,0,0.004,0,0.007h-2.854v-0.717c0-0.603,0.217-1.185,0.613-1.64l2.609-2.996
		c0.192-0.007,0.346-0.164,0.346-0.356c0-0.029-0.005-0.059-0.012-0.088c0.007-0.028,0.012-0.058,0.012-0.087v-5.534
		c0-1.488,0.753-2.84,1.646-3.819c0.448-0.489,0.929-0.883,1.348-1.149C1730.652,456.521,1731.034,456.401,1731.162,456.401
		L1731.162,456.401z M1728.308,460.327c-0.196,0-0.356,0.159-0.356,0.356s0.16,0.357,0.356,0.357s0.356-0.16,0.356-0.357
		S1728.504,460.327,1728.308,460.327L1728.308,460.327z M1729.735,460.327c-0.197,0-0.357,0.159-0.357,0.356s0.16,0.357,0.357,0.357
		c0.196,0,0.356-0.16,0.356-0.357S1729.932,460.327,1729.735,460.327L1729.735,460.327z M1731.162,460.327
		c-0.196,0-0.356,0.159-0.356,0.356s0.16,0.357,0.356,0.357s0.356-0.16,0.356-0.357S1731.358,460.327,1731.162,460.327
		L1731.162,460.327z M1732.59,460.327c-0.197,0-0.357,0.159-0.357,0.356s0.16,0.357,0.357,0.357c0.196,0,0.356-0.16,0.356-0.357
		S1732.786,460.327,1732.59,460.327L1732.59,460.327z M1734.018,460.327c-0.197,0-0.357,0.159-0.357,0.356s0.16,0.357,0.357,0.357
		c0.195,0,0.355-0.16,0.355-0.357S1734.213,460.327,1734.018,460.327L1734.018,460.327z M1731.162,463.182
		c-1.375,0-2.498,1.122-2.498,2.497c0,1.376,1.123,2.499,2.498,2.499s2.498-1.123,2.498-2.499
		C1733.66,464.304,1732.537,463.182,1731.162,463.182L1731.162,463.182z M1731.162,463.896c0.99,0,1.784,0.794,1.784,1.783
		c0,0.99-0.794,1.785-1.784,1.785s-1.784-0.795-1.784-1.785C1729.378,464.689,1730.172,463.896,1731.162,463.896L1731.162,463.896z
		 M1726.881,468.534c-0.197,0-0.357,0.16-0.357,0.356s0.16,0.356,0.357,0.356c0.195,0,0.356-0.16,0.356-0.356
		S1727.076,468.534,1726.881,468.534L1726.881,468.534z M1735.444,468.534c-0.196,0-0.357,0.16-0.357,0.356s0.161,0.356,0.357,0.356
		s0.356-0.16,0.356-0.356S1735.641,468.534,1735.444,468.534L1735.444,468.534z M1726.881,469.961c-0.197,0-0.357,0.16-0.357,0.357
		c0,0.196,0.16,0.356,0.357,0.356c0.195,0,0.356-0.16,0.356-0.356C1727.237,470.121,1727.076,469.961,1726.881,469.961
		L1726.881,469.961z M1735.444,469.961c-0.196,0-0.357,0.16-0.357,0.357c0,0.196,0.161,0.356,0.357,0.356s0.356-0.16,0.356-0.356
		C1735.801,470.121,1735.641,469.961,1735.444,469.961L1735.444,469.961z M1726.881,471.389c-0.197,0-0.357,0.16-0.357,0.357
		c0,0.195,0.16,0.355,0.357,0.355c0.195,0,0.356-0.16,0.356-0.355C1727.237,471.549,1727.076,471.389,1726.881,471.389
		L1726.881,471.389z M1735.444,471.389c-0.196,0-0.357,0.16-0.357,0.357c0,0.195,0.161,0.355,0.357,0.355s0.356-0.16,0.356-0.355
		C1735.801,471.549,1735.641,471.389,1735.444,471.389L1735.444,471.389z M1729.735,473.887c-0.197,0-0.357,0.159-0.357,0.356
		c0,0.196,0.16,0.357,0.357,0.357c0.196,0,0.356-0.161,0.356-0.357C1730.092,474.046,1729.932,473.887,1729.735,473.887
		L1729.735,473.887z M1731.162,473.887c-0.196,0-0.356,0.159-0.356,0.356c0,0.196,0.16,0.357,0.356,0.357s0.356-0.161,0.356-0.357
		C1731.519,474.046,1731.358,473.887,1731.162,473.887L1731.162,473.887z M1732.59,473.887c-0.197,0-0.357,0.159-0.357,0.356
		c0,0.196,0.16,0.357,0.357,0.357c0.196,0,0.356-0.161,0.356-0.357C1732.946,474.046,1732.786,473.887,1732.59,473.887
		L1732.59,473.887z M1729.4,476.384h1.098c0.155,0.694,0.664,1.546,0.664,1.546s0.509-0.852,0.665-1.546h1.097
		c-0.183,1.513-1.463,2.509-1.762,2.73C1730.863,478.893,1729.583,477.896,1729.4,476.384L1729.4,476.384z"/>
	<g>
		<path fill="#FEFEFE" d="M1734.562,494.192c-0.561,0-1.017,0.456-1.017,1.017c0,0.441,0.284,0.814,0.677,0.954v1.757
			c0,0.186-0.151,0.338-0.339,0.338h-2.761c-0.699,0-1.385,0.243-1.928,0.687l-0.368,0.3l-0.765-0.401
			c-0.36-0.189-0.798-0.145-1.113,0.113l-5.141,4.188c-0.305,0.247-0.439,0.653-0.344,1.033l0.221,0.886l-0.39,0.316
			c-0.396,0.323-0.625,0.803-0.625,1.313v2.471c-0.393,0.14-0.677,0.511-0.677,0.952v2.032c0,0.561,0.456,1.017,1.017,1.017h19.649
			c0.561,0,1.017-0.456,1.017-1.017v-2.032c0-0.444-0.288-0.817-0.684-0.956c0-0.012,0.007-0.021,0.007-0.033v-12.964
			c0.393-0.14,0.677-0.513,0.677-0.954c0-0.561-0.456-1.017-1.017-1.017H1734.562z M1734.562,494.871h6.098
			c0.188,0,0.34,0.151,0.34,0.338c0,0.188-0.152,0.339-0.34,0.339h-6.098c-0.188,0-0.34-0.151-0.34-0.339
			C1734.222,495.022,1734.374,494.871,1734.562,494.871L1734.562,494.871z M1734.9,496.225h5.42v2.033h-1.693
			c-0.188,0-0.34,0.152-0.34,0.339c0,0.188,0.152,0.34,0.34,0.34h1.693v7.452h-6.438c-0.187,0-0.338,0.151-0.338,0.339
			s0.151,0.34,0.338,0.34h6.438v2.032h-18.972v-2.032h5.759c0.188,0,0.339-0.152,0.339-0.34s-0.151-0.339-0.339-0.339h-5.706
			c0.059-0.187,0.166-0.355,0.322-0.482l7.9-6.437c0.421-0.345,0.953-0.533,1.498-0.533h2.761c0.561,0,1.018-0.457,1.018-1.017
			V496.225z M1736.594,498.258c-0.188,0-0.339,0.152-0.339,0.339c0,0.188,0.151,0.34,0.339,0.34h0.677c0.188,0,0.34-0.152,0.34-0.34
			c0-0.187-0.152-0.339-0.34-0.339H1736.594z M1727.556,499.406c0.064-0.007,0.131,0.006,0.191,0.037l0.508,0.267l-5.99,4.88
			l-0.145-0.576c-0.033-0.127,0.014-0.262,0.115-0.344l5.141-4.188C1727.429,499.438,1727.491,499.413,1727.556,499.406
			L1727.556,499.406z M1735.577,500.29c-1.121,0-2.032,0.912-2.032,2.033c0,0.184,0.023,0.36,0.07,0.525l-2.188,2.188
			c-0.708,0.044-1.271,0.63-1.271,1.352c0,0.749,0.606,1.355,1.356,1.355c0.721,0,1.307-0.562,1.352-1.271l2.188-2.188
			c0.166,0.047,0.342,0.07,0.524,0.07c1.121,0,2.033-0.91,2.033-2.032C1737.61,501.202,1736.698,500.29,1735.577,500.29
			L1735.577,500.29z M1735.577,500.969c0.75,0,1.355,0.606,1.355,1.354c0,0.722-0.562,1.309-1.27,1.352l0.517-0.518
			c0.397-0.396,0.397-1.04,0-1.437c-0.396-0.396-1.044-0.396-1.437,0l-0.518,0.519
			C1734.27,501.531,1734.856,500.969,1735.577,500.969L1735.577,500.969z M1735.462,502.101c0.086,0,0.174,0.034,0.237,0.101
			c0.133,0.133,0.133,0.346,0,0.479l-0.81,0.81l-0.488,0.49l-1.724,1.722c-0.115-0.196-0.281-0.361-0.478-0.477l1.723-1.722
			l0.489-0.492l0.81-0.81C1735.285,502.135,1735.374,502.101,1735.462,502.101L1735.462,502.101z M1731.513,505.711
			c0.06,0,0.121,0.007,0.175,0.024c0.23,0.063,0.414,0.247,0.479,0.478c0.017,0.054,0.023,0.115,0.023,0.176
			c0,0.373-0.306,0.679-0.677,0.679c-0.374,0-0.679-0.306-0.679-0.679C1730.834,506.017,1731.139,505.711,1731.513,505.711
			L1731.513,505.711z M1728.463,506.389c-0.187,0-0.339,0.151-0.339,0.339s0.152,0.34,0.339,0.34h0.678
			c0.187,0,0.339-0.152,0.339-0.34s-0.152-0.339-0.339-0.339H1728.463z M1721.01,509.776h19.649c0.188,0,0.34,0.152,0.34,0.34v2.032
			c0,0.187-0.152,0.338-0.34,0.338h-19.649c-0.188,0-0.34-0.151-0.34-0.338v-2.032
			C1720.67,509.929,1720.822,509.776,1721.01,509.776L1721.01,509.776z M1721.349,510.454c-0.188,0-0.339,0.151-0.339,0.339v0.678
			c0,0.187,0.151,0.339,0.339,0.339s0.338-0.152,0.338-0.339v-0.678C1721.687,510.605,1721.536,510.454,1721.349,510.454
			L1721.349,510.454z M1723.042,510.454c-0.188,0-0.339,0.151-0.339,0.339v0.678c0,0.187,0.151,0.339,0.339,0.339
			s0.34-0.152,0.34-0.339v-0.678C1723.382,510.605,1723.229,510.454,1723.042,510.454L1723.042,510.454z M1724.735,510.454
			c-0.188,0-0.338,0.151-0.338,0.339v0.678c0,0.187,0.15,0.339,0.338,0.339c0.189,0,0.34-0.152,0.34-0.339v-0.678
			C1725.075,510.605,1724.925,510.454,1724.735,510.454L1724.735,510.454z M1726.431,510.454c-0.188,0-0.34,0.151-0.34,0.339v0.678
			c0,0.187,0.152,0.339,0.34,0.339s0.338-0.152,0.338-0.339v-0.678C1726.769,510.605,1726.618,510.454,1726.431,510.454
			L1726.431,510.454z M1728.124,510.454c-0.188,0-0.34,0.151-0.34,0.339v0.678c0,0.187,0.152,0.339,0.34,0.339
			s0.339-0.152,0.339-0.339v-0.678C1728.463,510.605,1728.312,510.454,1728.124,510.454L1728.124,510.454z M1729.817,510.454
			c-0.188,0-0.338,0.151-0.338,0.339v0.678c0,0.187,0.15,0.339,0.338,0.339c0.188,0,0.339-0.152,0.339-0.339v-0.678
			C1730.156,510.605,1730.006,510.454,1729.817,510.454L1729.817,510.454z M1731.513,510.454c-0.188,0-0.34,0.151-0.34,0.339v0.678
			c0,0.187,0.152,0.339,0.34,0.339c0.187,0,0.338-0.152,0.338-0.339v-0.678C1731.851,510.605,1731.699,510.454,1731.513,510.454
			L1731.513,510.454z M1733.206,510.454c-0.188,0-0.34,0.151-0.34,0.339v0.678c0,0.187,0.152,0.339,0.34,0.339
			c0.187,0,0.339-0.152,0.339-0.339v-0.678C1733.545,510.605,1733.393,510.454,1733.206,510.454L1733.206,510.454z M1734.9,510.454
			c-0.188,0-0.339,0.151-0.339,0.339v0.678c0,0.187,0.151,0.339,0.339,0.339s0.338-0.152,0.338-0.339v-0.678
			C1735.238,510.605,1735.088,510.454,1734.9,510.454L1734.9,510.454z M1736.594,510.454c-0.188,0-0.339,0.151-0.339,0.339v0.678
			c0,0.187,0.151,0.339,0.339,0.339s0.339-0.152,0.339-0.339v-0.678C1736.933,510.605,1736.781,510.454,1736.594,510.454
			L1736.594,510.454z M1738.287,510.454c-0.187,0-0.338,0.151-0.338,0.339v0.678c0,0.187,0.151,0.339,0.338,0.339
			c0.188,0,0.34-0.152,0.34-0.339v-0.678C1738.627,510.605,1738.475,510.454,1738.287,510.454L1738.287,510.454z M1739.982,510.454
			c-0.188,0-0.34,0.151-0.34,0.339v0.678c0,0.187,0.152,0.339,0.34,0.339c0.187,0,0.338-0.152,0.338-0.339v-0.678
			C1740.32,510.605,1740.169,510.454,1739.982,510.454L1739.982,510.454z"/>
	</g>
	<g>
		<path fill="#FEFEFE" d="M1740.172,549.74c1.17,0,2.122-0.951,2.122-2.121s-0.952-2.123-2.122-2.123h-1.273v-14.854
			c0-0.701-0.571-1.273-1.273-1.273h-13.582c-0.7,0-1.272,0.572-1.272,1.273v14.854h-1.273c-1.17,0-2.122,0.953-2.122,2.123
			s0.952,2.121,2.122,2.121H1740.172z M1721.497,548.893c-0.702,0-1.273-0.572-1.273-1.273c0-0.702,0.571-1.273,1.273-1.273h1.273
			v2.547H1721.497L1721.497,548.893z M1723.619,530.642c0-0.233,0.192-0.425,0.424-0.425h7.216v18.676h-7.64V530.642z
			 M1732.107,530.217h5.518c0.233,0,0.425,0.191,0.425,0.425v18.251h-1.697v-14.006c0-0.234-0.191-0.426-0.426-0.426
			c-0.232,0-0.424,0.191-0.424,0.426v14.006h-0.854c0-0.234-0.189-0.425-0.425-0.425h-0.851c-0.233-0.001-0.423,0.188-0.423,0.425
			h-0.843V530.217z M1738.898,546.346h1.273c0.702,0,1.273,0.571,1.273,1.273c0,0.701-0.571,1.273-1.273,1.273h-1.273V546.346z
			 M1727.015,548.043c0.233,0,0.424-0.191,0.424-0.424v-4.67c0-0.231-0.19-0.423-0.424-0.423c-0.234,0-0.425,0.191-0.425,0.423v4.67
			C1726.59,547.852,1726.78,548.043,1727.015,548.043L1727.015,548.043z M1728.712,548.043c0.233,0,0.425-0.191,0.425-0.424v-3.396
			c0-0.233-0.191-0.424-0.425-0.424s-0.425,0.19-0.425,0.424v3.396C1728.287,547.852,1728.479,548.043,1728.712,548.043
			L1728.712,548.043z M1734.224,547.194c0.237,0.001,0.427-0.189,0.427-0.425c0-0.232-0.189-0.424-0.427-0.424h-0.848
			c-0.234,0-0.423,0.188-0.424,0.424c0,0.233,0.188,0.425,0.424,0.425H1734.224L1734.224,547.194z M1734.227,545.073
			c0.235,0.001,0.424-0.19,0.426-0.426c0-0.233-0.19-0.424-0.425-0.424h-0.848c-0.236,0-0.425,0.188-0.425,0.424
			c-0.002,0.234,0.187,0.426,0.423,0.426H1734.227L1734.227,545.073z M1734.228,542.949c0.236,0.002,0.425-0.188,0.425-0.423
			s-0.188-0.426-0.423-0.426h-0.849c-0.235,0-0.426,0.19-0.426,0.426c0,0.232,0.188,0.423,0.425,0.423H1734.228L1734.228,542.949z
			 M1728.712,542.949c0.233,0,0.425-0.19,0.425-0.423v-1.698c0-0.234-0.191-0.425-0.425-0.425s-0.425,0.19-0.425,0.425v1.698
			C1728.287,542.759,1728.479,542.949,1728.712,542.949L1728.712,542.949z M1734.229,540.403c0.235,0.001,0.425-0.189,0.425-0.423
			c0.002-0.235-0.188-0.426-0.423-0.426h-0.849c-0.235,0-0.425,0.189-0.427,0.426c0,0.232,0.191,0.423,0.425,0.423H1734.229
			L1734.229,540.403z M1734.231,538.281c0.235,0.002,0.425-0.188,0.425-0.425c0.002-0.232-0.188-0.423-0.422-0.423h-0.851
			c-0.235,0-0.425,0.188-0.426,0.423c0,0.234,0.19,0.425,0.425,0.425H1734.231L1734.231,538.281z M1727.863,537.856
			c0.938,0,1.698-0.761,1.698-1.696c0-0.392-0.134-0.765-0.374-1.062c0.24-0.298,0.374-0.67,0.374-1.062
			c0-0.937-0.761-1.696-1.698-1.696c-0.936,0-1.697,0.76-1.697,1.696c0,0.392,0.134,0.764,0.372,1.062
			c-0.238,0.297-0.372,0.67-0.372,1.062C1726.166,537.096,1726.928,537.856,1727.863,537.856L1727.863,537.856z M1727.863,537.008
			c-0.467,0-0.849-0.381-0.849-0.848c0-0.286,0.143-0.551,0.382-0.709c0.116-0.078,0.188-0.21,0.188-0.353
			c0-0.144-0.072-0.273-0.188-0.354c-0.239-0.158-0.382-0.423-0.382-0.708c0-0.467,0.382-0.849,0.849-0.849
			c0.468,0,0.849,0.382,0.849,0.849c0,0.285-0.143,0.55-0.381,0.708c-0.118,0.079-0.189,0.21-0.189,0.354
			c0,0.143,0.071,0.272,0.189,0.353c0.238,0.158,0.381,0.423,0.381,0.709C1728.712,536.627,1728.331,537.008,1727.863,537.008
			L1727.863,537.008z M1734.235,536.16c0.232,0.001,0.423-0.189,0.423-0.425c0-0.234-0.188-0.425-0.423-0.425h-0.85
			c-0.235,0-0.424,0.189-0.424,0.425c-0.003,0.233,0.188,0.425,0.424,0.425H1734.235L1734.235,536.16z M1734.236,534.037
			c0.233,0.001,0.422-0.189,0.424-0.424c0-0.234-0.188-0.425-0.424-0.425h-0.849c-0.235,0-0.424,0.189-0.424,0.425
			c-0.002,0.233,0.188,0.424,0.424,0.424H1734.236L1734.236,534.037z M1735.927,533.613c0.234,0,0.426-0.191,0.426-0.425v-1.697
			c0-0.233-0.191-0.425-0.426-0.425c-0.232,0-0.424,0.191-0.424,0.425v1.697C1735.503,533.422,1735.694,533.613,1735.927,533.613
			L1735.927,533.613z M1734.236,531.915c0.236,0,0.424-0.189,0.424-0.424c0.001-0.233-0.186-0.425-0.422-0.425h-0.85
			c-0.234-0.001-0.424,0.188-0.425,0.425c0,0.232,0.19,0.424,0.424,0.424H1734.236L1734.236,531.915z"/>
	</g>
	<g>
		<path fill="#33CCFF" d="M1643.415,530.506c-0.777,0-1.411,0.633-1.411,1.411v15.996c0,0.778,0.634,1.411,1.411,1.411h25.406
			c0.777,0,1.411-0.633,1.411-1.411v-15.996c0-0.778-0.634-1.411-1.411-1.411H1643.415z M1643.415,531.446h25.406
			c0.259,0,0.471,0.211,0.471,0.471v6.116h-26.347v-3.764h21.171c0.261,0,0.471-0.212,0.471-0.471c0-0.26-0.21-0.47-0.471-0.47
			h-21.171v-1.412C1642.945,531.657,1643.156,531.446,1643.415,531.446L1643.415,531.446z M1665.998,533.329
			c-0.261,0-0.47,0.21-0.47,0.47c0,0.259,0.209,0.471,0.47,0.471h1.882c0.261,0,0.471-0.212,0.471-0.471
			c0-0.26-0.21-0.47-0.471-0.47H1665.998z M1644.356,535.21c-0.261,0-0.471,0.211-0.471,0.471v0.941c0,0.258,0.21,0.471,0.471,0.471
			s0.47-0.213,0.47-0.471v-0.941C1644.826,535.421,1644.617,535.21,1644.356,535.21L1644.356,535.21z M1646.709,535.21
			c-0.262,0-0.471,0.211-0.471,0.471v0.941c0,0.258,0.209,0.471,0.471,0.471c0.261,0,0.47-0.213,0.47-0.471v-0.941
			C1647.179,535.421,1646.97,535.21,1646.709,535.21L1646.709,535.21z M1649.061,535.21c-0.261,0-0.471,0.211-0.471,0.471v0.941
			c0,0.258,0.21,0.471,0.471,0.471s0.471-0.213,0.471-0.471v-0.941C1649.531,535.421,1649.321,535.21,1649.061,535.21
			L1649.061,535.21z M1651.413,535.21c-0.261,0-0.471,0.211-0.471,0.471v0.941c0,0.258,0.21,0.471,0.471,0.471
			s0.471-0.213,0.471-0.471v-0.941C1651.884,535.421,1651.674,535.21,1651.413,535.21L1651.413,535.21z M1653.766,535.21
			c-0.261,0-0.471,0.211-0.471,0.471v0.941c0,0.258,0.21,0.471,0.471,0.471c0.262,0,0.471-0.213,0.471-0.471v-0.941
			C1654.236,535.421,1654.027,535.21,1653.766,535.21L1653.766,535.21z M1656.118,535.21c-0.261,0-0.471,0.211-0.471,0.471v0.941
			c0,0.258,0.21,0.471,0.471,0.471c0.262,0,0.471-0.213,0.471-0.471v-0.941C1656.589,535.421,1656.38,535.21,1656.118,535.21
			L1656.118,535.21z M1658.471,535.21c-0.261,0-0.471,0.211-0.471,0.471v0.941c0,0.258,0.21,0.471,0.471,0.471
			s0.471-0.213,0.471-0.471v-0.941C1658.941,535.421,1658.731,535.21,1658.471,535.21L1658.471,535.21z M1660.823,535.21
			c-0.261,0-0.471,0.211-0.471,0.471v0.941c0,0.258,0.21,0.471,0.471,0.471s0.471-0.213,0.471-0.471v-0.941
			C1661.294,535.421,1661.084,535.21,1660.823,535.21L1660.823,535.21z M1663.176,535.21c-0.261,0-0.471,0.211-0.471,0.471v0.941
			c0,0.258,0.21,0.471,0.471,0.471s0.47-0.213,0.47-0.471v-0.941C1663.646,535.421,1663.437,535.21,1663.176,535.21L1663.176,535.21
			z M1665.528,535.21c-0.262,0-0.471,0.211-0.471,0.471v0.941c0,0.258,0.209,0.471,0.471,0.471c0.261,0,0.47-0.213,0.47-0.471
			v-0.941C1665.998,535.421,1665.789,535.21,1665.528,535.21L1665.528,535.21z M1667.88,535.21c-0.261,0-0.471,0.211-0.471,0.471
			v0.941c0,0.258,0.21,0.471,0.471,0.471s0.471-0.213,0.471-0.471v-0.941C1668.351,535.421,1668.141,535.21,1667.88,535.21
			L1667.88,535.21z M1642.945,538.974h26.347v8.939c0,0.259-0.212,0.471-0.471,0.471h-25.406c-0.259,0-0.47-0.212-0.47-0.471
			V538.974z M1662.234,541.326c-1.038,0-1.882,0.845-1.882,1.882c0,1.039,0.844,1.882,1.882,1.882c0.434,0,0.848-0.148,1.177-0.413
			c0.329,0.265,0.742,0.413,1.176,0.413c1.038,0,1.882-0.843,1.882-1.882c0-1.037-0.844-1.882-1.882-1.882
			c-0.434,0-0.847,0.149-1.176,0.414C1663.082,541.476,1662.668,541.326,1662.234,541.326L1662.234,541.326z M1646.238,541.797
			c-0.261,0-0.471,0.212-0.471,0.471s0.21,0.47,0.471,0.47h6.586c0.262,0,0.471-0.211,0.471-0.47s-0.209-0.471-0.471-0.471H1646.238
			z M1655.647,541.797c-0.261,0-0.47,0.212-0.47,0.471s0.209,0.47,0.47,0.47h1.883c0.261,0,0.47-0.211,0.47-0.47
			s-0.209-0.471-0.47-0.471H1655.647z M1662.234,542.268c0.315,0,0.61,0.158,0.785,0.422c0.173,0.264,0.61,0.264,0.782,0
			c0.175-0.264,0.469-0.422,0.785-0.422c0.519,0,0.941,0.422,0.941,0.94s-0.423,0.941-0.941,0.941c-0.316,0-0.61-0.158-0.785-0.423
			c-0.087-0.13-0.233-0.21-0.391-0.21c-0.158,0-0.306,0.08-0.392,0.21c-0.175,0.265-0.47,0.423-0.785,0.423
			c-0.519,0-0.94-0.423-0.94-0.941S1661.716,542.268,1662.234,542.268L1662.234,542.268z M1646.238,543.679
			c-0.261,0-0.471,0.212-0.471,0.471s0.21,0.471,0.471,0.471h5.175c0.261,0,0.471-0.212,0.471-0.471s-0.21-0.471-0.471-0.471
			H1646.238z"/>
	</g>
	<g>
		<path fill="#33CCFF" d="M1644.695,458.418c-0.72,0-1.305,0.585-1.305,1.306v18.265c0,0.721,0.585,1.306,1.305,1.306h23.484
			c0.72,0,1.305-0.585,1.305-1.306v-18.265c0-0.721-0.585-1.306-1.305-1.306H1644.695z M1644.695,459.287h23.484
			c0.24,0,0.435,0.196,0.435,0.437v3.913h-24.354v-3.913C1644.261,459.483,1644.455,459.287,1644.695,459.287L1644.695,459.287z
			 M1654.697,460.158c-0.479,0-0.869,0.39-0.869,0.87v0.869c0,0.479,0.391,0.869,0.869,0.869h12.179c0.479,0,0.87-0.39,0.87-0.869
			v-0.869c0-0.48-0.392-0.87-0.87-0.87H1654.697z M1645.999,460.592c-0.479,0-0.869,0.39-0.869,0.871c0,0.23,0.092,0.45,0.255,0.615
			c0.163,0.162,0.385,0.255,0.614,0.255c0.23,0,0.452-0.093,0.616-0.255c0.163-0.165,0.255-0.385,0.255-0.615
			c0-0.231-0.092-0.452-0.255-0.615C1646.451,460.685,1646.229,460.592,1645.999,460.592L1645.999,460.592z M1648.609,460.592
			c-0.48,0-0.87,0.39-0.87,0.871c0,0.23,0.092,0.45,0.256,0.615c0.162,0.162,0.384,0.255,0.614,0.255
			c0.229,0,0.451-0.093,0.614-0.255c0.164-0.165,0.256-0.385,0.256-0.615c0-0.231-0.092-0.452-0.256-0.615
			C1649.061,460.685,1648.839,460.592,1648.609,460.592L1648.609,460.592z M1651.218,460.592c-0.479,0-0.868,0.39-0.868,0.871
			c0,0.23,0.091,0.45,0.255,0.615c0.162,0.162,0.383,0.255,0.613,0.255c0.231,0,0.453-0.093,0.616-0.255
			c0.163-0.165,0.255-0.385,0.255-0.615c0-0.231-0.092-0.452-0.255-0.615S1651.449,460.592,1651.218,460.592L1651.218,460.592z
			 M1654.697,461.028h12.179v0.869h-12.179V461.028z M1644.261,464.507h24.354v13.481c0,0.24-0.194,0.437-0.435,0.437h-23.484
			c-0.24,0-0.435-0.196-0.435-0.437V464.507z M1647.305,467.104c-0.24,0-0.435,0.196-0.435,0.437c0,0.238,0.194,0.435,0.435,0.435
			h1.739c0.24,0,0.436-0.196,0.436-0.435c0-0.24-0.195-0.437-0.436-0.437H1647.305z M1650.784,467.104
			c-0.241,0-0.435,0.196-0.435,0.437c0,0.238,0.193,0.435,0.435,0.435h6.088c0.24,0,0.436-0.196,0.436-0.435
			c0-0.24-0.195-0.437-0.436-0.437H1650.784z M1659.481,467.104c-0.24,0-0.434,0.196-0.434,0.437c0,0.238,0.193,0.435,0.434,0.435
			h0.871c0.239,0,0.434-0.196,0.434-0.435c0-0.24-0.194-0.437-0.434-0.437H1659.481z M1662.091,467.104
			c-0.24,0-0.434,0.196-0.434,0.437c0,0.238,0.193,0.435,0.434,0.435h0.871c0.239,0,0.434-0.196,0.434-0.435
			c0-0.24-0.194-0.437-0.434-0.437H1662.091z M1664.701,467.104c-0.24,0-0.435,0.196-0.435,0.437c0,0.238,0.194,0.435,0.435,0.435
			h0.869c0.24,0,0.436-0.196,0.436-0.435c0-0.24-0.195-0.437-0.436-0.437H1664.701z M1647.305,469.715
			c-0.24,0-0.435,0.195-0.435,0.435c0,0.24,0.194,0.436,0.435,0.436h1.739c0.24,0,0.436-0.195,0.436-0.436
			c0-0.239-0.195-0.435-0.436-0.435H1647.305z M1650.784,469.715c-0.241,0-0.435,0.195-0.435,0.435c0,0.24,0.193,0.436,0.435,0.436
			h6.088c0.24,0,0.436-0.195,0.436-0.436c0-0.239-0.195-0.435-0.436-0.435H1650.784z M1662.091,469.715
			c-0.24,0-0.434,0.195-0.434,0.435c0,0.24,0.193,0.436,0.434,0.436h0.871c0.239,0,0.434-0.195,0.434-0.436
			c0-0.239-0.194-0.435-0.434-0.435H1662.091z M1664.701,469.715c-0.24,0-0.435,0.195-0.435,0.435c0,0.24,0.194,0.436,0.435,0.436
			h0.869c0.24,0,0.436-0.195,0.436-0.436c0-0.239-0.195-0.435-0.436-0.435H1664.701z M1647.305,472.324
			c-0.24,0-0.435,0.194-0.435,0.435s0.194,0.435,0.435,0.435h1.739c0.24,0,0.436-0.194,0.436-0.435s-0.195-0.435-0.436-0.435
			H1647.305z M1650.784,472.324c-0.241,0-0.435,0.194-0.435,0.435s0.193,0.435,0.435,0.435h6.088c0.24,0,0.436-0.194,0.436-0.435
			s-0.195-0.435-0.436-0.435H1650.784z M1659.481,472.324c-0.24,0-0.434,0.194-0.434,0.435s0.193,0.435,0.434,0.435h0.871
			c0.239,0,0.434-0.194,0.434-0.435s-0.194-0.435-0.434-0.435H1659.481z M1662.091,472.324c-0.24,0-0.434,0.194-0.434,0.435
			s0.193,0.435,0.434,0.435h0.871c0.239,0,0.434-0.194,0.434-0.435s-0.194-0.435-0.434-0.435H1662.091z M1664.701,472.324
			c-0.24,0-0.435,0.194-0.435,0.435s0.194,0.435,0.435,0.435h0.869c0.24,0,0.436-0.194,0.436-0.435s-0.195-0.435-0.436-0.435
			H1664.701z M1645.565,475.814c-0.24,0-0.436,0.194-0.436,0.435v0.871c0,0.238,0.195,0.434,0.436,0.434
			c0.239,0,0.434-0.195,0.434-0.434v-0.871C1645.999,476.009,1645.805,475.814,1645.565,475.814L1645.565,475.814z
			 M1647.739,475.814c-0.24,0-0.435,0.194-0.435,0.435v0.871c0,0.238,0.194,0.434,0.435,0.434s0.435-0.195,0.435-0.434v-0.871
			C1648.174,476.009,1647.979,475.814,1647.739,475.814L1647.739,475.814z M1649.914,475.814c-0.24,0-0.435,0.194-0.435,0.435v0.871
			c0,0.238,0.194,0.434,0.435,0.434s0.436-0.195,0.436-0.434v-0.871C1650.35,476.009,1650.154,475.814,1649.914,475.814
			L1649.914,475.814z M1652.089,475.814c-0.241,0-0.435,0.194-0.435,0.435v0.871c0,0.238,0.193,0.434,0.435,0.434
			c0.24,0,0.434-0.195,0.434-0.434v-0.871C1652.522,476.009,1652.329,475.814,1652.089,475.814L1652.089,475.814z M1654.264,475.814
			c-0.241,0-0.436,0.194-0.436,0.435v0.871c0,0.238,0.194,0.434,0.436,0.434c0.239,0,0.434-0.195,0.434-0.434v-0.871
			C1654.697,476.009,1654.503,475.814,1654.264,475.814L1654.264,475.814z M1656.438,475.814c-0.24,0-0.435,0.194-0.435,0.435v0.871
			c0,0.238,0.194,0.434,0.435,0.434s0.435-0.195,0.435-0.434v-0.871C1656.872,476.009,1656.678,475.814,1656.438,475.814
			L1656.438,475.814z M1658.612,475.814c-0.24,0-0.435,0.194-0.435,0.435v0.871c0,0.238,0.194,0.434,0.435,0.434
			s0.436-0.195,0.436-0.434v-0.871C1659.048,476.009,1658.853,475.814,1658.612,475.814L1658.612,475.814z M1660.786,475.814
			c-0.24,0-0.434,0.194-0.434,0.435v0.871c0,0.238,0.193,0.434,0.434,0.434c0.241,0,0.435-0.195,0.435-0.434v-0.871
			C1661.221,476.009,1661.027,475.814,1660.786,475.814L1660.786,475.814z M1662.962,475.814c-0.241,0-0.436,0.194-0.436,0.435
			v0.871c0,0.238,0.194,0.434,0.436,0.434c0.239,0,0.434-0.195,0.434-0.434v-0.871
			C1663.396,476.009,1663.201,475.814,1662.962,475.814L1662.962,475.814z M1665.136,475.814c-0.24,0-0.435,0.194-0.435,0.435v0.871
			c0,0.238,0.194,0.434,0.435,0.434s0.435-0.195,0.435-0.434v-0.871C1665.57,476.009,1665.376,475.814,1665.136,475.814
			L1665.136,475.814z M1667.311,475.814c-0.24,0-0.435,0.194-0.435,0.435v0.871c0,0.238,0.194,0.434,0.435,0.434
			c0.239,0,0.436-0.195,0.436-0.434v-0.871C1667.746,476.009,1667.55,475.814,1667.311,475.814L1667.311,475.814z"/>
	</g>
	<g>
		<path fill="#33CCFF" d="M1644.763,494.522c-0.706,0-1.248,0.539-1.248,1.247v3.412c0,0.624,0.416,1.123,0.998,1.207
			c1.583,0.293,2.748,1.666,2.748,3.289c0,1.624-1.165,2.996-2.748,3.29c-0.582,0.081-0.998,0.623-0.998,1.206v3.411
			c0,0.707,0.542,1.249,1.248,1.249h24.143c0.705,0,1.247-0.542,1.247-1.249v-3.411c0-0.624-0.415-1.125-0.999-1.206
			c-1.58-0.294-2.746-1.666-2.746-3.29c0-1.623,1.166-2.996,2.746-3.289c0.584-0.124,0.999-0.625,0.999-1.207v-3.412
			c0-0.708-0.542-1.247-1.247-1.247H1644.763z M1644.763,495.354h4.58c0,0.25,0.164,0.416,0.416,0.416h0.832
			c0.251,0,0.416-0.166,0.416-0.416h17.898c0.249,0,0.415,0.165,0.415,0.416v3.412c0,0.209-0.125,0.374-0.334,0.418
			c-1.955,0.332-3.411,2.08-3.411,4.078c0,1.999,1.456,3.747,3.411,4.079c0.209,0.044,0.334,0.208,0.334,0.417v3.411
			c0,0.252-0.166,0.417-0.415,0.417h-17.898c0-0.251-0.165-0.417-0.416-0.417h-0.832c-0.252,0-0.416,0.166-0.416,0.417h-4.58
			c-0.25,0-0.416-0.165-0.416-0.417v-3.411c0-0.209,0.125-0.373,0.334-0.417c1.955-0.332,3.412-2.08,3.412-4.079
			c0-1.998-1.457-3.746-3.412-4.078c-0.209-0.044-0.334-0.209-0.334-0.418v-3.412
			C1644.347,495.519,1644.513,495.354,1644.763,495.354L1644.763,495.354z M1652.255,496.186c-0.25,0-0.416,0.166-0.416,0.416
			v14.153c0,0.25,0.166,0.415,0.416,0.415c0.251,0,0.416-0.165,0.416-0.415v-14.153
			C1652.671,496.352,1652.506,496.186,1652.255,496.186L1652.255,496.186z M1649.759,497.019c-0.252,0-0.416,0.166-0.416,0.415
			c0,0.252,0.164,0.417,0.416,0.417h0.832c0.251,0,0.416-0.165,0.416-0.417c0-0.249-0.165-0.415-0.416-0.415H1649.759z
			 M1662.293,498.669c-0.162-0.02-0.32,0.067-0.382,0.223l-4.994,9.572c-0.125,0.208-0.043,0.458,0.165,0.542
			c0.044,0.081,0.085,0.081,0.169,0.081c0.165,0,0.291-0.081,0.375-0.206l4.994-9.573c0.084-0.208,0.041-0.459-0.168-0.584
			C1662.401,498.692,1662.347,498.675,1662.293,498.669L1662.293,498.669z M1649.759,499.1c-0.252,0-0.416,0.166-0.416,0.416
			c0,0.251,0.164,0.416,0.416,0.416h0.832c0.251,0,0.416-0.165,0.416-0.416c0-0.25-0.165-0.416-0.416-0.416H1649.759z
			 M1657.251,499.1c-0.709,0-1.25,0.542-1.25,1.248v1.248c0,0.709,0.541,1.25,1.25,1.25h0.415c0.708,0,1.249-0.541,1.249-1.25
			v-1.248c0-0.706-0.541-1.248-1.249-1.248H1657.251z M1657.251,499.932h0.415c0.25,0,0.417,0.166,0.417,0.416v1.248
			c0,0.252-0.167,0.418-0.417,0.418h-0.415c-0.252,0-0.418-0.166-0.418-0.418v-1.248
			C1656.833,500.098,1656.999,499.932,1657.251,499.932L1657.251,499.932z M1649.759,501.181c-0.252,0-0.416,0.166-0.416,0.415
			c0,0.252,0.164,0.418,0.416,0.418h0.832c0.251,0,0.416-0.166,0.416-0.418c0-0.249-0.165-0.415-0.416-0.415H1649.759z
			 M1649.759,503.262c-0.252,0-0.416,0.166-0.416,0.416c0,0.251,0.164,0.416,0.416,0.416h0.832c0.251,0,0.416-0.165,0.416-0.416
			c0-0.25-0.165-0.416-0.416-0.416H1649.759z M1661.828,504.51c-0.707,0-1.249,0.542-1.249,1.251v1.247
			c0,0.707,0.542,1.247,1.249,1.247h0.417c0.707,0,1.248-0.54,1.248-1.247v-1.247c0-0.709-0.541-1.251-1.248-1.251H1661.828z
			 M1649.759,505.342c-0.252,0-0.416,0.167-0.416,0.419c0,0.249,0.164,0.415,0.416,0.415h0.832c0.251,0,0.416-0.166,0.416-0.415
			c0-0.252-0.165-0.419-0.416-0.419H1649.759z M1661.828,505.342h0.417c0.251,0,0.416,0.167,0.416,0.419v1.247
			c0,0.251-0.165,0.417-0.416,0.417h-0.417c-0.25,0-0.415-0.166-0.415-0.417v-1.247
			C1661.413,505.509,1661.578,505.342,1661.828,505.342L1661.828,505.342z M1649.759,507.425c-0.252,0-0.416,0.164-0.416,0.415
			s0.164,0.415,0.416,0.415h0.832c0.251,0,0.416-0.164,0.416-0.415s-0.165-0.415-0.416-0.415H1649.759z M1649.759,509.505
			c-0.252,0-0.416,0.166-0.416,0.418c0,0.249,0.164,0.415,0.416,0.415h0.832c0.251,0,0.416-0.166,0.416-0.415
			c0-0.252-0.165-0.418-0.416-0.418H1649.759z"/>
	</g>
	<g>
		<path fill="#33CCFF" d="M1654.562,420.878v1.945h-3.891c-0.891,0-1.62,0.729-1.62,1.621v16.857c0,0.892,0.729,1.621,1.62,1.621
			h12.319c0.892,0,1.621-0.729,1.621-1.621v-16.857c0-0.892-0.729-1.621-1.621-1.621h-3.89v-1.945H1654.562z M1655.21,421.527h3.242
			v3.565h-3.242V421.527z M1656.831,422.175c-0.358,0-0.648,0.29-0.648,0.648s0.29,0.648,0.648,0.648s0.648-0.29,0.648-0.648
			S1657.189,422.175,1656.831,422.175L1656.831,422.175z M1650.671,423.472h3.891v1.297h-0.486c-0.268,0-0.486,0.218-0.486,0.486
			s0.219,0.486,0.486,0.486h5.512c0.268,0,0.485-0.218,0.485-0.486s-0.218-0.486-0.485-0.486h-0.486v-1.297h3.89
			c0.541,0,0.973,0.432,0.973,0.973v16.857c0,0.54-0.432,0.972-0.973,0.972h-12.319c-0.54,0-0.972-0.432-0.972-0.972v-16.857
			C1649.699,423.903,1650.131,423.472,1650.671,423.472L1650.671,423.472z M1656.831,428.011c-1.25,0-2.27,1.019-2.27,2.269
			c0,0.78,0.399,1.472,1.002,1.879c-1.158,0.495-1.975,1.646-1.975,2.984h0.649c0-1.437,1.157-2.594,2.593-2.594
			s2.593,1.157,2.593,2.594h0.648c0-1.338-0.815-2.489-1.974-2.984c0.603-0.407,1.002-1.099,1.002-1.879
			C1659.101,429.029,1658.081,428.011,1656.831,428.011L1656.831,428.011z M1656.831,428.658c0.898,0,1.621,0.722,1.621,1.621
			s-0.723,1.621-1.621,1.621c-0.899,0-1.621-0.722-1.621-1.621S1655.932,428.658,1656.831,428.658L1656.831,428.658z
			 M1653.589,437.088v0.647h6.483v-0.647H1653.589z M1653.589,438.708v0.648h5.835v-0.648H1653.589z"/>
	</g>
	<path fill="#33CCFF" d="M1650.387,383.553c-0.975,0-1.788,0.695-1.976,1.614h-0.444c-0.666,0-1.21,0.543-1.21,1.209v2.42
		c0,0.525,0.339,0.969,0.806,1.137v0.43c0,0.432,0.24,0.818,0.627,1.014c0.111,0.055,0.181,0.166,0.181,0.291v14.07
		c0,0.666,0.543,1.21,1.21,1.21h13.714c0.667,0,1.21-0.544,1.21-1.21v-14.07c0-0.125,0.069-0.236,0.182-0.291
		c0.386-0.193,0.626-0.582,0.626-1.014v-0.43c0.468-0.168,0.806-0.611,0.806-1.137v-2.42c0-0.666-0.544-1.209-1.21-1.209h-0.444
		c-0.188-0.919-1.001-1.614-1.976-1.614H1650.387z M1650.387,384.359h12.101c0.525,0,0.975,0.338,1.141,0.808h-14.382
		C1649.412,384.697,1649.861,384.359,1650.387,384.359L1650.387,384.359z M1647.967,385.973h16.94c0.223,0,0.404,0.182,0.404,0.403
		v2.42c0,0.223-0.182,0.404-0.404,0.404h-16.94c-0.223,0-0.404-0.182-0.404-0.404v-2.42
		C1647.562,386.154,1647.744,385.973,1647.967,385.973L1647.967,385.973z M1648.37,386.779c-0.224,0-0.403,0.181-0.403,0.403v0.807
		c0,0.224,0.18,0.404,0.403,0.404s0.402-0.181,0.402-0.404v-0.807C1648.772,386.96,1648.594,386.779,1648.37,386.779
		L1648.37,386.779z M1650.387,386.779c-0.224,0-0.404,0.181-0.404,0.403v0.807c0,0.224,0.181,0.404,0.404,0.404
		c0.223,0,0.403-0.181,0.403-0.404v-0.807C1650.79,386.96,1650.609,386.779,1650.387,386.779L1650.387,386.779z M1652.404,386.779
		c-0.224,0-0.404,0.181-0.404,0.403v0.807c0,0.224,0.181,0.404,0.404,0.404c0.223,0,0.402-0.181,0.402-0.404v-0.807
		C1652.807,386.96,1652.627,386.779,1652.404,386.779L1652.404,386.779z M1654.42,386.779c-0.223,0-0.403,0.181-0.403,0.403v0.807
		c0,0.224,0.181,0.404,0.403,0.404c0.224,0,0.404-0.181,0.404-0.404v-0.807C1654.824,386.96,1654.644,386.779,1654.42,386.779
		L1654.42,386.779z M1656.438,386.779c-0.224,0-0.403,0.181-0.403,0.403v0.807c0,0.224,0.18,0.404,0.403,0.404
		c0.223,0,0.402-0.181,0.402-0.404v-0.807C1656.84,386.96,1656.66,386.779,1656.438,386.779L1656.438,386.779z M1658.454,386.779
		c-0.224,0-0.404,0.181-0.404,0.403v0.807c0,0.224,0.181,0.404,0.404,0.404c0.223,0,0.403-0.181,0.403-0.404v-0.807
		C1658.857,386.96,1658.677,386.779,1658.454,386.779L1658.454,386.779z M1660.47,386.779c-0.223,0-0.402,0.181-0.402,0.403v0.807
		c0,0.224,0.18,0.404,0.402,0.404c0.224,0,0.404-0.181,0.404-0.404v-0.807C1660.874,386.96,1660.693,386.779,1660.47,386.779
		L1660.47,386.779z M1662.487,386.779c-0.224,0-0.403,0.181-0.403,0.403v0.807c0,0.224,0.18,0.404,0.403,0.404
		s0.403-0.181,0.403-0.404v-0.807C1662.891,386.96,1662.711,386.779,1662.487,386.779L1662.487,386.779z M1664.504,386.779
		c-0.224,0-0.402,0.181-0.402,0.403v0.807c0,0.224,0.179,0.404,0.402,0.404s0.403-0.181,0.403-0.404v-0.807
		C1664.907,386.96,1664.728,386.779,1664.504,386.779L1664.504,386.779z M1648.37,390.007h16.134v0.355
		c0,0.125-0.069,0.236-0.18,0.291c-0.386,0.193-0.627,0.582-0.627,1.014v14.07c0,0.223-0.182,0.403-0.403,0.403h-13.714
		c-0.223,0-0.403-0.181-0.403-0.403v-14.07c0-0.016-0.007-0.031-0.007-0.047h10.09c0.224,0,0.404-0.181,0.404-0.404
		c0-0.223-0.181-0.402-0.404-0.402h-10.478c-0.07-0.06-0.146-0.117-0.231-0.16c-0.111-0.055-0.181-0.166-0.181-0.291V390.007z
		 M1660.874,390.813c-0.224,0-0.404,0.18-0.404,0.402c0,0.224,0.181,0.404,0.404,0.404h1.613c0.224,0,0.403-0.181,0.403-0.404
		c0-0.223-0.18-0.402-0.403-0.402H1660.874z M1651.193,393.232c-0.223,0-0.403,0.181-0.403,0.404v10.487
		c0,0.223,0.181,0.403,0.403,0.403h10.486c0.224,0,0.404-0.181,0.404-0.403v-10.487c0-0.224-0.181-0.404-0.404-0.404H1651.193z
		 M1651.597,394.04h9.681v9.68h-9.681V394.04z M1654.42,395.675c-0.223,0-0.403,0.181-0.403,0.403v4.034
		c0,0.222,0.181,0.403,0.403,0.403c0.224,0,0.404-0.18,0.404-0.403v-1.21h0.639l1.613,1.613l-0.925,0.925
		c-0.157,0.158-0.157,0.413,0,0.57c0.079,0.079,0.182,0.117,0.286,0.117c0.104,0,0.205-0.038,0.285-0.117l0.925-0.925l0.924,0.925
		c0.08,0.079,0.182,0.117,0.286,0.117c0.104,0,0.205-0.038,0.285-0.117c0.157-0.157,0.157-0.412,0-0.57l-0.925-0.925l0.925-0.925
		c0.157-0.158,0.157-0.413,0-0.57s-0.413-0.157-0.571,0l-0.924,0.925l-1.141-1.141c0.433-0.185,0.737-0.613,0.737-1.112v-0.808
		c0-0.666-0.545-1.21-1.21-1.21H1654.42z M1654.824,396.482h1.21c0.222,0,0.403,0.181,0.403,0.402v0.808
		c0,0.222-0.182,0.402-0.403,0.402h-1.21V396.482z"/>
	<g>
		<path fill="#33CCFF" d="M1646.424,352.199c-0.71,0-1.292,0.581-1.292,1.292v14.213c0,0.709,0.582,1.291,1.292,1.291h20.027
			c0.71,0,1.292-0.582,1.292-1.291v-14.213c0-0.711-0.582-1.292-1.292-1.292H1646.424z M1646.424,352.846h20.027
			c0.36,0,0.646,0.284,0.646,0.646v14.213c0,0.36-0.285,0.645-0.646,0.645h-20.027c-0.36,0-0.646-0.284-0.646-0.645v-14.213
			C1645.778,353.13,1646.063,352.846,1646.424,352.846L1646.424,352.846z M1650.946,357.367c-1.066,0-1.938,0.872-1.938,1.938
			c0,0.639,0.316,1.209,0.798,1.562c-0.853,0.422-1.443,1.3-1.443,2.313h0.646c0-1.073,0.865-1.938,1.938-1.938
			c1.074,0,1.938,0.865,1.938,1.938h0.646c0-1.014-0.591-1.892-1.443-2.313c0.482-0.354,0.798-0.924,0.798-1.562
			C1652.885,358.239,1652.013,357.367,1650.946,357.367L1650.946,357.367z M1650.946,358.013c0.718,0,1.293,0.574,1.293,1.293
			c0,0.717-0.575,1.291-1.293,1.291s-1.291-0.574-1.291-1.291C1649.655,358.587,1650.229,358.013,1650.946,358.013L1650.946,358.013
			z M1656.114,358.013v0.646h8.398v-0.646H1656.114z M1656.114,359.951v0.646h7.105v-0.646H1656.114z M1656.114,361.89v0.646h8.398
			v-0.646H1656.114z M1648.039,366.735c-0.178,0-0.322,0.145-0.322,0.322s0.145,0.323,0.322,0.323s0.323-0.146,0.323-0.323
			S1648.217,366.735,1648.039,366.735L1648.039,366.735z M1649.331,366.735c-0.178,0-0.323,0.145-0.323,0.322
			s0.146,0.323,0.323,0.323s0.324-0.146,0.324-0.323S1649.509,366.735,1649.331,366.735L1649.331,366.735z M1650.623,366.735
			c-0.178,0-0.322,0.145-0.322,0.322s0.145,0.323,0.322,0.323s0.323-0.146,0.323-0.323S1650.801,366.735,1650.623,366.735
			L1650.623,366.735z M1651.915,366.735c-0.178,0-0.323,0.145-0.323,0.322s0.146,0.323,0.323,0.323c0.179,0,0.324-0.146,0.324-0.323
			S1652.094,366.735,1651.915,366.735L1651.915,366.735z M1653.208,366.735c-0.178,0-0.323,0.145-0.323,0.322
			s0.146,0.323,0.323,0.323s0.322-0.146,0.322-0.323S1653.386,366.735,1653.208,366.735L1653.208,366.735z M1654.499,366.735
			c-0.178,0-0.322,0.145-0.322,0.322s0.145,0.323,0.322,0.323c0.179,0,0.323-0.146,0.323-0.323S1654.678,366.735,1654.499,366.735
			L1654.499,366.735z M1655.791,366.735c-0.177,0-0.322,0.145-0.322,0.322s0.146,0.323,0.322,0.323c0.179,0,0.323-0.146,0.323-0.323
			S1655.97,366.735,1655.791,366.735L1655.791,366.735z M1657.083,366.735c-0.178,0-0.322,0.145-0.322,0.322
			s0.145,0.323,0.322,0.323s0.323-0.146,0.323-0.323S1657.261,366.735,1657.083,366.735L1657.083,366.735z M1658.376,366.735
			c-0.179,0-0.323,0.145-0.323,0.322s0.145,0.323,0.323,0.323c0.178,0,0.322-0.146,0.322-0.323S1658.554,366.735,1658.376,366.735
			L1658.376,366.735z M1659.667,366.735c-0.178,0-0.322,0.145-0.322,0.322s0.145,0.323,0.322,0.323s0.323-0.146,0.323-0.323
			S1659.845,366.735,1659.667,366.735L1659.667,366.735z M1660.96,366.735c-0.179,0-0.324,0.145-0.324,0.322
			s0.146,0.323,0.324,0.323c0.178,0,0.323-0.146,0.323-0.323S1661.138,366.735,1660.96,366.735L1660.96,366.735z M1662.252,366.735
			c-0.178,0-0.323,0.145-0.323,0.322s0.146,0.323,0.323,0.323s0.322-0.146,0.322-0.323S1662.43,366.735,1662.252,366.735
			L1662.252,366.735z M1663.544,366.735c-0.178,0-0.324,0.145-0.324,0.322s0.146,0.323,0.324,0.323s0.323-0.146,0.323-0.323
			S1663.722,366.735,1663.544,366.735L1663.544,366.735z M1664.836,366.735c-0.178,0-0.323,0.145-0.323,0.322
			s0.146,0.323,0.323,0.323s0.322-0.146,0.322-0.323S1665.014,366.735,1664.836,366.735L1664.836,366.735z"/>
	</g>
	<path fill="none" stroke="#33CCFF" stroke-width="2" stroke-linejoin="round" stroke-miterlimit="10" d="M1656.834,380.343v-6.861"
		/>
	<path fill="none" stroke="#33CCFF" stroke-width="2" stroke-linejoin="round" stroke-miterlimit="10" d="M1656.834,348.267v-6.861"
		/>
	<path fill="none" stroke="#33CCFF" stroke-width="2" stroke-linejoin="round" stroke-miterlimit="10" d="M1656.834,417.324v-6.861"
		/>
	<path fill="none" stroke="#33CCFF" stroke-width="2" stroke-linejoin="round" stroke-miterlimit="10" d="M1656.834,453.688v-6.861"
		/>
	<path fill="none" stroke="#33CCFF" stroke-width="2" stroke-linejoin="round" stroke-miterlimit="10" d="M1656.834,491.218v-6.861"
		/>
	<path fill="none" stroke="#33CCFF" stroke-width="2" stroke-linejoin="round" stroke-miterlimit="10" d="M1656.834,525.977v-6.861"
		/>
</g>
</svg>
