<?xml version="1.0" encoding="utf-8"?>
<!-- Generator: Adobe Illustrator 16.0.0, SVG Export Plug-In . SVG Version: 6.00 Build 0)  -->
<!DOCTYPE svg PUBLIC "-//W3C//DTD SVG 1.1//EN" "http://www.w3.org/Graphics/SVG/1.1/DTD/svg11.dtd">
<svg version="1.1" id="Layer_1" xmlns="http://www.w3.org/2000/svg" xmlns:xlink="http://www.w3.org/1999/xlink" x="0px" y="0px"
	 width="229.234px" height="266.969px" viewBox="859.043 1056.198 229.234 266.969"
	 enable-background="new 859.043 1056.198 229.234 266.969" xml:space="preserve">
<g>
	<rect x="950.884" y="1088.054" fill="none" width="51.896" height="21.235"/>
	<text transform="matrix(1 0 0 1 960.6113 1095.3535)"><tspan x="0" y="0" fill="#33CCFF" font-family="'Raleway-Bold'" font-size="10">Wallet </tspan><tspan x="-0.275" y="12" fill="#33CCFF" font-family="'Raleway-Bold'" font-size="10">Holder</tspan></text>
	<g>
		<rect x="895.77" y="1115.603" fill="none" width="80.202" height="6.024"/>
		<text transform="matrix(1 0 0 1 911.0879 1120.7129)" fill="#FFFFFF" font-family="'Raleway-Medium'" font-size="7">Government ID</text>
	</g>
	<g>
		<rect x="1000.617" y="1115.604" fill="none" width="38.017" height="7.545"/>
		<text transform="matrix(1 0 0 1 1002.6191 1120.7129)" fill="#FFFFFF" font-family="'Raleway-Medium'" font-size="7">Prove Age</text>
	</g>
	<rect x="905.673" y="1152.314" fill="none" width="60.155" height="6.917"/>
	<text transform="matrix(1 0 0 1 916.1084 1157.4248)" fill="#FFFFFF" font-family="'Raleway-Medium'" font-size="7">Prescription</text>
	<g>
		<rect x="992.122" y="1152.314" fill="none" width="55.007" height="10.917"/>
		<text transform="matrix(1 0 0 1 994.251 1157.4248)" fill="#FFFFFF" font-family="'Raleway-Medium'" font-size="7">Fill Prescription</text>
	</g>
	<g>
		<rect x="905.673" y="1215.808" fill="none" width="60.155" height="15.704"/>
		<text transform="matrix(1 0 0 1 928.7891 1220.918)"><tspan x="0" y="0" fill="#FFFFFF" font-family="'Raleway-Medium'" font-size="7">KYC </tspan><tspan x="-11.806" y="8" fill="#FFFFFF" font-family="'Raleway-Medium'" font-size="7">Credentials</tspan></text>
	</g>
	<g>
		<rect x="995.675" y="1224.669" fill="none" width="47.901" height="9.507"/>
		<text transform="matrix(1 0 0 1 1009.7383 1229.7793)" fill="#FFFFFF" font-family="'Raleway-Medium'" font-size="7">Invest</text>
	</g>
	<g>
		<rect x="905.673" y="1260.199" fill="none" width="60.155" height="6.282"/>
		<text transform="matrix(1 0 0 1 922.8213 1265.3096)" fill="#FFFFFF" font-family="'Raleway-Medium'" font-size="7">Coupon</text>
	</g>
	<g>
		<rect x="995.675" y="1260.199" fill="none" width="47.901" height="9.507"/>
		<text transform="matrix(1 0 0 1 998.4648 1265.3096)" fill="#FFFFFF" font-family="'Raleway-Medium'" font-size="7">Get Discount</text>
	</g>
	<g>
		<rect x="905.673" y="1294.958" fill="none" width="60.155" height="6.273"/>
		<text transform="matrix(1 0 0 1 917.1025 1300.0684)" fill="#FFFFFF" font-family="'Raleway-Medium'" font-size="7">Credit Card</text>
	</g>
	<g>
		<rect x="993.298" y="1294.958" fill="none" width="52.655" height="10.45"/>
		<text transform="matrix(1 0 0 1 996.001 1300.0684)" fill="#FFFFFF" font-family="'Raleway-Medium'" font-size="7">Purchase Item</text>
	</g>
	<g>
		<rect x="905.673" y="1182.007" fill="none" width="60.155" height="15.763"/>
		<text transform="matrix(1 0 0 1 919.0771 1187.1172)"><tspan x="0" y="0" fill="#FFFFFF" font-family="'Raleway-Medium'" font-size="7">Employee</tspan><tspan x="5.932" y="8" fill="#FFFFFF" font-family="'Raleway-Medium'" font-size="7">Badge</tspan></text>
	</g>
	<g>
		<rect x="995.675" y="1181.661" fill="none" width="47.901" height="14.07"/>
		<text transform="matrix(1 0 0 1 1007.8516 1186.7715)"><tspan x="0" y="0" fill="#FFFFFF" font-family="'Raleway-Medium'" font-size="7">Access</tspan><tspan x="-3.801" y="8" fill="#FFFFFF" font-family="'Raleway-Medium'" font-size="7">Resource</tspan></text>
	</g>
	<g>
		<rect x="921.833" y="1128.579" fill="#FFFFFF" width="26.612" height="2"/>
		<polygon fill="#FFFFFF" points="950.234,1129.527 946.656,1125.947 947.502,1129.494 946.656,1133.105 		"/>
	</g>
	<g>
		<rect x="1005.404" y="1128.579" fill="#FFFFFF" width="26.612" height="2"/>
		<polygon fill="#FFFFFF" points="1033.806,1129.527 1030.228,1125.947 1031.073,1129.494 1030.228,1133.105 		"/>
	</g>
	<g>
		<rect x="921.833" y="1164.44" fill="#FFFFFF" width="26.612" height="2"/>
		<polygon fill="#FFFFFF" points="950.234,1165.389 946.656,1161.809 947.502,1165.355 946.656,1168.967 		"/>
	</g>
	<g>
		<rect x="1005.404" y="1164.44" fill="#FFFFFF" width="26.612" height="2"/>
		<polygon fill="#FFFFFF" points="1033.806,1165.389 1030.228,1161.809 1031.073,1165.355 1030.228,1168.967 		"/>
	</g>
	<g>
		<rect x="921.833" y="1200.401" fill="#FFFFFF" width="26.612" height="2"/>
		<polygon fill="#FFFFFF" points="950.234,1201.35 946.656,1197.77 947.502,1201.316 946.656,1204.928 		"/>
	</g>
	<g>
		<rect x="1005.404" y="1200.401" fill="#FFFFFF" width="26.612" height="2"/>
		<polygon fill="#FFFFFF" points="1033.806,1201.35 1030.228,1197.77 1031.073,1201.316 1030.228,1204.928 		"/>
	</g>
	<g>
		<rect x="921.833" y="1235.891" fill="#FFFFFF" width="26.612" height="2"/>
		<polygon fill="#FFFFFF" points="950.234,1236.839 946.656,1233.259 947.502,1236.806 946.656,1240.417 		"/>
	</g>
	<g>
		<rect x="1005.404" y="1235.891" fill="#FFFFFF" width="26.612" height="2"/>
		<polygon fill="#FFFFFF" points="1033.806,1236.839 1030.228,1233.259 1031.073,1236.806 1030.228,1240.417 		"/>
	</g>
	<g>
		<rect x="921.833" y="1271.784" fill="#FFFFFF" width="26.612" height="2"/>
		<polygon fill="#FFFFFF" points="950.234,1272.732 946.656,1269.152 947.502,1272.699 946.656,1276.311 		"/>
	</g>
	<g>
		<rect x="1005.404" y="1271.784" fill="#FFFFFF" width="26.612" height="2"/>
		<polygon fill="#FFFFFF" points="1033.806,1272.732 1030.228,1269.152 1031.073,1272.699 1030.228,1276.311 		"/>
	</g>
	<g>
		<rect x="921.833" y="1308.04" fill="#FFFFFF" width="26.612" height="2"/>
		<polygon fill="#FFFFFF" points="950.234,1308.988 946.656,1305.408 947.502,1308.955 946.656,1312.566 		"/>
	</g>
	<g>
		<rect x="1005.404" y="1308.04" fill="#FFFFFF" width="26.612" height="2"/>
		<polygon fill="#FFFFFF" points="1033.806,1308.988 1030.228,1305.408 1031.073,1308.955 1030.228,1312.566 		"/>
	</g>
	<g>
		<g>
			<path fill="#33CCFF" d="M980.868,1060.018c-1.101,0-1.993,0.892-1.993,1.993v19.928c0,1.102,0.893,1.992,1.993,1.992h10.363
				c1.1,0,1.993-0.891,1.993-1.992v-19.928c0-1.102-0.894-1.993-1.993-1.993H980.868z M980.868,1060.813h10.363
				c0.659,0,1.195,0.536,1.195,1.197v0.397h-4.384c-0.222,0-0.399,0.179-0.399,0.399c0,0.219,0.178,0.397,0.399,0.397h4.384v15.943
				h-12.755v-15.943h4.385c0.221,0,0.398-0.179,0.398-0.397c0-0.221-0.178-0.399-0.398-0.399h-4.385v-0.397
				C979.672,1061.35,980.209,1060.813,980.868,1060.813L980.868,1060.813z M985.65,1062.408c-0.22,0-0.398,0.179-0.398,0.399
				c0,0.219,0.179,0.397,0.398,0.397h0.798c0.221,0,0.399-0.179,0.399-0.397c0-0.221-0.179-0.399-0.399-0.399H985.65z
				 M980.868,1075.961c-0.222,0-0.398,0.178-0.398,0.398v0.796c0,0.221,0.177,0.398,0.398,0.398s0.399-0.178,0.399-0.398v-0.796
				C981.268,1076.139,981.09,1075.961,980.868,1075.961L980.868,1075.961z M982.861,1075.961c-0.222,0-0.398,0.178-0.398,0.398
				v0.796c0,0.221,0.177,0.398,0.398,0.398c0.221,0,0.398-0.178,0.398-0.398v-0.796
				C983.26,1076.139,983.082,1075.961,982.861,1075.961L982.861,1075.961z M984.853,1075.961c-0.22,0-0.397,0.178-0.397,0.398v0.796
				c0,0.221,0.178,0.398,0.397,0.398c0.223,0,0.399-0.178,0.399-0.398v-0.796C985.252,1076.139,985.075,1075.961,984.853,1075.961
				L984.853,1075.961z M987.246,1075.961c-0.223,0-0.398,0.178-0.398,0.398v0.796c0,0.221,0.176,0.398,0.398,0.398
				c0.221,0,0.397-0.178,0.397-0.398v-0.796C987.644,1076.139,987.467,1075.961,987.246,1075.961L987.246,1075.961z
				 M989.238,1075.961c-0.221,0-0.399,0.178-0.399,0.398v0.796c0,0.221,0.179,0.398,0.399,0.398s0.398-0.178,0.398-0.398v-0.796
				C989.637,1076.139,989.459,1075.961,989.238,1075.961L989.238,1075.961z M991.231,1075.961c-0.222,0-0.399,0.178-0.399,0.398
				v0.796c0,0.221,0.178,0.398,0.399,0.398s0.398-0.178,0.398-0.398v-0.796C991.63,1076.139,991.453,1075.961,991.231,1075.961
				L991.231,1075.961z M979.672,1079.946h12.755v1.992c0,0.66-0.536,1.196-1.195,1.196h-10.363c-0.659,0-1.196-0.536-1.196-1.196
				V1079.946z M984.853,1080.744c-0.22,0-0.397,0.178-0.397,0.397s0.178,0.398,0.397,0.398h2.394c0.221,0,0.397-0.179,0.397-0.398
				s-0.177-0.397-0.397-0.397H984.853z"/>
		</g>
		<g>
			<path fill="#33CCFF" d="M974.674,1079.101v0.977c0,0.269,0.219,0.486,0.487,0.486c0.268,0,0.486-0.218,0.486-0.486v-0.977
				c0-0.266-0.219-0.486-0.486-0.486C974.893,1078.614,974.674,1078.835,974.674,1079.101z"/>
			<path fill="#33CCFF" d="M977.598,1078.614c-0.268,0-0.487,0.221-0.487,0.486v0.977c0,0.269,0.22,0.486,0.487,0.486
				s0.487-0.218,0.487-0.486v-0.977C978.085,1078.835,977.865,1078.614,977.598,1078.614z"/>
			<path fill="#33CCFF" d="M978.875,1081.938v-0.399h-16.872c-0.267,0-0.486-0.22-0.486-0.488v-3.75
				c0-1.681,0.978-3.233,2.493-3.957l6.609-3.161c1.181,1.505,2.749,2.586,4.542,2.586c1.401,0,2.665-0.665,3.714-1.675v-1.428
				c-1.029,1.261-2.337,2.126-3.714,2.126c-3.095,0-5.848-4.359-5.848-7.798v-0.974c0-3.224,2.622-5.848,5.848-5.848
				c2.172,0,4.068,1.192,5.076,2.957c0.199-0.067,0.409-0.112,0.631-0.112h0.408c-1.113-2.259-3.432-3.819-6.115-3.819
				c-3.762,0-6.822,3.061-6.822,6.822v0.974c0,1.656,0.631,3.691,1.707,5.384l-6.458,3.087c-1.852,0.885-3.047,2.782-3.047,4.836
				v3.75c0,0.805,0.656,1.463,1.462,1.463h16.966C978.913,1082.331,978.875,1082.141,978.875,1081.938z"/>
			<path fill="#33CCFF" d="M977.598,1075.689h-4.874c-0.268,0-0.487,0.22-0.487,0.49c0,0.269,0.22,0.486,0.487,0.486h4.874
				c0.268,0,0.487-0.218,0.487-0.486C978.085,1075.909,977.865,1075.689,977.598,1075.689z"/>
			<path fill="#33CCFF" d="M969.8,1079.101v0.977c0,0.269,0.22,0.486,0.487,0.486c0.269,0,0.488-0.218,0.488-0.486v-0.977
				c0-0.266-0.22-0.486-0.488-0.486C970.02,1078.614,969.8,1078.835,969.8,1079.101z"/>
			<path fill="#33CCFF" d="M962.491,1079.101v0.977c0,0.269,0.219,0.486,0.487,0.486s0.486-0.218,0.486-0.486v-0.977
				c0-0.266-0.218-0.486-0.486-0.486S962.491,1078.835,962.491,1079.101z"/>
			<path fill="#33CCFF" d="M964.927,1079.101v0.977c0,0.269,0.22,0.486,0.488,0.486s0.487-0.218,0.487-0.486v-0.977
				c0-0.266-0.219-0.486-0.487-0.486S964.927,1078.835,964.927,1079.101z"/>
			<path fill="#33CCFF" d="M972.236,1079.101v0.977c0,0.269,0.22,0.486,0.487,0.486c0.269,0,0.488-0.218,0.488-0.486v-0.977
				c0-0.266-0.22-0.486-0.488-0.486C972.456,1078.614,972.236,1078.835,972.236,1079.101z"/>
			<path fill="#33CCFF" d="M967.363,1079.101v0.977c0,0.269,0.219,0.486,0.488,0.486c0.268,0,0.487-0.218,0.487-0.486v-0.977
				c0-0.266-0.22-0.486-0.487-0.486C967.582,1078.614,967.363,1078.835,967.363,1079.101z"/>
		</g>
	</g>
	<rect x="859.043" y="1098.622" fill="none" width="68.246" height="11.718"/>
	<text transform="matrix(1 0 0 1 872.4609 1105.9219)" fill="#F12545" font-family="'Raleway-Bold'" font-size="10">ISSUERS</text>
	<rect x="1029.675" y="1098.511" fill="none" width="58.603" height="9.712"/>
	<text transform="matrix(1 0 0 1 1034.1416 1105.8105)" fill="#FFFFFF" font-family="'Raleway-Bold'" font-size="10">VERIFIERS</text>
	<path fill="#FEFEFE" d="M1058.977,1154.038c-0.027,0-0.053,0.002-0.08,0.007c-0.027,0.006-0.054,0.014-0.082,0.025
		c-0.024,0.012-0.05,0.025-0.074,0.041c-0.013,0.01-0.026,0.014-0.041,0.023l-12.623,10.813c-0.185,0.157-0.209,0.441-0.058,0.635
		c0.088,0.107,0.213,0.162,0.337,0.162c0.099,0,0.196-0.033,0.277-0.104l1.463-1.254v11.269h-1.306
		c-0.241,0-0.435,0.201-0.435,0.451s0.193,0.45,0.435,0.45h24.376c0.241,0,0.436-0.2,0.436-0.45s-0.194-0.451-0.436-0.451h-1.306
		v-11.269l1.463,1.254c0.081,0.07,0.18,0.104,0.278,0.104c0.124,0,0.248-0.055,0.335-0.162c0.153-0.193,0.127-0.478-0.058-0.635
		l-12.624-10.813c-0.012-0.01-0.026-0.014-0.04-0.023c-0.026-0.018-0.05-0.031-0.078-0.041c-0.026-0.012-0.05-0.018-0.078-0.025
		C1059.031,1154.04,1059.004,1154.038,1058.977,1154.038L1058.977,1154.038z M1058.979,1155.066l10.011,8.575v7.51h-20.022v-7.51
		L1058.979,1155.066z M1057.673,1159.438c-0.48,0-0.871,0.404-0.871,0.9v1.803h-1.74c-0.48,0-0.872,0.405-0.872,0.901v2.703
		c0,0.496,0.392,0.9,0.872,0.9h1.74v1.803c0,0.496,0.391,0.9,0.871,0.9h2.61c0.48,0,0.871-0.404,0.871-0.9v-1.803h1.743
		c0.479,0,0.868-0.404,0.868-0.9v-2.703c0-0.496-0.39-0.901-0.868-0.901h-1.743v-1.803c0-0.496-0.391-0.9-0.871-0.9H1057.673z
		 M1057.673,1160.338h2.61v1.803c0,0.496,0.392,0.901,0.871,0.901h1.743v2.703h-1.743c-0.479,0-0.871,0.404-0.871,0.9v1.803h-2.61
		v-1.803c0-0.496-0.392-0.9-0.871-0.9h-1.74v-2.703h1.74c0.479,0,0.871-0.405,0.871-0.901V1160.338z M1048.967,1172.052h20.022
		v3.604h-20.022V1172.052z M1050.271,1172.953c-0.241,0-0.435,0.2-0.435,0.451v0.9c0,0.25,0.193,0.451,0.435,0.451
		c0.242,0,0.436-0.201,0.436-0.451v-0.9C1050.707,1173.153,1050.514,1172.953,1050.271,1172.953L1050.271,1172.953z
		 M1052.449,1172.953c-0.241,0-0.436,0.2-0.436,0.451v0.9c0,0.25,0.194,0.451,0.436,0.451s0.435-0.201,0.435-0.451v-0.9
		C1052.884,1173.153,1052.69,1172.953,1052.449,1172.953L1052.449,1172.953z M1054.626,1172.953c-0.242,0-0.437,0.2-0.437,0.451v0.9
		c0,0.25,0.194,0.451,0.437,0.451c0.241,0,0.436-0.201,0.436-0.451v-0.9C1055.062,1173.153,1054.867,1172.953,1054.626,1172.953
		L1054.626,1172.953z M1056.802,1172.953c-0.241,0-0.436,0.2-0.436,0.451v0.9c0,0.25,0.194,0.451,0.436,0.451
		c0.242,0,0.436-0.201,0.436-0.451v-0.9C1057.237,1173.153,1057.044,1172.953,1056.802,1172.953L1056.802,1172.953z
		 M1058.979,1172.953c-0.241,0-0.436,0.2-0.436,0.451v0.9c0,0.25,0.194,0.451,0.436,0.451c0.24,0,0.436-0.201,0.436-0.451v-0.9
		C1059.414,1173.153,1059.219,1172.953,1058.979,1172.953L1058.979,1172.953z M1061.154,1172.953c-0.24,0-0.436,0.2-0.436,0.451v0.9
		c0,0.25,0.195,0.451,0.436,0.451c0.241,0,0.436-0.201,0.436-0.451v-0.9C1061.59,1173.153,1061.396,1172.953,1061.154,1172.953
		L1061.154,1172.953z M1063.331,1172.953c-0.241,0-0.434,0.2-0.434,0.451v0.9c0,0.25,0.192,0.451,0.434,0.451
		s0.435-0.201,0.435-0.451v-0.9C1063.766,1173.153,1063.572,1172.953,1063.331,1172.953L1063.331,1172.953z M1065.508,1172.953
		c-0.242,0-0.435,0.2-0.435,0.451v0.9c0,0.25,0.192,0.451,0.435,0.451c0.241,0,0.434-0.201,0.434-0.451v-0.9
		C1065.941,1173.153,1065.749,1172.953,1065.508,1172.953L1065.508,1172.953z M1067.684,1172.953c-0.241,0-0.435,0.2-0.435,0.451
		v0.9c0,0.25,0.193,0.451,0.435,0.451s0.436-0.201,0.436-0.451v-0.9C1068.119,1173.153,1067.925,1172.953,1067.684,1172.953
		L1067.684,1172.953z"/>
	<path fill="#F12545" d="M891.532,1296.295c-0.242,0-0.435,0.192-0.435,0.433v3.013h-6.507c-0.717,0-1.303,0.584-1.303,1.302
		c0,0.563,0.365,1.042,0.868,1.222v20.036h-1.302c-0.24,0-0.435,0.194-0.435,0.434s0.194,0.434,0.435,0.434h19.957
		c0.24,0,0.435-0.194,0.435-0.434s-0.194-0.434-0.435-0.434h-1.302v-20.036c0.503-0.18,0.868-0.658,0.868-1.222
		c0-0.718-0.586-1.302-1.303-1.302H893.7v-1.712c0-0.24-0.193-0.434-0.434-0.434c-0.241,0-0.434,0.193-0.434,0.434v1.712h-0.867
		v-3.013C891.966,1296.487,891.772,1296.295,891.532,1296.295L891.532,1296.295z M884.591,1300.608h16.484
		c0.239,0,0.435,0.195,0.435,0.434c0,0.239-0.195,0.435-0.435,0.435h-16.484c-0.239,0-0.435-0.195-0.435-0.435
		C884.156,1300.804,884.352,1300.608,884.591,1300.608L884.591,1300.608z M885.023,1302.344h15.619v17.352h-6.074v-0.021
		c0-0.479-0.39-0.869-0.868-0.869h-1.734c-0.478,0-0.868,0.391-0.868,0.869v0.021h-6.074v-15.616h11.281
		c0.238,0,0.433-0.196,0.433-0.436c0-0.237-0.194-0.433-0.433-0.433h-11.281V1302.344z M897.604,1303.211
		c-0.24,0-0.433,0.195-0.433,0.433c0,0.239,0.192,0.436,0.433,0.436h1.736c0.24,0,0.434-0.196,0.434-0.436
		c0-0.237-0.193-0.433-0.434-0.433H897.604z M887.193,1304.946c-0.241,0-0.435,0.195-0.435,0.434c0,0.239,0.193,0.435,0.435,0.435
		h0.868c0.24,0,0.434-0.195,0.434-0.435c0-0.238-0.193-0.434-0.434-0.434H887.193z M890.663,1304.946
		c-0.239,0-0.434,0.195-0.434,0.434c0,0.239,0.194,0.435,0.434,0.435h0.869c0.24,0,0.434-0.195,0.434-0.435
		c0-0.238-0.193-0.434-0.434-0.434H890.663z M894.134,1304.946c-0.24,0-0.434,0.195-0.434,0.434c0,0.239,0.193,0.435,0.434,0.435
		h0.869c0.239,0,0.434-0.195,0.434-0.435c0-0.238-0.194-0.434-0.434-0.434H894.134z M897.604,1304.946
		c-0.24,0-0.433,0.195-0.433,0.434c0,0.239,0.192,0.435,0.433,0.435h0.868c0.241,0,0.435-0.195,0.435-0.435
		c0-0.238-0.193-0.434-0.435-0.434H897.604z M887.193,1306.682c-0.241,0-0.435,0.195-0.435,0.434c0,0.239,0.193,0.436,0.435,0.436
		h0.868c0.24,0,0.434-0.196,0.434-0.436c0-0.238-0.193-0.434-0.434-0.434H887.193z M890.663,1306.682
		c-0.239,0-0.434,0.195-0.434,0.434c0,0.239,0.194,0.436,0.434,0.436h0.869c0.24,0,0.434-0.196,0.434-0.436
		c0-0.238-0.193-0.434-0.434-0.434H890.663z M894.134,1306.682c-0.24,0-0.434,0.195-0.434,0.434c0,0.239,0.193,0.436,0.434,0.436
		h0.869c0.239,0,0.434-0.196,0.434-0.436c0-0.238-0.194-0.434-0.434-0.434H894.134z M897.604,1306.682
		c-0.24,0-0.433,0.195-0.433,0.434c0,0.239,0.192,0.436,0.433,0.436h0.868c0.241,0,0.435-0.196,0.435-0.436
		c0-0.238-0.193-0.434-0.435-0.434H897.604z M887.193,1308.418c-0.241,0-0.435,0.193-0.435,0.434c0,0.238,0.193,0.433,0.435,0.433
		h0.868c0.24,0,0.434-0.194,0.434-0.433c0-0.24-0.193-0.434-0.434-0.434H887.193z M890.663,1308.418
		c-0.239,0-0.434,0.193-0.434,0.434c0,0.238,0.194,0.433,0.434,0.433h0.869c0.24,0,0.434-0.194,0.434-0.433
		c0-0.24-0.193-0.434-0.434-0.434H890.663z M894.134,1308.418c-0.24,0-0.434,0.193-0.434,0.434c0,0.238,0.193,0.433,0.434,0.433
		h0.869c0.239,0,0.434-0.194,0.434-0.433c0-0.24-0.194-0.434-0.434-0.434H894.134z M897.604,1308.418
		c-0.24,0-0.433,0.193-0.433,0.434c0,0.238,0.192,0.433,0.433,0.433h0.868c0.241,0,0.435-0.194,0.435-0.433
		c0-0.24-0.193-0.434-0.435-0.434H897.604z M887.193,1310.152c-0.241,0-0.435,0.194-0.435,0.434c0,0.238,0.193,0.434,0.435,0.434
		h0.868c0.24,0,0.434-0.195,0.434-0.434c0-0.239-0.193-0.434-0.434-0.434H887.193z M890.663,1310.152
		c-0.239,0-0.434,0.194-0.434,0.434c0,0.238,0.194,0.434,0.434,0.434h0.869c0.24,0,0.434-0.195,0.434-0.434
		c0-0.239-0.193-0.434-0.434-0.434H890.663z M894.134,1310.152c-0.24,0-0.434,0.194-0.434,0.434c0,0.238,0.193,0.434,0.434,0.434
		h0.869c0.239,0,0.434-0.195,0.434-0.434c0-0.239-0.194-0.434-0.434-0.434H894.134z M897.604,1310.152
		c-0.24,0-0.433,0.194-0.433,0.434c0,0.238,0.192,0.434,0.433,0.434h0.868c0.241,0,0.435-0.195,0.435-0.434
		c0-0.239-0.193-0.434-0.435-0.434H897.604z M887.193,1311.888c-0.241,0-0.435,0.194-0.435,0.433c0,0.24,0.193,0.434,0.435,0.434
		h0.868c0.24,0,0.434-0.193,0.434-0.434c0-0.238-0.193-0.433-0.434-0.433H887.193z M890.663,1311.888
		c-0.239,0-0.434,0.194-0.434,0.433c0,0.24,0.194,0.434,0.434,0.434h0.869c0.24,0,0.434-0.193,0.434-0.434
		c0-0.238-0.193-0.433-0.434-0.433H890.663z M894.134,1311.888c-0.24,0-0.434,0.194-0.434,0.433c0,0.24,0.193,0.434,0.434,0.434
		h0.869c0.239,0,0.434-0.193,0.434-0.434c0-0.238-0.194-0.433-0.434-0.433H894.134z M897.604,1311.888
		c-0.24,0-0.433,0.194-0.433,0.433c0,0.24,0.192,0.434,0.433,0.434h0.868c0.241,0,0.435-0.193,0.435-0.434
		c0-0.238-0.193-0.433-0.435-0.433H897.604z M887.193,1313.622c-0.241,0-0.435,0.195-0.435,0.434c0,0.24,0.193,0.435,0.435,0.435
		h0.868c0.24,0,0.434-0.194,0.434-0.435c0-0.238-0.193-0.434-0.434-0.434H887.193z M890.663,1313.622
		c-0.239,0-0.434,0.195-0.434,0.434c0,0.24,0.194,0.435,0.434,0.435h0.869c0.24,0,0.434-0.194,0.434-0.435
		c0-0.238-0.193-0.434-0.434-0.434H890.663z M894.134,1313.622c-0.24,0-0.434,0.195-0.434,0.434c0,0.24,0.193,0.435,0.434,0.435
		h0.869c0.239,0,0.434-0.194,0.434-0.435c0-0.238-0.194-0.434-0.434-0.434H894.134z M897.604,1313.622
		c-0.24,0-0.433,0.195-0.433,0.434c0,0.24,0.192,0.435,0.433,0.435h0.868c0.241,0,0.435-0.194,0.435-0.435
		c0-0.238-0.193-0.434-0.435-0.434H897.604z M887.193,1315.357c-0.241,0-0.435,0.196-0.435,0.435c0,0.24,0.193,0.434,0.435,0.434
		h0.868c0.24,0,0.434-0.193,0.434-0.434c0-0.238-0.193-0.435-0.434-0.435H887.193z M890.663,1315.357
		c-0.239,0-0.434,0.196-0.434,0.435c0,0.24,0.194,0.434,0.434,0.434h0.869c0.24,0,0.434-0.193,0.434-0.434
		c0-0.238-0.193-0.435-0.434-0.435H890.663z M894.134,1315.357c-0.24,0-0.434,0.196-0.434,0.435c0,0.24,0.193,0.434,0.434,0.434
		h0.869c0.239,0,0.434-0.193,0.434-0.434c0-0.238-0.194-0.435-0.434-0.435H894.134z M897.604,1315.357
		c-0.24,0-0.433,0.196-0.433,0.435c0,0.24,0.192,0.434,0.433,0.434h0.868c0.241,0,0.435-0.193,0.435-0.434
		c0-0.238-0.193-0.435-0.435-0.435H897.604z M887.193,1317.093c-0.241,0-0.435,0.195-0.435,0.435c0,0.238,0.193,0.435,0.435,0.435
		h0.868c0.24,0,0.434-0.196,0.434-0.435c0-0.239-0.193-0.435-0.434-0.435H887.193z M890.663,1317.093
		c-0.239,0-0.434,0.195-0.434,0.435c0,0.238,0.194,0.435,0.434,0.435h0.869c0.24,0,0.434-0.196,0.434-0.435
		c0-0.239-0.193-0.435-0.434-0.435H890.663z M894.134,1317.093c-0.24,0-0.434,0.195-0.434,0.435c0,0.238,0.193,0.435,0.434,0.435
		h0.869c0.239,0,0.434-0.196,0.434-0.435c0-0.239-0.194-0.435-0.434-0.435H894.134z M897.604,1317.093
		c-0.24,0-0.433,0.195-0.433,0.435c0,0.238,0.192,0.435,0.433,0.435h0.868c0.241,0,0.435-0.196,0.435-0.435
		c0-0.239-0.193-0.435-0.435-0.435H897.604z M891.966,1319.675h1.734v2.603h-1.734V1319.675z M885.023,1320.563h6.074v1.736h-6.074
		V1320.563z M894.568,1320.563h6.074v1.736h-6.074V1320.563z"/>
	<path fill="#F12545" d="M887.385,1261.52c-0.23,0-0.419,0.187-0.419,0.417v3.749h-3.771c-0.692,0-1.258,0.564-1.258,1.257
		c0,0.476,0.269,0.887,0.658,1.099l-2.169,4.339c-0.404,0.809-0.245,1.78,0.392,2.419l0.119,0.118c0.291,0.291,0.635,0.501,1,0.643
		v9.403h-1.258c-0.229,0-0.418,0.187-0.418,0.42c0,0.231,0.188,0.419,0.418,0.419h24.308c0.23,0,0.419-0.188,0.419-0.419
		c0-0.233-0.188-0.42-0.419-0.42h-1.257v-9.403c0.364-0.142,0.708-0.352,1-0.643l0.118-0.118c0.638-0.639,0.797-1.61,0.393-2.419
		l-2.169-4.339c0.39-0.214,0.658-0.623,0.658-1.099c0-0.692-0.565-1.257-1.258-1.257H889.48v-1.653c0-0.231-0.188-0.42-0.42-0.42
		c-0.229,0-0.419,0.188-0.419,0.42v1.653h-0.838v-3.749C887.804,1261.706,887.616,1261.52,887.385,1261.52L887.385,1261.52z
		 M883.194,1266.523h19.277c0.23,0,0.419,0.188,0.419,0.419s-0.188,0.42-0.419,0.42h-19.277c-0.23,0-0.419-0.189-0.419-0.42
		S882.964,1266.523,883.194,1266.523L883.194,1266.523z M883.452,1268.199h3.09l-0.823,3.705c-0.052,0.226,0.093,0.45,0.317,0.5
		c0.031,0.008,0.062,0.012,0.091,0.012c0.193,0,0.366-0.135,0.41-0.329l0.839-3.772c0.007-0.038,0.004-0.076,0.001-0.115h10.91
		c-0.001,0.039-0.005,0.077,0.004,0.115l0.838,3.772c0.045,0.194,0.217,0.329,0.409,0.329c0.03,0,0.061-0.005,0.092-0.012
		c0.225-0.05,0.366-0.274,0.315-0.5l-0.821-3.705h3.089l2.278,4.554c0.241,0.486,0.146,1.07-0.237,1.453l-0.118,0.117
		c-0.73,0.734-1.909,0.817-2.737,0.196l-1.105-0.831c-0.444-0.332-1.065-0.332-1.509,0l-1.342,1.008
		c-0.74,0.555-1.774,0.555-2.515,0l-1.341-1.006c-0.103-0.078-0.217-0.136-0.335-0.179v-3.61c0-0.233-0.188-0.419-0.419-0.419
		s-0.419,0.186-0.419,0.419v3.61c-0.118,0.043-0.232,0.101-0.336,0.179l-1.34,1.006c-0.74,0.555-1.775,0.555-2.515,0l-1.342-1.006
		c-0.444-0.334-1.065-0.334-1.509,0l-1.105,0.829c-0.828,0.62-2.007,0.537-2.741-0.196l-0.116-0.117
		c-0.384-0.383-0.477-0.966-0.235-1.45L883.452,1268.199z M886.127,1274.277c0.089,0,0.179,0.026,0.251,0.083l1.344,1.005
		c1.036,0.777,2.482,0.777,3.52,0l1.342-1.005c0.146-0.111,0.353-0.111,0.5,0l1.342,1.005c0.519,0.389,1.14,0.583,1.761,0.583
		c0.62,0,1.241-0.194,1.759-0.583l1.343-1.005c0.148-0.111,0.354-0.111,0.502,0l1.104,0.828c0.59,0.442,1.303,0.627,1.997,0.572
		v5.001h-1.257c-0.23,0-0.419,0.188-0.419,0.419c0,0.231,0.188,0.418,0.419,0.418h1.257v3.364h-11.734v-3.353h1.328
		c0.23,0,0.419-0.187,0.419-0.419s-0.188-0.419-0.419-0.419h-1.328v-3.353c0-0.462-0.377-0.839-0.838-0.839h-4.191
		c-0.461,0-0.837,0.377-0.837,0.839v3.353h-2.515v-5.014c0.694,0.057,1.407-0.128,1.997-0.57l1.104-0.828
		C885.951,1274.304,886.039,1274.277,886.127,1274.277L886.127,1274.277z M894.509,1276.581c-0.461,0-0.837,0.377-0.837,0.839v3.331
		c0,0.462,0.376,0.838,0.837,0.838h5.029c0.462,0,0.838-0.376,0.838-0.838v-3.331c0-0.462-0.376-0.839-0.838-0.839H894.509z
		 M886.127,1277.42h4.191v7.521h-4.191V1277.42z M894.509,1277.42h5.029v3.331h-5.029V1277.42z M889.061,1280.354
		c-0.229,0-0.419,0.187-0.419,0.419v0.838c0,0.232,0.189,0.419,0.419,0.419c0.231,0,0.42-0.187,0.42-0.419v-0.838
		C889.48,1280.54,889.292,1280.354,889.061,1280.354L889.061,1280.354z M882.775,1281.61h2.515v3.353h-2.515V1281.61z
		 M884.032,1282.449c-0.231,0-0.42,0.186-0.42,0.419v0.837c0,0.233,0.188,0.42,0.42,0.42c0.23,0,0.419-0.187,0.419-0.42v-0.837
		C884.451,1282.635,884.263,1282.449,884.032,1282.449L884.032,1282.449z M892.833,1282.449c-0.23,0-0.419,0.186-0.419,0.419v0.837
		c0,0.233,0.188,0.42,0.419,0.42s0.419-0.187,0.419-0.42v-0.837C893.252,1282.635,893.063,1282.449,892.833,1282.449
		L892.833,1282.449z M894.928,1282.449c-0.23,0-0.419,0.186-0.419,0.419v0.837c0,0.233,0.188,0.42,0.419,0.42
		c0.231,0,0.42-0.187,0.42-0.42v-0.837C895.348,1282.635,895.159,1282.449,894.928,1282.449L894.928,1282.449z M897.023,1282.449
		c-0.229,0-0.419,0.186-0.419,0.419v0.837c0,0.233,0.189,0.42,0.419,0.42c0.23,0,0.419-0.187,0.419-0.42v-0.837
		C897.442,1282.635,897.254,1282.449,897.023,1282.449L897.023,1282.449z M899.12,1282.449c-0.231,0-0.42,0.186-0.42,0.419v0.837
		c0,0.233,0.188,0.42,0.42,0.42c0.229,0,0.418-0.187,0.418-0.42v-0.837C899.538,1282.635,899.35,1282.449,899.12,1282.449
		L899.12,1282.449z M901.215,1282.449c-0.23,0-0.419,0.186-0.419,0.419v0.837c0,0.233,0.188,0.42,0.419,0.42
		c0.229,0,0.419-0.187,0.419-0.42v-0.837C901.634,1282.635,901.444,1282.449,901.215,1282.449L901.215,1282.449z"/>
	<path fill="#FEFEFE" d="M1053.385,1117.315c-0.23,0-0.419,0.187-0.419,0.417v3.749h-3.771c-0.692,0-1.258,0.564-1.258,1.257
		c0,0.476,0.269,0.887,0.658,1.099l-2.169,4.339c-0.404,0.809-0.245,1.78,0.392,2.419l0.119,0.118c0.291,0.291,0.635,0.501,1,0.643
		v9.403h-1.258c-0.229,0-0.418,0.187-0.418,0.42c0,0.231,0.188,0.419,0.418,0.419h24.308c0.23,0,0.419-0.188,0.419-0.419
		c0-0.233-0.188-0.42-0.419-0.42h-1.257v-9.403c0.364-0.142,0.708-0.352,1-0.643l0.118-0.118c0.638-0.639,0.797-1.61,0.393-2.419
		l-2.169-4.339c0.39-0.214,0.658-0.623,0.658-1.099c0-0.692-0.565-1.257-1.258-1.257h-12.991v-1.653c0-0.231-0.188-0.42-0.42-0.42
		c-0.229,0-0.419,0.188-0.419,0.42v1.653h-0.838v-3.749C1053.804,1117.502,1053.616,1117.315,1053.385,1117.315L1053.385,1117.315z
		 M1049.194,1122.319h19.277c0.23,0,0.419,0.188,0.419,0.419s-0.188,0.42-0.419,0.42h-19.277c-0.23,0-0.419-0.189-0.419-0.42
		S1048.964,1122.319,1049.194,1122.319L1049.194,1122.319z M1049.452,1123.995h3.09l-0.823,3.705c-0.052,0.226,0.093,0.45,0.317,0.5
		c0.031,0.008,0.062,0.012,0.091,0.012c0.193,0,0.366-0.135,0.41-0.329l0.839-3.772c0.007-0.038,0.004-0.076,0.001-0.115h10.91
		c-0.001,0.039-0.005,0.077,0.004,0.115l0.838,3.772c0.045,0.194,0.217,0.329,0.409,0.329c0.03,0,0.061-0.005,0.092-0.012
		c0.225-0.05,0.366-0.274,0.315-0.5l-0.821-3.705h3.089l2.278,4.554c0.241,0.486,0.146,1.07-0.237,1.453l-0.118,0.117
		c-0.73,0.734-1.909,0.817-2.737,0.196l-1.105-0.831c-0.444-0.332-1.065-0.332-1.509,0l-1.342,1.008
		c-0.74,0.555-1.774,0.555-2.515,0l-1.341-1.006c-0.103-0.078-0.217-0.136-0.335-0.179v-3.61c0-0.233-0.188-0.419-0.419-0.419
		s-0.419,0.186-0.419,0.419v3.61c-0.118,0.043-0.232,0.101-0.336,0.179l-1.34,1.006c-0.74,0.555-1.775,0.555-2.515,0l-1.342-1.006
		c-0.444-0.334-1.065-0.334-1.509,0l-1.105,0.829c-0.828,0.62-2.007,0.537-2.741-0.196l-0.116-0.117
		c-0.384-0.383-0.477-0.966-0.235-1.45L1049.452,1123.995z M1052.127,1130.073c0.089,0,0.179,0.026,0.251,0.083l1.344,1.005
		c1.036,0.777,2.482,0.777,3.52,0l1.342-1.005c0.146-0.111,0.353-0.111,0.5,0l1.342,1.005c0.519,0.389,1.14,0.583,1.761,0.583
		c0.62,0,1.241-0.194,1.759-0.583l1.343-1.005c0.148-0.111,0.354-0.111,0.502,0l1.104,0.828c0.59,0.442,1.303,0.627,1.997,0.572
		v5.001h-1.257c-0.23,0-0.419,0.188-0.419,0.419c0,0.231,0.188,0.418,0.419,0.418h1.257v3.364h-11.734v-3.353h1.328
		c0.23,0,0.419-0.187,0.419-0.419s-0.188-0.419-0.419-0.419h-1.328v-3.353c0-0.462-0.377-0.839-0.838-0.839h-4.191
		c-0.461,0-0.837,0.377-0.837,0.839v3.353h-2.515v-5.014c0.694,0.057,1.407-0.128,1.997-0.57l1.104-0.828
		C1051.951,1130.1,1052.039,1130.073,1052.127,1130.073L1052.127,1130.073z M1060.509,1132.377c-0.461,0-0.837,0.377-0.837,0.839
		v3.331c0,0.462,0.376,0.838,0.837,0.838h5.029c0.462,0,0.838-0.376,0.838-0.838v-3.331c0-0.462-0.376-0.839-0.838-0.839H1060.509z
		 M1052.127,1133.216h4.191v7.521h-4.191V1133.216z M1060.509,1133.216h5.029v3.331h-5.029V1133.216z M1055.061,1136.149
		c-0.229,0-0.419,0.187-0.419,0.419v0.838c0,0.232,0.189,0.419,0.419,0.419c0.231,0,0.42-0.187,0.42-0.419v-0.838
		C1055.48,1136.336,1055.292,1136.149,1055.061,1136.149L1055.061,1136.149z M1048.775,1137.406h2.515v3.353h-2.515V1137.406z
		 M1050.032,1138.245c-0.231,0-0.42,0.186-0.42,0.419v0.837c0,0.233,0.188,0.42,0.42,0.42c0.23,0,0.419-0.187,0.419-0.42v-0.837
		C1050.451,1138.431,1050.263,1138.245,1050.032,1138.245L1050.032,1138.245z M1058.833,1138.245c-0.23,0-0.419,0.186-0.419,0.419
		v0.837c0,0.233,0.188,0.42,0.419,0.42s0.419-0.187,0.419-0.42v-0.837C1059.252,1138.431,1059.063,1138.245,1058.833,1138.245
		L1058.833,1138.245z M1060.928,1138.245c-0.23,0-0.419,0.186-0.419,0.419v0.837c0,0.233,0.188,0.42,0.419,0.42
		c0.231,0,0.42-0.187,0.42-0.42v-0.837C1061.348,1138.431,1061.159,1138.245,1060.928,1138.245L1060.928,1138.245z
		 M1063.023,1138.245c-0.229,0-0.419,0.186-0.419,0.419v0.837c0,0.233,0.189,0.42,0.419,0.42c0.23,0,0.419-0.187,0.419-0.42v-0.837
		C1063.442,1138.431,1063.254,1138.245,1063.023,1138.245L1063.023,1138.245z M1065.12,1138.245c-0.231,0-0.42,0.186-0.42,0.419
		v0.837c0,0.233,0.188,0.42,0.42,0.42c0.229,0,0.418-0.187,0.418-0.42v-0.837C1065.538,1138.431,1065.35,1138.245,1065.12,1138.245
		L1065.12,1138.245z M1067.215,1138.245c-0.23,0-0.419,0.186-0.419,0.419v0.837c0,0.233,0.188,0.42,0.419,0.42
		c0.229,0,0.419-0.187,0.419-0.42v-0.837C1067.634,1138.431,1067.444,1138.245,1067.215,1138.245L1067.215,1138.245z"/>
	<g>
		<g>
			<path fill="#F12545" d="M893.421,1153.332c-1.161,0-2.321,0.15-3.452,0.453l-1.182,0.315c-0.492,0.133-0.862,0.543-0.941,1.047
				l-0.763,4.87c-0.028,0.184,0.008,0.361,0.089,0.521c-0.285,0.529-0.497,1.097-0.627,1.687l-0.945,4.222
				c-0.191,0.865-0.536,1.677-1.023,2.414l-0.639,0.97c-0.198,0.301-0.25,0.669-0.146,1.012c0.029,0.093,0.069,0.178,0.116,0.258
				l-0.701,0.336c-1.634,0.78-2.689,2.456-2.689,4.268v2.451c0,0.712,0.579,1.29,1.29,1.29h23.229c0.711,0,1.29-0.578,1.29-1.29
				v-2.451c0-1.812-1.056-3.487-2.689-4.268l-0.551-0.264c0.074-0.103,0.139-0.214,0.178-0.338c0.105-0.346,0.048-0.711-0.155-1.01
				l-0.749-1.095c-0.492-0.721-0.846-1.511-1.047-2.35l-0.914-3.811c-0.161-0.675-0.436-1.312-0.806-1.902
				c0.14-0.183,0.204-0.415,0.167-0.649l-0.765-4.87c-0.079-0.503-0.447-0.914-0.941-1.047l-1.182-0.315
				C895.743,1153.482,894.583,1153.332,893.421,1153.332L893.421,1153.332z M893.421,1154.191c1.087,0,2.175,0.141,3.23,0.426
				l1.181,0.315c0.165,0.044,0.287,0.181,0.314,0.35l0.765,4.867h-0.002l-2.618-0.876c-0.264-0.09-0.534-0.16-0.806-0.221
				c0.322-0.432,0.518-0.967,0.518-1.546c0-1.423-1.158-2.581-2.582-2.581c-1.423,0-2.58,1.158-2.58,2.581
				c0,0.579,0.194,1.114,0.517,1.546c-0.271,0.062-0.542,0.131-0.806,0.221l-2.618,0.876l0.763-4.868
				c0.026-0.168,0.149-0.305,0.314-0.349l1.183-0.315C891.249,1154.332,892.335,1154.191,893.421,1154.191L893.421,1154.191z
				 M893.421,1155.786c0.949,0,1.721,0.771,1.721,1.721s-0.771,1.721-1.721,1.721c-0.948,0-1.72-0.771-1.72-1.721
				S892.473,1155.786,893.421,1155.786L893.421,1155.786z M894.67,1159.766c0.457,0.068,0.909,0.176,1.348,0.324l2.618,0.877
				c0.049,0.016,0.099,0.016,0.149,0.023c0.363,0.548,0.625,1.146,0.778,1.781l0.913,3.81c0.226,0.941,0.621,1.828,1.172,2.634
				l0.749,1.094c0.075,0.111,0.061,0.217,0.044,0.271c-0.027,0.086-0.094,0.154-0.18,0.198l-4.551-2.176
				c0.221-0.419,0.405-0.854,0.55-1.289c0.462-0.186,0.87-0.739,1.072-1.492c0.286-1.063,0.018-1.963-0.636-2.138
				c-0.027-0.008-0.057-0.015-0.089-0.02c-0.017-0.482-0.032-0.76-0.053-0.888c-0.043-0.233-0.265-0.388-0.499-0.349
				c-0.234,0.043-0.389,0.265-0.348,0.498c0.02,0.118,0.039,0.736,0.047,1l0.01,0.283c0.006,0.153,0.097,0.293,0.233,0.363
				c0.136,0.071,0.301,0.062,0.43-0.021c0.023-0.015,0.041-0.023,0.047-0.029c0.08,0.094,0.184,0.491,0.026,1.078
				c-0.167,0.621-0.482,0.908-0.577,0.919c-0.189,0-0.357,0.124-0.412,0.308c-0.614,2.065-2.218,4.153-4.092,4.153
				c-1.875,0-3.478-2.088-4.091-4.153c-0.056-0.184-0.221-0.308-0.412-0.308c-0.098-0.011-0.411-0.298-0.578-0.919
				c-0.166-0.622-0.038-1.034,0.002-1.082c0,0,0.023,0.003,0.072,0.033c0.128,0.084,0.293,0.093,0.43,0.021
				c0.137-0.07,0.226-0.208,0.233-0.363l0.009-0.252c0.009-0.252,0.03-0.92,0.053-1.045c0.041-0.233-0.115-0.455-0.349-0.497
				c-0.238-0.044-0.457,0.114-0.498,0.348c-0.024,0.133-0.039,0.423-0.058,0.901c-0.032,0.005-0.063,0.012-0.091,0.02
				c-0.653,0.175-0.921,1.074-0.636,2.138c0.202,0.753,0.61,1.307,1.072,1.492c0.145,0.436,0.331,0.87,0.552,1.289l-4.44,2.121
				c-0.043-0.047-0.068-0.099-0.078-0.133c-0.018-0.058-0.036-0.171,0.042-0.287l0.639-0.969c0.544-0.826,0.931-1.734,1.146-2.701
				l0.941-4.221c0.111-0.492,0.287-0.964,0.52-1.409c0.103,0.005,0.206-0.004,0.305-0.037l2.62-0.877
				c0.438-0.148,0.891-0.254,1.348-0.324c0.371,0.205,0.797,0.322,1.248,0.322C893.873,1160.088,894.299,1159.971,894.67,1159.766
				L894.67,1159.766z M895.618,1160.52c-0.093,0.006-0.186,0.021-0.274,0.053l-0.673,0.227c-1.122,0.377-2.377,0.579-3.629,0.579
				h-1.099c-0.238,0-0.431,0.192-0.431,0.431s0.192,0.43,0.431,0.43h1.099c1.345,0,2.695-0.217,3.905-0.625l0.672-0.229
				c0.021-0.007,0.042-0.007,0.061-0.007c0.021,0,0.039,0.004,0.039,0l0.688,0.726c0.165,0.174,0.437,0.182,0.608,0.018
				c0.171-0.164,0.18-0.438,0.016-0.608l-0.689-0.726C896.167,1160.6,895.892,1160.506,895.618,1160.52L895.618,1160.52z
				 M889.571,1169.343c0.948,1.422,2.312,2.498,3.85,2.498c1.536,0,2.902-1.076,3.849-2.498l0.425,0.203l-3.386,8.887
				c-0.019,0.049-0.025,0.103-0.025,0.151h-1.726c0-0.049-0.005-0.103-0.025-0.151l-3.384-8.887L889.571,1169.343z
				 M888.369,1169.919l3.302,8.665h-1.054l-3.104-3.879l1.091-1.456c0.08-0.106,0.106-0.244,0.07-0.374l-0.78-2.727
				L888.369,1169.919z M898.474,1169.919l0.475,0.229l-0.779,2.727c-0.037,0.13-0.011,0.268,0.069,0.374l1.079,1.442l-3.208,3.609
				c-0.071,0.08-0.103,0.183-0.103,0.283h-0.835L898.474,1169.919z M899.738,1170.524l3.528,1.687
				c1.335,0.64,2.199,2.01,2.199,3.492v2.451c0,0.237-0.193,0.43-0.43,0.43h-8.027l3.186-3.585c0.137-0.152,0.146-0.38,0.023-0.543
				l-1.163-1.55L899.738,1170.524z M887.106,1170.524l0.681,2.382l-1.163,1.55c-0.117,0.155-0.113,0.373,0.009,0.525l2.884,3.603
				h-7.71c-0.236,0-0.43-0.192-0.43-0.43v-2.451c0-1.48,0.864-2.853,2.201-3.492L887.106,1170.524z M882.667,1176.004
				c-0.238,0-0.43,0.191-0.43,0.431v0.859c0,0.239,0.191,0.431,0.43,0.431c0.239,0,0.431-0.191,0.431-0.431v-0.859
				C883.098,1176.195,882.906,1176.004,882.667,1176.004L882.667,1176.004z M884.818,1176.004c-0.239,0-0.43,0.191-0.43,0.431v0.859
				c0,0.239,0.19,0.431,0.43,0.431c0.238,0,0.43-0.191,0.43-0.431v-0.859C885.248,1176.195,885.057,1176.004,884.818,1176.004
				L884.818,1176.004z M886.969,1176.004c-0.238,0-0.43,0.191-0.43,0.431v0.859c0,0.239,0.191,0.431,0.43,0.431
				c0.239,0,0.431-0.191,0.431-0.431v-0.859C887.399,1176.195,887.208,1176.004,886.969,1176.004L886.969,1176.004z
				 M899.874,1176.004c-0.238,0-0.431,0.191-0.431,0.431v0.859c0,0.239,0.192,0.431,0.431,0.431s0.43-0.191,0.43-0.431v-0.859
				C900.304,1176.195,900.112,1176.004,899.874,1176.004L899.874,1176.004z M902.024,1176.004c-0.238,0-0.43,0.191-0.43,0.431v0.859
				c0,0.239,0.191,0.431,0.43,0.431c0.239,0,0.43-0.191,0.43-0.431v-0.859C902.454,1176.195,902.264,1176.004,902.024,1176.004
				L902.024,1176.004z M904.176,1176.004c-0.239,0-0.431,0.191-0.431,0.431v0.859c0,0.239,0.191,0.431,0.431,0.431
				c0.238,0,0.43-0.191,0.43-0.431v-0.859C904.605,1176.195,904.414,1176.004,904.176,1176.004L904.176,1176.004z"/>
		</g>
	</g>
	<path fill="#F12545" d="M892.833,1227.469c-0.149,0-0.302,0.028-0.442,0.085l-11.049,4.353c-0.366,0.144-0.569,0.514-0.495,0.901
		c0.072,0.387,0.399,0.656,0.792,0.656h0.7v0.807c0,0.445,0.362,0.808,0.807,0.808h0.808v8.073h-0.808
		c-0.444,0-0.807,0.362-0.807,0.808v0.807h-0.808c-0.445,0-0.808,0.363-0.808,0.808v2.019c0,0.222,0.182,0.403,0.403,0.403h23.412
		c0.222,0,0.403-0.182,0.403-0.403v-2.019c0-0.444-0.362-0.808-0.807-0.808h-0.808v-0.807c0-0.445-0.363-0.808-0.808-0.808h-0.807
		v-8.073h0.807c0.444,0,0.808-0.362,0.808-0.808v-0.807h0.7c0.393,0,0.719-0.27,0.793-0.656c0.072-0.388-0.131-0.758-0.496-0.901
		l-11.049-4.353C893.135,1227.497,892.983,1227.469,892.833,1227.469L892.833,1227.469z M892.833,1228.276
		c0.051,0,0.1,0.01,0.147,0.028l11.048,4.352h-1.104c-0.223,0-0.404,0.182-0.404,0.403v1.211h-19.375v-0.807h14.936
		c0.222,0,0.403-0.182,0.403-0.404c0-0.222-0.182-0.403-0.403-0.403h-16.442l11.048-4.352
		C892.733,1228.286,892.783,1228.276,892.833,1228.276L892.833,1228.276z M892.833,1229.427c-0.667,0-1.211,0.545-1.211,1.211
		c0,0.668,0.544,1.212,1.211,1.212s1.211-0.544,1.211-1.212C894.044,1229.972,893.5,1229.427,892.833,1229.427L892.833,1229.427z
		 M892.833,1230.134c0.277,0,0.505,0.228,0.505,0.504c0,0.278-0.228,0.505-0.505,0.505s-0.505-0.227-0.505-0.505
		C892.328,1230.361,892.556,1230.134,892.833,1230.134L892.833,1230.134z M899.695,1232.656c-0.223,0-0.403,0.182-0.403,0.403
		c0,0.223,0.181,0.404,0.403,0.404h1.614c0.223,0,0.404-0.182,0.404-0.404c0-0.222-0.182-0.403-0.404-0.403H899.695z
		 M884.761,1235.078h1.614v8.073h-1.614V1235.078z M887.182,1235.078h1.615v8.073h-1.615V1235.078z M889.604,1235.078h1.615v8.073
		h-1.615V1235.078z M892.026,1235.078h1.614v8.073h-1.614V1235.078z M894.448,1235.078h1.614v8.073h-1.614V1235.078z
		 M896.87,1235.078h1.614v8.073h-1.614V1235.078z M899.292,1235.078h1.614v8.073h-1.614V1235.078z M883.146,1243.959h19.375v1.211
		c0,0.222,0.182,0.403,0.404,0.403h1.211v1.614h-22.604v-1.614h1.211c0.222,0,0.403-0.182,0.403-0.403V1243.959z M884.761,1244.766
		c-0.223,0-0.404,0.182-0.404,0.404v0.807c0,0.223,0.182,0.404,0.404,0.404c0.222,0,0.403-0.182,0.403-0.404v-0.807
		C885.164,1244.947,884.982,1244.766,884.761,1244.766L884.761,1244.766z M886.778,1244.766c-0.222,0-0.403,0.182-0.403,0.404v0.807
		c0,0.223,0.182,0.404,0.403,0.404s0.403-0.182,0.403-0.404v-0.807C887.182,1244.947,887,1244.766,886.778,1244.766
		L886.778,1244.766z M888.797,1244.766c-0.223,0-0.403,0.182-0.403,0.404v0.807c0,0.223,0.181,0.404,0.403,0.404
		c0.222,0,0.403-0.182,0.403-0.404v-0.807C889.2,1244.947,889.019,1244.766,888.797,1244.766L888.797,1244.766z M890.815,1244.766
		c-0.223,0-0.404,0.182-0.404,0.404v0.807c0,0.223,0.182,0.404,0.404,0.404c0.222,0,0.403-0.182,0.403-0.404v-0.807
		C891.219,1244.947,891.037,1244.766,890.815,1244.766L890.815,1244.766z M892.833,1244.766c-0.222,0-0.403,0.182-0.403,0.404v0.807
		c0,0.223,0.182,0.404,0.403,0.404s0.403-0.182,0.403-0.404v-0.807C893.236,1244.947,893.055,1244.766,892.833,1244.766
		L892.833,1244.766z M894.852,1244.766c-0.223,0-0.403,0.182-0.403,0.404v0.807c0,0.223,0.181,0.404,0.403,0.404
		c0.222,0,0.403-0.182,0.403-0.404v-0.807C895.255,1244.947,895.073,1244.766,894.852,1244.766L894.852,1244.766z M896.87,1244.766
		c-0.223,0-0.404,0.182-0.404,0.404v0.807c0,0.223,0.182,0.404,0.404,0.404c0.222,0,0.403-0.182,0.403-0.404v-0.807
		C897.273,1244.947,897.092,1244.766,896.87,1244.766L896.87,1244.766z M898.888,1244.766c-0.222,0-0.403,0.182-0.403,0.404v0.807
		c0,0.223,0.182,0.404,0.403,0.404c0.223,0,0.404-0.182,0.404-0.404v-0.807C899.292,1244.947,899.11,1244.766,898.888,1244.766
		L898.888,1244.766z M900.906,1244.766c-0.223,0-0.403,0.182-0.403,0.404v0.807c0,0.223,0.181,0.404,0.403,0.404
		c0.222,0,0.403-0.182,0.403-0.404v-0.807C901.31,1244.947,901.128,1244.766,900.906,1244.766L900.906,1244.766z"/>
	<g>
		<g>
			<path fill="#F12545" d="M892.854,1118.055c-0.071,0.004-0.144,0.025-0.208,0.064c-0.126,0.079-0.204,0.218-0.204,0.367v3.909
				c-2.752,0.211-4.949,2.409-5.161,5.161h-0.453c-0.238,0-0.433,0.191-0.433,0.432c0,0.239,0.194,0.432,0.433,0.432h0.432v1.727
				h-3.455v-0.432c0-0.713-0.581-1.295-1.295-1.295h-0.864c-0.714,0-1.296,0.582-1.296,1.295v0.512
				c-0.5,0.178-0.863,0.654-0.863,1.217c0,0.561,0.363,1.037,0.863,1.215v9.582h-0.432c-0.237,0-0.432,0.191-0.432,0.432
				c0,0.238,0.194,0.432,0.432,0.432h25.912c0.237,0,0.432-0.193,0.432-0.432c0-0.24-0.194-0.432-0.432-0.432h-0.432v-9.582
				c0.5-0.178,0.863-0.654,0.863-1.215c0-0.562-0.363-1.039-0.863-1.217v-0.512c0-0.713-0.582-1.295-1.296-1.295h-0.864
				c-0.714,0-1.295,0.582-1.295,1.295v0.432h-3.455v-1.727h0.432c0.238,0,0.433-0.192,0.433-0.432c0-0.24-0.194-0.432-0.433-0.432
				h-0.453c-0.212-2.752-2.409-4.95-5.161-5.161v-1.501c0.886,0.398,1.854,0.615,2.826,0.615h0.197c0.237,0,0.432-0.191,0.432-0.432
				v-1.728c0-0.239-0.194-0.432-0.432-0.432h-0.197c-0.935,0-1.871-0.222-2.704-0.638l-0.359-0.181
				C893.001,1118.066,892.927,1118.052,892.854,1118.055L892.854,1118.055z M893.306,1119.179c0.813,0.364,1.701,0.568,2.591,0.601
				v0.863c-0.854-0.033-1.705-0.251-2.469-0.635l-0.122-0.061V1119.179z M892.874,1123.237c2.475,0,4.513,1.901,4.73,4.319h-9.461
				C888.361,1125.139,890.399,1123.237,892.874,1123.237L892.874,1123.237z M888.124,1128.42h2.591v1.727h-2.591V1128.42z
				 M891.578,1128.42h2.592v1.727h-2.592V1128.42z M895.033,1128.42h2.591v1.727h-2.591V1128.42z M881.646,1129.283h0.864
				c0.237,0,0.432,0.193,0.432,0.432v0.432h-1.728v-0.432C881.214,1129.477,881.408,1129.283,881.646,1129.283L881.646,1129.283z
				 M903.238,1129.283h0.864c0.237,0,0.432,0.193,0.432,0.432v0.432h-1.727v-0.432
				C902.808,1129.477,903.001,1129.283,903.238,1129.283L903.238,1129.283z M880.782,1131.012h24.184
				c0.238,0,0.433,0.193,0.433,0.432c0,0.236-0.194,0.432-0.433,0.432h-24.184c-0.238,0-0.433-0.195-0.433-0.432
				C880.35,1131.205,880.544,1131.012,880.782,1131.012L880.782,1131.012z M881.214,1132.738h23.32v9.502h-8.638v-1.75
				c0-0.477-0.388-0.863-0.863-0.863h-4.318c-0.476,0-0.864,0.387-0.864,0.863v1.75h-8.637V1132.738z M884.237,1134.465
				c-0.238,0-0.433,0.193-0.433,0.432c0,0.24,0.194,0.434,0.433,0.434h0.863c0.237,0,0.432-0.193,0.432-0.434
				c0-0.238-0.194-0.432-0.432-0.432H884.237z M886.828,1134.465c-0.238,0-0.433,0.193-0.433,0.432c0,0.24,0.194,0.434,0.433,0.434
				h0.863c0.238,0,0.433-0.193,0.433-0.434c0-0.238-0.194-0.432-0.433-0.432H886.828z M891.146,1134.465
				c-0.237,0-0.432,0.193-0.432,0.432c0,0.24,0.194,0.434,0.432,0.434h0.864c0.237,0,0.432-0.193,0.432-0.434
				c0-0.238-0.194-0.432-0.432-0.432H891.146z M893.737,1134.465c-0.237,0-0.432,0.193-0.432,0.432c0,0.24,0.194,0.434,0.432,0.434
				h0.864c0.237,0,0.432-0.193,0.432-0.434c0-0.238-0.194-0.432-0.432-0.432H893.737z M898.057,1134.465
				c-0.238,0-0.433,0.193-0.433,0.432c0,0.24,0.194,0.434,0.433,0.434h0.863c0.238,0,0.433-0.193,0.433-0.434
				c0-0.238-0.194-0.432-0.433-0.432H898.057z M900.647,1134.465c-0.237,0-0.432,0.193-0.432,0.432c0,0.24,0.194,0.434,0.432,0.434
				h0.863c0.238,0,0.433-0.193,0.433-0.434c0-0.238-0.194-0.432-0.433-0.432H900.647z M884.237,1136.193
				c-0.238,0-0.433,0.191-0.433,0.432s0.194,0.432,0.433,0.432h0.863c0.237,0,0.432-0.191,0.432-0.432s-0.194-0.432-0.432-0.432
				H884.237z M886.828,1136.193c-0.238,0-0.433,0.191-0.433,0.432s0.194,0.432,0.433,0.432h0.863c0.238,0,0.433-0.191,0.433-0.432
				s-0.194-0.432-0.433-0.432H886.828z M891.146,1136.193c-0.237,0-0.432,0.191-0.432,0.432s0.194,0.432,0.432,0.432h0.864
				c0.237,0,0.432-0.191,0.432-0.432s-0.194-0.432-0.432-0.432H891.146z M893.737,1136.193c-0.237,0-0.432,0.191-0.432,0.432
				s0.194,0.432,0.432,0.432h0.864c0.237,0,0.432-0.191,0.432-0.432s-0.194-0.432-0.432-0.432H893.737z M898.057,1136.193
				c-0.238,0-0.433,0.191-0.433,0.432s0.194,0.432,0.433,0.432h0.863c0.238,0,0.433-0.191,0.433-0.432s-0.194-0.432-0.433-0.432
				H898.057z M900.647,1136.193c-0.237,0-0.432,0.191-0.432,0.432s0.194,0.432,0.432,0.432h0.863c0.238,0,0.433-0.191,0.433-0.432
				s-0.194-0.432-0.433-0.432H900.647z M884.237,1137.92c-0.238,0-0.433,0.193-0.433,0.432c0,0.24,0.194,0.434,0.433,0.434h0.863
				c0.237,0,0.432-0.193,0.432-0.434c0-0.238-0.194-0.432-0.432-0.432H884.237z M886.828,1137.92c-0.238,0-0.433,0.193-0.433,0.432
				c0,0.24,0.194,0.434,0.433,0.434h0.863c0.238,0,0.433-0.193,0.433-0.434c0-0.238-0.194-0.432-0.433-0.432H886.828z
				 M891.146,1137.92c-0.237,0-0.432,0.193-0.432,0.432c0,0.24,0.194,0.434,0.432,0.434h0.864c0.237,0,0.432-0.193,0.432-0.434
				c0-0.238-0.194-0.432-0.432-0.432H891.146z M893.737,1137.92c-0.237,0-0.432,0.193-0.432,0.432c0,0.24,0.194,0.434,0.432,0.434
				h0.864c0.237,0,0.432-0.193,0.432-0.434c0-0.238-0.194-0.432-0.432-0.432H893.737z M898.057,1137.92
				c-0.238,0-0.433,0.193-0.433,0.432c0,0.24,0.194,0.434,0.433,0.434h0.863c0.238,0,0.433-0.193,0.433-0.434
				c0-0.238-0.194-0.432-0.433-0.432H898.057z M900.647,1137.92c-0.237,0-0.432,0.193-0.432,0.432c0,0.24,0.194,0.434,0.432,0.434
				h0.863c0.238,0,0.433-0.193,0.433-0.434c0-0.238-0.194-0.432-0.433-0.432H900.647z M884.237,1139.648
				c-0.238,0-0.433,0.191-0.433,0.432s0.194,0.432,0.433,0.432h0.863c0.237,0,0.432-0.191,0.432-0.432s-0.194-0.432-0.432-0.432
				H884.237z M886.828,1139.648c-0.238,0-0.433,0.191-0.433,0.432s0.194,0.432,0.433,0.432h0.863c0.238,0,0.433-0.191,0.433-0.432
				s-0.194-0.432-0.433-0.432H886.828z M898.057,1139.648c-0.238,0-0.433,0.191-0.433,0.432s0.194,0.432,0.433,0.432h0.863
				c0.238,0,0.433-0.191,0.433-0.432s-0.194-0.432-0.433-0.432H898.057z M900.647,1139.648c-0.237,0-0.432,0.191-0.432,0.432
				s0.194,0.432,0.432,0.432h0.863c0.238,0,0.433-0.191,0.433-0.432s-0.194-0.432-0.433-0.432H900.647z M890.715,1140.49h0.863
				v1.727h-0.863V1140.49z M892.442,1140.49h0.863v1.727h-0.863V1140.49z M894.17,1140.49h0.863v1.727h-0.863V1140.49z"/>
		</g>
	</g>
	<path fill="#F12545" d="M890.627,1188.777c-0.233,0-0.424,0.188-0.424,0.424v2.951h-6.375c-0.703,0-1.275,0.572-1.275,1.274
		c0,0.554,0.357,1.021,0.851,1.197v19.627h-1.275c-0.233,0-0.425,0.19-0.425,0.425s0.191,0.425,0.425,0.425h22.57
		c0.469,0,0.85-0.382,0.85-0.85v-1.041c0-0.812-0.449-1.542-1.177-1.903l-3.337-1.657c0.234-0.396,0.431-0.822,0.575-1.247
		c0.36-0.164,0.676-0.598,0.828-1.177c0.098-0.353,0.114-0.705,0.057-1.003c-0.082-0.392-0.303-0.662-0.605-0.743
		c-0.013,0-0.021-0.003-0.033-0.008c-0.034-0.208-0.089-0.423-0.171-0.663c0.039,0.012,0.073,0.024,0.106,0.038
		c0.145,0.059,0.315,0.033,0.438-0.068c0.12-0.098,0.175-0.259,0.14-0.416c-0.283-1.294-0.978-2.27-1.967-2.839v-6.899
		c0.492-0.176,0.85-0.644,0.85-1.197c0-0.702-0.572-1.274-1.275-1.274h-7.224v-1.677c0-0.233-0.192-0.424-0.426-0.424
		s-0.424,0.19-0.424,0.424v1.677h-0.851v-2.951C891.053,1188.966,890.861,1188.777,890.627,1188.777L890.627,1188.777z
		 M883.828,1193.003h16.148c0.233,0,0.426,0.19,0.426,0.424c0,0.234-0.192,0.426-0.426,0.426h-16.148
		c-0.234,0-0.425-0.191-0.425-0.426C883.403,1193.193,883.594,1193.003,883.828,1193.003L883.828,1193.003z M884.253,1194.702
		h15.299v6.454c-0.437-0.131-0.911-0.202-1.42-0.202h-0.279c-0.552,0-1.33,0.144-1.914,0.459c-0.604-0.3-1.29-0.462-2.057-0.462
		h-0.28c-0.606,0-1.495,0.179-2.091,0.564c-1.081,0.06-1.848,0.853-1.968,2.057c-0.074,0.732-0.005,1.276,0.037,1.602
		c0.012,0.098,0.028,0.22,0.026,0.246c-0.002,0.019-0.005,0.034-0.009,0.053c-0.012,0.004-0.021,0.005-0.031,0.009
		c-0.304,0.081-0.524,0.352-0.604,0.743c-0.06,0.296-0.042,0.65,0.052,1.001c0.155,0.579,0.468,1.011,0.83,1.181
		c0.148,0.438,0.346,0.865,0.582,1.262l-3.295,1.639c-0.728,0.361-1.179,1.09-1.179,1.902v1.042h-1.7V1194.702z M886.378,1196.402
		c-0.233,0-0.425,0.19-0.425,0.425s0.191,0.425,0.425,0.425h0.85c0.234,0,0.425-0.19,0.425-0.425s-0.19-0.425-0.425-0.425H886.378z
		 M889.777,1196.402c-0.234,0-0.425,0.19-0.425,0.425s0.19,0.425,0.425,0.425h0.85c0.234,0,0.426-0.19,0.426-0.425
		s-0.191-0.425-0.426-0.425H889.777z M893.178,1196.402c-0.234,0-0.425,0.19-0.425,0.425s0.19,0.425,0.425,0.425h0.85
		c0.233,0,0.425-0.19,0.425-0.425s-0.191-0.425-0.425-0.425H893.178z M896.577,1196.402c-0.234,0-0.425,0.19-0.425,0.425
		s0.19,0.425,0.425,0.425h0.851c0.233,0,0.425-0.19,0.425-0.425s-0.191-0.425-0.425-0.425H896.577z M886.378,1198.103
		c-0.233,0-0.425,0.19-0.425,0.424c0,0.234,0.191,0.426,0.425,0.426h0.85c0.234,0,0.425-0.191,0.425-0.426
		c0-0.233-0.19-0.424-0.425-0.424H886.378z M889.777,1198.103c-0.234,0-0.425,0.19-0.425,0.424c0,0.234,0.19,0.426,0.425,0.426h0.85
		c0.234,0,0.426-0.191,0.426-0.426c0-0.233-0.191-0.424-0.426-0.424H889.777z M893.178,1198.103c-0.234,0-0.425,0.19-0.425,0.424
		c0,0.234,0.19,0.426,0.425,0.426h0.85c0.233,0,0.425-0.191,0.425-0.426c0-0.233-0.191-0.424-0.425-0.424H893.178z
		 M896.577,1198.103c-0.234,0-0.425,0.19-0.425,0.424c0,0.234,0.19,0.426,0.425,0.426h0.851c0.233,0,0.425-0.191,0.425-0.426
		c0-0.233-0.191-0.424-0.425-0.424H896.577z M886.378,1199.802c-0.233,0-0.425,0.191-0.425,0.425s0.191,0.426,0.425,0.426h0.85
		c0.234,0,0.425-0.192,0.425-0.426s-0.19-0.425-0.425-0.425H886.378z M889.777,1199.802c-0.234,0-0.425,0.191-0.425,0.425
		s0.19,0.426,0.425,0.426h0.85c0.234,0,0.426-0.192,0.426-0.426s-0.191-0.425-0.426-0.425H889.777z M886.378,1201.502
		c-0.233,0-0.425,0.191-0.425,0.425s0.191,0.425,0.425,0.425h0.85c0.234,0,0.425-0.191,0.425-0.425s-0.19-0.425-0.425-0.425H886.378
		z M893.602,1201.803h0.28c0.281,0,0.547,0.031,0.804,0.079c-0.494,0.354-0.817,0.943-0.892,1.69
		c-0.073,0.734-0.006,1.274,0.038,1.602c0.013,0.098,0.024,0.221,0.024,0.246c-0.003,0.019-0.003,0.034-0.008,0.053
		c-0.014,0.004-0.021,0.007-0.033,0.007c-0.304,0.081-0.524,0.354-0.604,0.743c-0.061,0.299-0.042,0.65,0.055,1.003
		c0.154,0.579,0.468,1.013,0.828,1.177c0.149,0.435,0.345,0.863,0.585,1.267l-3.3,1.638c-0.727,0.359-1.176,1.092-1.176,1.903v1.041
		h-3.4v-1.042c0-0.487,0.271-0.925,0.707-1.143l3.722-1.849c0.007-0.004,0.011-0.011,0.017-0.014
		c0.014-0.007,0.026-0.01,0.038-0.019c0.017-0.012,0.025-0.03,0.038-0.043c0.021-0.019,0.039-0.035,0.054-0.055
		c0.019-0.025,0.031-0.051,0.043-0.075c0.01-0.025,0.021-0.047,0.028-0.071c0.007-0.028,0.008-0.055,0.01-0.083
		c0.002-0.027,0.002-0.052-0.002-0.078c-0.003-0.028-0.012-0.055-0.021-0.081c-0.006-0.017-0.005-0.035-0.013-0.052
		c-0.007-0.01-0.016-0.017-0.022-0.026c-0.004-0.009-0.006-0.02-0.013-0.03c-0.349-0.493-0.626-1.065-0.801-1.655
		c-0.054-0.181-0.195-0.3-0.383-0.3c-0.057-0.021-0.257-0.214-0.368-0.63c-0.084-0.31-0.062-0.538-0.029-0.655
		c0.116,0.051,0.249,0.047,0.362-0.011c0.135-0.07,0.223-0.207,0.231-0.359c0.006-0.14,0.02-0.279,0.043-0.413
		c0.024-0.141,0.006-0.292-0.021-0.502c-0.04-0.307-0.098-0.771-0.034-1.407c0.083-0.825,0.539-1.297,1.26-1.297
		c0.092,0,0.182-0.03,0.256-0.085C892.26,1202.012,893.005,1201.803,893.602,1201.803L893.602,1201.803z M897.853,1201.804h0.279
		c1.557,0,2.7,0.756,3.219,2.104c-0.154,0.013-0.304,0.063-0.423,0.178c-0.114,0.11-0.278,0.358-0.117,0.8
		c0.169,0.455,0.229,0.718,0.245,1.096c0.005,0.152,0.106,0.281,0.243,0.354c0.106,0.049,0.233,0.055,0.349,0.013
		c0.032,0.114,0.055,0.347-0.03,0.657c-0.111,0.417-0.311,0.607-0.344,0.629c-0.188,0-0.354,0.123-0.408,0.302
		c-0.131,0.451-0.336,0.913-0.596,1.336c-0.148,0.25-0.317,0.483-0.505,0.696c-0.537,0.624-1.202,1.055-1.912,1.055
		c-0.701,0-1.364-0.422-1.899-1.038c-0.188-0.213-0.356-0.446-0.512-0.697c-0.262-0.43-0.466-0.893-0.603-1.352
		c-0.055-0.179-0.195-0.302-0.387-0.302c-0.055-0.021-0.254-0.212-0.365-0.629c-0.085-0.311-0.062-0.539-0.029-0.654
		c0.114,0.052,0.245,0.047,0.361-0.013c0.134-0.066,0.225-0.205,0.229-0.357c0.009-0.14,0.021-0.28,0.047-0.411
		c0.024-0.145,0.003-0.294-0.021-0.502c-0.039-0.311-0.1-0.773-0.035-1.411c0.081-0.825,0.541-1.297,1.26-1.297
		c0.093,0,0.181-0.029,0.254-0.084C896.51,1202.012,897.258,1201.804,897.853,1201.804L897.853,1201.804z M886.378,1203.201
		c-0.233,0-0.425,0.192-0.425,0.426s0.191,0.425,0.425,0.425h0.85c0.234,0,0.425-0.191,0.425-0.425s-0.19-0.426-0.425-0.426H886.378
		z M896.333,1203.225c-0.251-0.021-0.505,0.095-0.65,0.316l-0.447,0.68c-0.129,0.196-0.076,0.46,0.12,0.588
		c0.072,0.048,0.154,0.071,0.234,0.071c0.138,0,0.273-0.068,0.354-0.19l0.379-0.577l0.322,0.158
		c0.816,0.398,1.728,0.609,2.635,0.609h0.716c0.234,0,0.426-0.19,0.426-0.425c0-0.236-0.191-0.425-0.426-0.425h-0.716
		c-0.777,0-1.561-0.182-2.264-0.522l-0.436-0.214C896.501,1203.254,896.416,1203.231,896.333,1203.225L896.333,1203.225z
		 M886.378,1204.901c-0.233,0-0.425,0.19-0.425,0.426c0,0.233,0.191,0.425,0.425,0.425h0.85c0.234,0,0.425-0.191,0.425-0.425
		c0-0.235-0.19-0.426-0.425-0.426H886.378z M886.378,1206.602c-0.233,0-0.425,0.19-0.425,0.425s0.191,0.425,0.425,0.425h0.85
		c0.234,0,0.425-0.19,0.425-0.425s-0.19-0.425-0.425-0.425H886.378z M886.378,1208.302c-0.233,0-0.425,0.19-0.425,0.424
		c0,0.234,0.191,0.426,0.425,0.426h0.85c0.234,0,0.425-0.191,0.425-0.426c0-0.233-0.19-0.424-0.425-0.424H886.378z
		 M900.541,1210.354l3.451,1.713c0.434,0.218,0.706,0.655,0.706,1.144v1.041h-13.646v-1.041c0-0.488,0.271-0.926,0.706-1.144
		l3.415-1.694c0.706,0.878,1.641,1.5,2.679,1.5C898.897,1211.872,899.837,1211.243,900.541,1210.354L900.541,1210.354z"/>
	<g>
		<path fill="#FEFEFE" d="M1048.812,1191.928c-0.362,0-0.663,0.3-0.663,0.663v13.266c0,0.363,0.301,0.663,0.663,0.663h7.628v1.327
			h-0.995c-0.729,0-1.326,0.597-1.326,1.326v0.663h9.949v-0.663c0-0.729-0.598-1.326-1.327-1.326h-0.994v-1.327h7.627
			c0.363,0,0.663-0.3,0.663-0.663v-13.266c0-0.363-0.3-0.663-0.663-0.663H1048.812z M1048.812,1192.591h20.562v13.266h-20.562
			V1192.591z M1049.807,1203.866c-0.183,0-0.332,0.149-0.332,0.332s0.149,0.332,0.332,0.332s0.332-0.149,0.332-0.332
			S1049.989,1203.866,1049.807,1203.866L1049.807,1203.866z M1051.133,1203.866c-0.183,0-0.331,0.149-0.331,0.332
			s0.148,0.332,0.331,0.332s0.332-0.149,0.332-0.332S1051.315,1203.866,1051.133,1203.866L1051.133,1203.866z M1052.46,1203.866
			c-0.183,0-0.332,0.149-0.332,0.332s0.149,0.332,0.332,0.332s0.331-0.149,0.331-0.332S1052.643,1203.866,1052.46,1203.866
			L1052.46,1203.866z M1053.786,1203.866c-0.183,0-0.331,0.149-0.331,0.332s0.148,0.332,0.331,0.332s0.332-0.149,0.332-0.332
			S1053.969,1203.866,1053.786,1203.866L1053.786,1203.866z M1055.113,1203.866c-0.184,0-0.332,0.149-0.332,0.332
			s0.148,0.332,0.332,0.332c0.182,0,0.331-0.149,0.331-0.332S1055.295,1203.866,1055.113,1203.866L1055.113,1203.866z
			 M1056.439,1203.866c-0.183,0-0.332,0.149-0.332,0.332s0.149,0.332,0.332,0.332s0.332-0.149,0.332-0.332
			S1056.622,1203.866,1056.439,1203.866L1056.439,1203.866z M1057.766,1203.866c-0.183,0-0.331,0.149-0.331,0.332
			s0.148,0.332,0.331,0.332s0.332-0.149,0.332-0.332S1057.948,1203.866,1057.766,1203.866L1057.766,1203.866z M1059.093,1203.866
			c-0.183,0-0.332,0.149-0.332,0.332s0.149,0.332,0.332,0.332s0.331-0.149,0.331-0.332S1059.275,1203.866,1059.093,1203.866
			L1059.093,1203.866z M1060.419,1203.866c-0.183,0-0.331,0.149-0.331,0.332s0.148,0.332,0.331,0.332s0.332-0.149,0.332-0.332
			S1060.602,1203.866,1060.419,1203.866L1060.419,1203.866z M1061.746,1203.866c-0.184,0-0.332,0.149-0.332,0.332
			s0.148,0.332,0.332,0.332c0.182,0,0.331-0.149,0.331-0.332S1061.928,1203.866,1061.746,1203.866L1061.746,1203.866z
			 M1063.072,1203.866c-0.183,0-0.332,0.149-0.332,0.332s0.149,0.332,0.332,0.332s0.332-0.149,0.332-0.332
			S1063.255,1203.866,1063.072,1203.866L1063.072,1203.866z M1064.398,1203.866c-0.183,0-0.331,0.149-0.331,0.332
			s0.148,0.332,0.331,0.332s0.332-0.149,0.332-0.332S1064.581,1203.866,1064.398,1203.866L1064.398,1203.866z M1065.726,1203.866
			c-0.183,0-0.332,0.149-0.332,0.332s0.149,0.332,0.332,0.332s0.331-0.149,0.331-0.332S1065.908,1203.866,1065.726,1203.866
			L1065.726,1203.866z M1067.052,1203.866c-0.183,0-0.332,0.149-0.332,0.332s0.149,0.332,0.332,0.332s0.331-0.149,0.331-0.332
			S1067.234,1203.866,1067.052,1203.866L1067.052,1203.866z M1068.378,1203.866c-0.183,0-0.331,0.149-0.331,0.332
			s0.148,0.332,0.331,0.332s0.332-0.149,0.332-0.332S1068.561,1203.866,1068.378,1203.866L1068.378,1203.866z M1057.103,1206.52
			h3.979v1.327h-3.979V1206.52z M1055.444,1208.51h7.296c0.37,0,0.664,0.292,0.664,0.663h-8.623
			C1054.781,1208.802,1055.074,1208.51,1055.444,1208.51L1055.444,1208.51z"/>
	</g>
	<path fill="#FEFEFE" d="M1059.162,1224.669c-0.407,0-0.828,0.192-1.31,0.497c-0.484,0.302-1.007,0.734-1.497,1.271
		c-0.979,1.071-1.832,2.574-1.832,4.299v5.4l-2.779,3.193c-0.509,0.584-0.789,1.332-0.789,2.107v1.073
		c0,0.197,0.16,0.357,0.356,0.357h3.434c0.161,0.273,0.396,0.493,0.696,0.609c-0.117,0.19-0.204,0.401-0.204,0.639
		c0,0.687,0.562,1.249,1.249,1.249h0.199c0.212,2.17,2.278,3.508,2.278,3.508l0.198,0.134l0.198-0.134c0,0,2.066-1.338,2.278-3.508
		h0.199c0.687,0,1.249-0.562,1.249-1.249c0-0.237-0.086-0.448-0.204-0.639c0.301-0.116,0.535-0.336,0.696-0.609h3.433
		c0.197,0,0.357-0.16,0.357-0.357v-1.073c0-0.775-0.28-1.523-0.789-2.107l-2.779-3.193v-5.4c0-1.725-0.853-3.228-1.833-4.299
		c-0.489-0.537-1.012-0.97-1.496-1.271C1059.99,1224.861,1059.569,1224.669,1059.162,1224.669L1059.162,1224.669z
		 M1059.162,1225.383c0.128,0,0.51,0.12,0.932,0.385c0.419,0.267,0.899,0.66,1.348,1.149c0.893,0.979,1.646,2.331,1.646,3.819v5.532
		c0,0.03,0.005,0.06,0.012,0.089c-0.007,0.029-0.012,0.059-0.012,0.088c0,0.193,0.153,0.351,0.347,0.356l2.608,2.996
		c0.396,0.455,0.613,1.037,0.613,1.64v0.717h-2.854c0-0.013-0.002-0.023-0.002-0.035c-0.02-0.183-0.172-0.322-0.354-0.322
		c-0.194,0-0.353,0.155-0.357,0.351c0,0,0,0.004,0,0.007c0,0.398-0.314,0.714-0.714,0.714h-0.535c-0.022,0-0.047,0.003-0.07,0.008
		c-0.024,0.006-0.047,0.013-0.068,0.021c-0.044,0.02-0.083,0.047-0.116,0.081c-0.016,0.018-0.03,0.037-0.043,0.057
		c-0.013,0.021-0.023,0.041-0.03,0.065c-0.029,0.078-0.031,0.165-0.002,0.243c0.003,0.012,0.009,0.022,0.013,0.034
		c0.036,0.075,0.099,0.137,0.174,0.171c0.023,0.01,0.046,0.019,0.068,0.023c0.012,0.002,0.024,0.005,0.035,0.006
		c0.014,0.002,0.026,0.004,0.04,0.004c0.3,0,0.535,0.234,0.535,0.534s-0.235,0.535-0.535,0.535h-5.352
		c-0.3,0-0.535-0.235-0.535-0.535s0.235-0.534,0.535-0.534c0.036,0,0.07-0.008,0.105-0.018c0.021-0.009,0.045-0.019,0.065-0.029
		c0.052-0.028,0.095-0.07,0.127-0.121c0.006-0.012,0.012-0.021,0.017-0.032c0.006-0.011,0.01-0.021,0.015-0.033
		c0.017-0.044,0.024-0.092,0.021-0.14c0-0.012-0.001-0.023-0.003-0.034c-0.005-0.036-0.016-0.072-0.03-0.104
		c-0.006-0.011-0.011-0.021-0.017-0.03c-0.008-0.012-0.014-0.021-0.021-0.029c-0.007-0.01-0.015-0.02-0.022-0.028
		c-0.017-0.018-0.035-0.034-0.053-0.049c-0.01-0.005-0.021-0.013-0.031-0.018c-0.03-0.019-0.064-0.033-0.099-0.039
		c-0.012-0.004-0.024-0.006-0.035-0.007c-0.014-0.002-0.026-0.003-0.04-0.003h-0.535c-0.399,0-0.713-0.313-0.714-0.713v-0.001
		c0-0.013-0.002-0.023-0.002-0.035c-0.02-0.183-0.172-0.322-0.354-0.322c-0.194,0-0.354,0.155-0.357,0.351c0,0,0,0.004,0,0.007
		h-2.854v-0.717c0-0.603,0.217-1.185,0.613-1.64l2.609-2.996c0.192-0.007,0.346-0.164,0.346-0.356c0-0.029-0.005-0.059-0.012-0.088
		c0.007-0.028,0.012-0.058,0.012-0.087v-5.534c0-1.488,0.753-2.84,1.646-3.819c0.448-0.489,0.929-0.883,1.348-1.149
		C1058.652,1225.503,1059.034,1225.383,1059.162,1225.383L1059.162,1225.383z M1056.308,1229.309c-0.196,0-0.356,0.159-0.356,0.356
		s0.16,0.357,0.356,0.357s0.356-0.16,0.356-0.357S1056.504,1229.309,1056.308,1229.309L1056.308,1229.309z M1057.735,1229.309
		c-0.197,0-0.357,0.159-0.357,0.356s0.16,0.357,0.357,0.357c0.196,0,0.356-0.16,0.356-0.357S1057.932,1229.309,1057.735,1229.309
		L1057.735,1229.309z M1059.162,1229.309c-0.196,0-0.356,0.159-0.356,0.356s0.16,0.357,0.356,0.357s0.356-0.16,0.356-0.357
		S1059.358,1229.309,1059.162,1229.309L1059.162,1229.309z M1060.59,1229.309c-0.197,0-0.357,0.159-0.357,0.356
		s0.16,0.357,0.357,0.357c0.196,0,0.356-0.16,0.356-0.357S1060.786,1229.309,1060.59,1229.309L1060.59,1229.309z M1062.018,1229.309
		c-0.197,0-0.357,0.159-0.357,0.356s0.16,0.357,0.357,0.357c0.195,0,0.355-0.16,0.355-0.357S1062.213,1229.309,1062.018,1229.309
		L1062.018,1229.309z M1059.162,1232.163c-1.375,0-2.498,1.122-2.498,2.497c0,1.376,1.123,2.499,2.498,2.499
		s2.498-1.123,2.498-2.499C1061.66,1233.285,1060.537,1232.163,1059.162,1232.163L1059.162,1232.163z M1059.162,1232.877
		c0.99,0,1.784,0.794,1.784,1.783c0,0.99-0.794,1.785-1.784,1.785s-1.784-0.795-1.784-1.785
		C1057.378,1233.671,1058.172,1232.877,1059.162,1232.877L1059.162,1232.877z M1054.881,1237.516c-0.197,0-0.357,0.16-0.357,0.356
		s0.16,0.356,0.357,0.356c0.195,0,0.356-0.16,0.356-0.356S1055.076,1237.516,1054.881,1237.516L1054.881,1237.516z
		 M1063.444,1237.516c-0.196,0-0.357,0.16-0.357,0.356s0.161,0.356,0.357,0.356s0.356-0.16,0.356-0.356
		S1063.641,1237.516,1063.444,1237.516L1063.444,1237.516z M1054.881,1238.942c-0.197,0-0.357,0.16-0.357,0.357
		c0,0.196,0.16,0.356,0.357,0.356c0.195,0,0.356-0.16,0.356-0.356C1055.237,1239.103,1055.076,1238.942,1054.881,1238.942
		L1054.881,1238.942z M1063.444,1238.942c-0.196,0-0.357,0.16-0.357,0.357c0,0.196,0.161,0.356,0.357,0.356s0.356-0.16,0.356-0.356
		C1063.801,1239.103,1063.641,1238.942,1063.444,1238.942L1063.444,1238.942z M1054.881,1240.37c-0.197,0-0.357,0.16-0.357,0.357
		c0,0.195,0.16,0.355,0.357,0.355c0.195,0,0.356-0.16,0.356-0.355C1055.237,1240.53,1055.076,1240.37,1054.881,1240.37
		L1054.881,1240.37z M1063.444,1240.37c-0.196,0-0.357,0.16-0.357,0.357c0,0.195,0.161,0.355,0.357,0.355s0.356-0.16,0.356-0.355
		C1063.801,1240.53,1063.641,1240.37,1063.444,1240.37L1063.444,1240.37z M1057.735,1242.868c-0.197,0-0.357,0.159-0.357,0.356
		c0,0.196,0.16,0.357,0.357,0.357c0.196,0,0.356-0.161,0.356-0.357C1058.092,1243.027,1057.932,1242.868,1057.735,1242.868
		L1057.735,1242.868z M1059.162,1242.868c-0.196,0-0.356,0.159-0.356,0.356c0,0.196,0.16,0.357,0.356,0.357s0.356-0.161,0.356-0.357
		C1059.519,1243.027,1059.358,1242.868,1059.162,1242.868L1059.162,1242.868z M1060.59,1242.868c-0.197,0-0.357,0.159-0.357,0.356
		c0,0.196,0.16,0.357,0.357,0.357c0.196,0,0.356-0.161,0.356-0.357C1060.946,1243.027,1060.786,1242.868,1060.59,1242.868
		L1060.59,1242.868z M1057.4,1245.365h1.098c0.155,0.694,0.664,1.546,0.664,1.546s0.509-0.852,0.665-1.546h1.097
		c-0.183,1.513-1.463,2.509-1.762,2.73C1058.863,1247.874,1057.583,1246.878,1057.4,1245.365L1057.4,1245.365z"/>
	<g>
		<path fill="#FEFEFE" d="M1062.562,1263.174c-0.561,0-1.017,0.456-1.017,1.017c0,0.441,0.284,0.814,0.677,0.954v1.757
			c0,0.186-0.151,0.338-0.339,0.338h-2.761c-0.699,0-1.385,0.243-1.928,0.687l-0.368,0.3l-0.765-0.401
			c-0.36-0.189-0.798-0.145-1.113,0.113l-5.141,4.188c-0.305,0.247-0.439,0.653-0.344,1.033l0.221,0.886l-0.39,0.316
			c-0.396,0.323-0.625,0.803-0.625,1.313v2.471c-0.393,0.14-0.677,0.511-0.677,0.952v2.032c0,0.561,0.456,1.017,1.017,1.017h19.649
			c0.561,0,1.017-0.456,1.017-1.017v-2.032c0-0.444-0.288-0.817-0.684-0.956c0-0.012,0.007-0.021,0.007-0.033v-12.964
			c0.393-0.14,0.677-0.513,0.677-0.954c0-0.561-0.456-1.017-1.017-1.017H1062.562z M1062.562,1263.853h6.098
			c0.188,0,0.34,0.151,0.34,0.338c0,0.188-0.152,0.339-0.34,0.339h-6.098c-0.188,0-0.34-0.151-0.34-0.339
			C1062.222,1264.004,1062.374,1263.853,1062.562,1263.853L1062.562,1263.853z M1062.9,1265.206h5.42v2.033h-1.693
			c-0.188,0-0.34,0.152-0.34,0.339c0,0.188,0.152,0.34,0.34,0.34h1.693v7.452h-6.438c-0.187,0-0.338,0.151-0.338,0.339
			s0.151,0.34,0.338,0.34h6.438v2.032h-18.972v-2.032h5.759c0.188,0,0.339-0.152,0.339-0.34s-0.151-0.339-0.339-0.339h-5.706
			c0.059-0.187,0.166-0.355,0.322-0.482l7.9-6.437c0.421-0.345,0.953-0.533,1.498-0.533h2.761c0.561,0,1.018-0.457,1.018-1.017
			V1265.206z M1064.594,1267.239c-0.188,0-0.339,0.152-0.339,0.339c0,0.188,0.151,0.34,0.339,0.34h0.677
			c0.188,0,0.34-0.152,0.34-0.34c0-0.187-0.152-0.339-0.34-0.339H1064.594z M1055.556,1268.388c0.064-0.007,0.131,0.006,0.191,0.037
			l0.508,0.267l-5.99,4.88l-0.145-0.576c-0.033-0.127,0.014-0.262,0.115-0.344l5.141-4.188
			C1055.429,1268.419,1055.491,1268.395,1055.556,1268.388L1055.556,1268.388z M1063.577,1269.271c-1.121,0-2.032,0.912-2.032,2.033
			c0,0.184,0.023,0.36,0.07,0.525l-2.188,2.188c-0.708,0.044-1.271,0.63-1.271,1.352c0,0.749,0.606,1.355,1.356,1.355
			c0.721,0,1.307-0.562,1.352-1.271l2.188-2.188c0.166,0.047,0.342,0.07,0.524,0.07c1.121,0,2.033-0.91,2.033-2.032
			C1065.61,1270.184,1064.698,1269.271,1063.577,1269.271L1063.577,1269.271z M1063.577,1269.95c0.75,0,1.355,0.606,1.355,1.354
			c0,0.722-0.562,1.309-1.27,1.352l0.517-0.518c0.397-0.396,0.397-1.04,0-1.437c-0.396-0.396-1.044-0.396-1.437,0l-0.518,0.519
			C1062.27,1270.513,1062.856,1269.95,1063.577,1269.95L1063.577,1269.95z M1063.462,1271.082c0.086,0,0.174,0.034,0.237,0.101
			c0.133,0.133,0.133,0.346,0,0.479l-0.81,0.81l-0.488,0.49l-1.724,1.722c-0.115-0.196-0.281-0.361-0.478-0.477l1.723-1.722
			l0.489-0.492l0.81-0.81C1063.285,1271.116,1063.374,1271.082,1063.462,1271.082L1063.462,1271.082z M1059.513,1274.692
			c0.06,0,0.121,0.007,0.175,0.024c0.23,0.063,0.414,0.247,0.479,0.478c0.017,0.054,0.023,0.115,0.023,0.176
			c0,0.373-0.306,0.679-0.677,0.679c-0.374,0-0.679-0.306-0.679-0.679C1058.834,1274.998,1059.139,1274.692,1059.513,1274.692
			L1059.513,1274.692z M1056.463,1275.37c-0.187,0-0.339,0.151-0.339,0.339s0.152,0.34,0.339,0.34h0.678
			c0.187,0,0.339-0.152,0.339-0.34s-0.152-0.339-0.339-0.339H1056.463z M1049.01,1278.758h19.649c0.188,0,0.34,0.152,0.34,0.34
			v2.032c0,0.187-0.152,0.338-0.34,0.338h-19.649c-0.188,0-0.34-0.151-0.34-0.338v-2.032
			C1048.67,1278.91,1048.822,1278.758,1049.01,1278.758L1049.01,1278.758z M1049.349,1279.436c-0.188,0-0.339,0.151-0.339,0.339
			v0.678c0,0.187,0.151,0.339,0.339,0.339s0.338-0.152,0.338-0.339v-0.678C1049.687,1279.587,1049.536,1279.436,1049.349,1279.436
			L1049.349,1279.436z M1051.042,1279.436c-0.188,0-0.339,0.151-0.339,0.339v0.678c0,0.187,0.151,0.339,0.339,0.339
			s0.34-0.152,0.34-0.339v-0.678C1051.382,1279.587,1051.229,1279.436,1051.042,1279.436L1051.042,1279.436z M1052.735,1279.436
			c-0.188,0-0.338,0.151-0.338,0.339v0.678c0,0.187,0.15,0.339,0.338,0.339c0.189,0,0.34-0.152,0.34-0.339v-0.678
			C1053.075,1279.587,1052.925,1279.436,1052.735,1279.436L1052.735,1279.436z M1054.431,1279.436c-0.188,0-0.34,0.151-0.34,0.339
			v0.678c0,0.187,0.152,0.339,0.34,0.339s0.338-0.152,0.338-0.339v-0.678C1054.769,1279.587,1054.618,1279.436,1054.431,1279.436
			L1054.431,1279.436z M1056.124,1279.436c-0.188,0-0.34,0.151-0.34,0.339v0.678c0,0.187,0.152,0.339,0.34,0.339
			s0.339-0.152,0.339-0.339v-0.678C1056.463,1279.587,1056.312,1279.436,1056.124,1279.436L1056.124,1279.436z M1057.817,1279.436
			c-0.188,0-0.338,0.151-0.338,0.339v0.678c0,0.187,0.15,0.339,0.338,0.339c0.188,0,0.339-0.152,0.339-0.339v-0.678
			C1058.156,1279.587,1058.006,1279.436,1057.817,1279.436L1057.817,1279.436z M1059.513,1279.436c-0.188,0-0.34,0.151-0.34,0.339
			v0.678c0,0.187,0.152,0.339,0.34,0.339c0.187,0,0.338-0.152,0.338-0.339v-0.678
			C1059.851,1279.587,1059.699,1279.436,1059.513,1279.436L1059.513,1279.436z M1061.206,1279.436c-0.188,0-0.34,0.151-0.34,0.339
			v0.678c0,0.187,0.152,0.339,0.34,0.339c0.187,0,0.339-0.152,0.339-0.339v-0.678
			C1061.545,1279.587,1061.393,1279.436,1061.206,1279.436L1061.206,1279.436z M1062.9,1279.436c-0.188,0-0.339,0.151-0.339,0.339
			v0.678c0,0.187,0.151,0.339,0.339,0.339s0.338-0.152,0.338-0.339v-0.678C1063.238,1279.587,1063.088,1279.436,1062.9,1279.436
			L1062.9,1279.436z M1064.594,1279.436c-0.188,0-0.339,0.151-0.339,0.339v0.678c0,0.187,0.151,0.339,0.339,0.339
			s0.339-0.152,0.339-0.339v-0.678C1064.933,1279.587,1064.781,1279.436,1064.594,1279.436L1064.594,1279.436z M1066.287,1279.436
			c-0.187,0-0.338,0.151-0.338,0.339v0.678c0,0.187,0.151,0.339,0.338,0.339c0.188,0,0.34-0.152,0.34-0.339v-0.678
			C1066.627,1279.587,1066.475,1279.436,1066.287,1279.436L1066.287,1279.436z M1067.982,1279.436c-0.188,0-0.34,0.151-0.34,0.339
			v0.678c0,0.187,0.152,0.339,0.34,0.339c0.187,0,0.338-0.152,0.338-0.339v-0.678
			C1068.32,1279.587,1068.169,1279.436,1067.982,1279.436L1067.982,1279.436z"/>
	</g>
	<g>
		<path fill="#FEFEFE" d="M1068.172,1318.722c1.17,0,2.122-0.951,2.122-2.121s-0.952-2.123-2.122-2.123h-1.273v-14.854
			c0-0.701-0.571-1.273-1.273-1.273h-13.582c-0.7,0-1.272,0.572-1.272,1.273v14.854h-1.273c-1.17,0-2.122,0.953-2.122,2.123
			s0.952,2.121,2.122,2.121H1068.172z M1049.497,1317.874c-0.702,0-1.273-0.572-1.273-1.273c0-0.702,0.571-1.273,1.273-1.273h1.273
			v2.547H1049.497L1049.497,1317.874z M1051.619,1299.623c0-0.233,0.192-0.425,0.424-0.425h7.216v18.676h-7.64V1299.623z
			 M1060.107,1299.198h5.518c0.233,0,0.425,0.191,0.425,0.425v18.251h-1.697v-14.006c0-0.234-0.191-0.426-0.426-0.426
			c-0.232,0-0.424,0.191-0.424,0.426v14.006h-0.854c0-0.234-0.189-0.425-0.425-0.425h-0.851c-0.233-0.001-0.423,0.188-0.423,0.425
			h-0.843V1299.198z M1066.898,1315.327h1.273c0.702,0,1.273,0.571,1.273,1.273c0,0.701-0.571,1.273-1.273,1.273h-1.273V1315.327z
			 M1055.015,1317.024c0.233,0,0.424-0.191,0.424-0.424v-4.67c0-0.231-0.19-0.423-0.424-0.423c-0.234,0-0.425,0.191-0.425,0.423
			v4.67C1054.59,1316.833,1054.78,1317.024,1055.015,1317.024L1055.015,1317.024z M1056.712,1317.024
			c0.233,0,0.425-0.191,0.425-0.424v-3.396c0-0.233-0.191-0.424-0.425-0.424s-0.425,0.19-0.425,0.424v3.396
			C1056.287,1316.833,1056.479,1317.024,1056.712,1317.024L1056.712,1317.024z M1062.224,1316.176
			c0.237,0.001,0.427-0.189,0.427-0.425c0-0.232-0.189-0.424-0.427-0.424h-0.848c-0.234,0-0.423,0.188-0.424,0.424
			c0,0.233,0.188,0.425,0.424,0.425H1062.224L1062.224,1316.176z M1062.227,1314.055c0.235,0.001,0.424-0.19,0.426-0.426
			c0-0.233-0.19-0.424-0.425-0.424h-0.848c-0.236,0-0.425,0.188-0.425,0.424c-0.002,0.234,0.187,0.426,0.423,0.426H1062.227
			L1062.227,1314.055z M1062.228,1311.931c0.236,0.002,0.425-0.188,0.425-0.423s-0.188-0.426-0.423-0.426h-0.849
			c-0.235,0-0.426,0.19-0.426,0.426c0,0.232,0.188,0.423,0.425,0.423H1062.228L1062.228,1311.931z M1056.712,1311.931
			c0.233,0,0.425-0.19,0.425-0.423v-1.698c0-0.234-0.191-0.425-0.425-0.425s-0.425,0.19-0.425,0.425v1.698
			C1056.287,1311.74,1056.479,1311.931,1056.712,1311.931L1056.712,1311.931z M1062.229,1309.385
			c0.235,0.001,0.425-0.189,0.425-0.423c0.002-0.235-0.188-0.426-0.423-0.426h-0.849c-0.235,0-0.425,0.189-0.427,0.426
			c0,0.232,0.191,0.423,0.425,0.423H1062.229L1062.229,1309.385z M1062.231,1307.263c0.235,0.002,0.425-0.188,0.425-0.425
			c0.002-0.232-0.188-0.423-0.422-0.423h-0.851c-0.235,0-0.425,0.188-0.426,0.423c0,0.234,0.19,0.425,0.425,0.425H1062.231
			L1062.231,1307.263z M1055.863,1306.838c0.938,0,1.698-0.761,1.698-1.696c0-0.392-0.134-0.765-0.374-1.062
			c0.24-0.298,0.374-0.67,0.374-1.062c0-0.937-0.761-1.696-1.698-1.696c-0.936,0-1.697,0.76-1.697,1.696
			c0,0.392,0.134,0.764,0.372,1.062c-0.238,0.297-0.372,0.67-0.372,1.062C1054.166,1306.077,1054.928,1306.838,1055.863,1306.838
			L1055.863,1306.838z M1055.863,1305.989c-0.467,0-0.849-0.381-0.849-0.848c0-0.286,0.143-0.551,0.382-0.709
			c0.116-0.078,0.188-0.21,0.188-0.353c0-0.144-0.072-0.273-0.188-0.354c-0.239-0.158-0.382-0.423-0.382-0.708
			c0-0.467,0.382-0.849,0.849-0.849c0.468,0,0.849,0.382,0.849,0.849c0,0.285-0.143,0.55-0.381,0.708
			c-0.118,0.079-0.189,0.21-0.189,0.354c0,0.143,0.071,0.272,0.189,0.353c0.238,0.158,0.381,0.423,0.381,0.709
			C1056.712,1305.608,1056.331,1305.989,1055.863,1305.989L1055.863,1305.989z M1062.235,1305.142
			c0.232,0.001,0.423-0.189,0.423-0.425c0-0.234-0.188-0.425-0.423-0.425h-0.85c-0.235,0-0.424,0.189-0.424,0.425
			c-0.003,0.233,0.188,0.425,0.424,0.425H1062.235L1062.235,1305.142z M1062.236,1303.019c0.233,0.001,0.422-0.189,0.424-0.424
			c0-0.234-0.188-0.425-0.424-0.425h-0.849c-0.235,0-0.424,0.189-0.424,0.425c-0.002,0.233,0.188,0.424,0.424,0.424H1062.236
			L1062.236,1303.019z M1063.927,1302.595c0.234,0,0.426-0.191,0.426-0.425v-1.697c0-0.233-0.191-0.425-0.426-0.425
			c-0.232,0-0.424,0.191-0.424,0.425v1.697C1063.503,1302.403,1063.694,1302.595,1063.927,1302.595L1063.927,1302.595z
			 M1062.236,1300.896c0.236,0,0.424-0.189,0.424-0.424c0.001-0.233-0.186-0.425-0.422-0.425h-0.85
			c-0.234-0.001-0.424,0.188-0.425,0.425c0,0.232,0.19,0.424,0.424,0.424H1062.236L1062.236,1300.896z"/>
	</g>
	<g>
		<path fill="#33CCFF" d="M963.415,1299.487c-0.777,0-1.411,0.633-1.411,1.411v15.996c0,0.778,0.634,1.411,1.411,1.411h25.406
			c0.777,0,1.411-0.633,1.411-1.411v-15.996c0-0.778-0.634-1.411-1.411-1.411H963.415z M963.415,1300.428h25.406
			c0.259,0,0.471,0.211,0.471,0.471v6.116h-26.347v-3.764h21.171c0.261,0,0.471-0.212,0.471-0.471c0-0.26-0.21-0.47-0.471-0.47
			h-21.171v-1.412C962.945,1300.639,963.156,1300.428,963.415,1300.428L963.415,1300.428z M985.998,1302.311
			c-0.261,0-0.47,0.21-0.47,0.47c0,0.259,0.209,0.471,0.47,0.471h1.882c0.261,0,0.471-0.212,0.471-0.471
			c0-0.26-0.21-0.47-0.471-0.47H985.998z M964.356,1304.191c-0.261,0-0.471,0.211-0.471,0.471v0.941c0,0.258,0.21,0.471,0.471,0.471
			s0.47-0.213,0.47-0.471v-0.941C964.826,1304.402,964.617,1304.191,964.356,1304.191L964.356,1304.191z M966.709,1304.191
			c-0.262,0-0.471,0.211-0.471,0.471v0.941c0,0.258,0.209,0.471,0.471,0.471c0.261,0,0.47-0.213,0.47-0.471v-0.941
			C967.179,1304.402,966.97,1304.191,966.709,1304.191L966.709,1304.191z M969.061,1304.191c-0.261,0-0.471,0.211-0.471,0.471v0.941
			c0,0.258,0.21,0.471,0.471,0.471s0.471-0.213,0.471-0.471v-0.941C969.531,1304.402,969.321,1304.191,969.061,1304.191
			L969.061,1304.191z M971.413,1304.191c-0.261,0-0.471,0.211-0.471,0.471v0.941c0,0.258,0.21,0.471,0.471,0.471
			s0.471-0.213,0.471-0.471v-0.941C971.884,1304.402,971.674,1304.191,971.413,1304.191L971.413,1304.191z M973.766,1304.191
			c-0.261,0-0.471,0.211-0.471,0.471v0.941c0,0.258,0.21,0.471,0.471,0.471c0.262,0,0.471-0.213,0.471-0.471v-0.941
			C974.236,1304.402,974.027,1304.191,973.766,1304.191L973.766,1304.191z M976.118,1304.191c-0.261,0-0.471,0.211-0.471,0.471
			v0.941c0,0.258,0.21,0.471,0.471,0.471c0.262,0,0.471-0.213,0.471-0.471v-0.941
			C976.589,1304.402,976.38,1304.191,976.118,1304.191L976.118,1304.191z M978.471,1304.191c-0.261,0-0.471,0.211-0.471,0.471v0.941
			c0,0.258,0.21,0.471,0.471,0.471s0.471-0.213,0.471-0.471v-0.941C978.941,1304.402,978.731,1304.191,978.471,1304.191
			L978.471,1304.191z M980.823,1304.191c-0.261,0-0.471,0.211-0.471,0.471v0.941c0,0.258,0.21,0.471,0.471,0.471
			s0.471-0.213,0.471-0.471v-0.941C981.294,1304.402,981.084,1304.191,980.823,1304.191L980.823,1304.191z M983.176,1304.191
			c-0.261,0-0.471,0.211-0.471,0.471v0.941c0,0.258,0.21,0.471,0.471,0.471s0.47-0.213,0.47-0.471v-0.941
			C983.646,1304.402,983.437,1304.191,983.176,1304.191L983.176,1304.191z M985.528,1304.191c-0.262,0-0.471,0.211-0.471,0.471
			v0.941c0,0.258,0.209,0.471,0.471,0.471c0.261,0,0.47-0.213,0.47-0.471v-0.941
			C985.998,1304.402,985.789,1304.191,985.528,1304.191L985.528,1304.191z M987.88,1304.191c-0.261,0-0.471,0.211-0.471,0.471v0.941
			c0,0.258,0.21,0.471,0.471,0.471s0.471-0.213,0.471-0.471v-0.941C988.351,1304.402,988.141,1304.191,987.88,1304.191
			L987.88,1304.191z M962.945,1307.955h26.347v8.939c0,0.259-0.212,0.471-0.471,0.471h-25.406c-0.259,0-0.47-0.212-0.47-0.471
			V1307.955z M982.234,1310.308c-1.038,0-1.882,0.845-1.882,1.882c0,1.039,0.844,1.882,1.882,1.882c0.434,0,0.848-0.148,1.177-0.413
			c0.329,0.265,0.742,0.413,1.176,0.413c1.038,0,1.882-0.843,1.882-1.882c0-1.037-0.844-1.882-1.882-1.882
			c-0.434,0-0.847,0.149-1.176,0.414C983.082,1310.457,982.668,1310.308,982.234,1310.308L982.234,1310.308z M966.238,1310.778
			c-0.261,0-0.471,0.212-0.471,0.471s0.21,0.47,0.471,0.47h6.586c0.262,0,0.471-0.211,0.471-0.47s-0.209-0.471-0.471-0.471H966.238z
			 M975.647,1310.778c-0.261,0-0.47,0.212-0.47,0.471s0.209,0.47,0.47,0.47h1.883c0.261,0,0.47-0.211,0.47-0.47
			s-0.209-0.471-0.47-0.471H975.647z M982.234,1311.249c0.315,0,0.61,0.158,0.785,0.422c0.173,0.264,0.61,0.264,0.782,0
			c0.175-0.264,0.469-0.422,0.785-0.422c0.519,0,0.941,0.422,0.941,0.94s-0.423,0.941-0.941,0.941c-0.316,0-0.61-0.158-0.785-0.423
			c-0.087-0.13-0.233-0.21-0.391-0.21c-0.158,0-0.306,0.08-0.392,0.21c-0.175,0.265-0.47,0.423-0.785,0.423
			c-0.519,0-0.94-0.423-0.94-0.941S981.716,1311.249,982.234,1311.249L982.234,1311.249z M966.238,1312.66
			c-0.261,0-0.471,0.212-0.471,0.471s0.21,0.471,0.471,0.471h5.175c0.261,0,0.471-0.212,0.471-0.471s-0.21-0.471-0.471-0.471
			H966.238z"/>
	</g>
	<g>
		<path fill="#33CCFF" d="M964.695,1227.399c-0.72,0-1.305,0.585-1.305,1.306v18.265c0,0.721,0.585,1.306,1.305,1.306h23.484
			c0.72,0,1.305-0.585,1.305-1.306v-18.265c0-0.721-0.585-1.306-1.305-1.306H964.695z M964.695,1228.269h23.484
			c0.24,0,0.435,0.196,0.435,0.437v3.913h-24.354v-3.913C964.261,1228.465,964.455,1228.269,964.695,1228.269L964.695,1228.269z
			 M974.697,1229.14c-0.479,0-0.869,0.39-0.869,0.87v0.869c0,0.479,0.391,0.869,0.869,0.869h12.179c0.479,0,0.87-0.39,0.87-0.869
			v-0.869c0-0.48-0.392-0.87-0.87-0.87H974.697z M965.999,1229.573c-0.479,0-0.869,0.39-0.869,0.871c0,0.23,0.092,0.45,0.255,0.615
			c0.163,0.162,0.385,0.255,0.614,0.255c0.23,0,0.452-0.093,0.616-0.255c0.163-0.165,0.255-0.385,0.255-0.615
			c0-0.231-0.092-0.452-0.255-0.615C966.451,1229.666,966.229,1229.573,965.999,1229.573L965.999,1229.573z M968.609,1229.573
			c-0.48,0-0.87,0.39-0.87,0.871c0,0.23,0.092,0.45,0.256,0.615c0.162,0.162,0.384,0.255,0.614,0.255
			c0.229,0,0.451-0.093,0.614-0.255c0.164-0.165,0.256-0.385,0.256-0.615c0-0.231-0.092-0.452-0.256-0.615
			C969.061,1229.666,968.839,1229.573,968.609,1229.573L968.609,1229.573z M971.218,1229.573c-0.479,0-0.868,0.39-0.868,0.871
			c0,0.23,0.091,0.45,0.255,0.615c0.162,0.162,0.383,0.255,0.613,0.255c0.231,0,0.453-0.093,0.616-0.255
			c0.163-0.165,0.255-0.385,0.255-0.615c0-0.231-0.092-0.452-0.255-0.615S971.449,1229.573,971.218,1229.573L971.218,1229.573z
			 M974.697,1230.01h12.179v0.869h-12.179V1230.01z M964.261,1233.488h24.354v13.481c0,0.24-0.194,0.437-0.435,0.437h-23.484
			c-0.24,0-0.435-0.196-0.435-0.437V1233.488z M967.305,1236.086c-0.24,0-0.435,0.196-0.435,0.437c0,0.238,0.194,0.435,0.435,0.435
			h1.739c0.24,0,0.436-0.196,0.436-0.435c0-0.24-0.195-0.437-0.436-0.437H967.305z M970.784,1236.086
			c-0.241,0-0.435,0.196-0.435,0.437c0,0.238,0.193,0.435,0.435,0.435h6.088c0.24,0,0.436-0.196,0.436-0.435
			c0-0.24-0.195-0.437-0.436-0.437H970.784z M979.481,1236.086c-0.24,0-0.434,0.196-0.434,0.437c0,0.238,0.193,0.435,0.434,0.435
			h0.871c0.239,0,0.434-0.196,0.434-0.435c0-0.24-0.194-0.437-0.434-0.437H979.481z M982.091,1236.086
			c-0.24,0-0.434,0.196-0.434,0.437c0,0.238,0.193,0.435,0.434,0.435h0.871c0.239,0,0.434-0.196,0.434-0.435
			c0-0.24-0.194-0.437-0.434-0.437H982.091z M984.701,1236.086c-0.24,0-0.435,0.196-0.435,0.437c0,0.238,0.194,0.435,0.435,0.435
			h0.869c0.24,0,0.436-0.196,0.436-0.435c0-0.24-0.195-0.437-0.436-0.437H984.701z M967.305,1238.696
			c-0.24,0-0.435,0.195-0.435,0.435c0,0.24,0.194,0.436,0.435,0.436h1.739c0.24,0,0.436-0.195,0.436-0.436
			c0-0.239-0.195-0.435-0.436-0.435H967.305z M970.784,1238.696c-0.241,0-0.435,0.195-0.435,0.435c0,0.24,0.193,0.436,0.435,0.436
			h6.088c0.24,0,0.436-0.195,0.436-0.436c0-0.239-0.195-0.435-0.436-0.435H970.784z M982.091,1238.696
			c-0.24,0-0.434,0.195-0.434,0.435c0,0.24,0.193,0.436,0.434,0.436h0.871c0.239,0,0.434-0.195,0.434-0.436
			c0-0.239-0.194-0.435-0.434-0.435H982.091z M984.701,1238.696c-0.24,0-0.435,0.195-0.435,0.435c0,0.24,0.194,0.436,0.435,0.436
			h0.869c0.24,0,0.436-0.195,0.436-0.436c0-0.239-0.195-0.435-0.436-0.435H984.701z M967.305,1241.306
			c-0.24,0-0.435,0.194-0.435,0.435s0.194,0.435,0.435,0.435h1.739c0.24,0,0.436-0.194,0.436-0.435s-0.195-0.435-0.436-0.435
			H967.305z M970.784,1241.306c-0.241,0-0.435,0.194-0.435,0.435s0.193,0.435,0.435,0.435h6.088c0.24,0,0.436-0.194,0.436-0.435
			s-0.195-0.435-0.436-0.435H970.784z M979.481,1241.306c-0.24,0-0.434,0.194-0.434,0.435s0.193,0.435,0.434,0.435h0.871
			c0.239,0,0.434-0.194,0.434-0.435s-0.194-0.435-0.434-0.435H979.481z M982.091,1241.306c-0.24,0-0.434,0.194-0.434,0.435
			s0.193,0.435,0.434,0.435h0.871c0.239,0,0.434-0.194,0.434-0.435s-0.194-0.435-0.434-0.435H982.091z M984.701,1241.306
			c-0.24,0-0.435,0.194-0.435,0.435s0.194,0.435,0.435,0.435h0.869c0.24,0,0.436-0.194,0.436-0.435s-0.195-0.435-0.436-0.435
			H984.701z M965.565,1244.796c-0.24,0-0.436,0.194-0.436,0.435v0.871c0,0.238,0.195,0.434,0.436,0.434
			c0.239,0,0.434-0.195,0.434-0.434v-0.871C965.999,1244.99,965.805,1244.796,965.565,1244.796L965.565,1244.796z M967.739,1244.796
			c-0.24,0-0.435,0.194-0.435,0.435v0.871c0,0.238,0.194,0.434,0.435,0.434s0.435-0.195,0.435-0.434v-0.871
			C968.174,1244.99,967.979,1244.796,967.739,1244.796L967.739,1244.796z M969.914,1244.796c-0.24,0-0.435,0.194-0.435,0.435v0.871
			c0,0.238,0.194,0.434,0.435,0.434s0.436-0.195,0.436-0.434v-0.871C970.35,1244.99,970.154,1244.796,969.914,1244.796
			L969.914,1244.796z M972.089,1244.796c-0.241,0-0.435,0.194-0.435,0.435v0.871c0,0.238,0.193,0.434,0.435,0.434
			c0.24,0,0.434-0.195,0.434-0.434v-0.871C972.522,1244.99,972.329,1244.796,972.089,1244.796L972.089,1244.796z M974.264,1244.796
			c-0.241,0-0.436,0.194-0.436,0.435v0.871c0,0.238,0.194,0.434,0.436,0.434c0.239,0,0.434-0.195,0.434-0.434v-0.871
			C974.697,1244.99,974.503,1244.796,974.264,1244.796L974.264,1244.796z M976.438,1244.796c-0.24,0-0.435,0.194-0.435,0.435v0.871
			c0,0.238,0.194,0.434,0.435,0.434s0.435-0.195,0.435-0.434v-0.871C976.872,1244.99,976.678,1244.796,976.438,1244.796
			L976.438,1244.796z M978.612,1244.796c-0.24,0-0.435,0.194-0.435,0.435v0.871c0,0.238,0.194,0.434,0.435,0.434
			s0.436-0.195,0.436-0.434v-0.871C979.048,1244.99,978.853,1244.796,978.612,1244.796L978.612,1244.796z M980.786,1244.796
			c-0.24,0-0.434,0.194-0.434,0.435v0.871c0,0.238,0.193,0.434,0.434,0.434c0.241,0,0.435-0.195,0.435-0.434v-0.871
			C981.221,1244.99,981.027,1244.796,980.786,1244.796L980.786,1244.796z M982.962,1244.796c-0.241,0-0.436,0.194-0.436,0.435v0.871
			c0,0.238,0.194,0.434,0.436,0.434c0.239,0,0.434-0.195,0.434-0.434v-0.871C983.396,1244.99,983.201,1244.796,982.962,1244.796
			L982.962,1244.796z M985.136,1244.796c-0.24,0-0.435,0.194-0.435,0.435v0.871c0,0.238,0.194,0.434,0.435,0.434
			s0.435-0.195,0.435-0.434v-0.871C985.57,1244.99,985.376,1244.796,985.136,1244.796L985.136,1244.796z M987.311,1244.796
			c-0.24,0-0.435,0.194-0.435,0.435v0.871c0,0.238,0.194,0.434,0.435,0.434c0.239,0,0.436-0.195,0.436-0.434v-0.871
			C987.746,1244.99,987.55,1244.796,987.311,1244.796L987.311,1244.796z"/>
	</g>
	<g>
		<path fill="#33CCFF" d="M964.763,1263.504c-0.706,0-1.248,0.539-1.248,1.247v3.412c0,0.624,0.416,1.123,0.998,1.207
			c1.583,0.293,2.748,1.666,2.748,3.289c0,1.624-1.165,2.996-2.748,3.29c-0.582,0.081-0.998,0.623-0.998,1.206v3.411
			c0,0.707,0.542,1.249,1.248,1.249h24.143c0.705,0,1.247-0.542,1.247-1.249v-3.411c0-0.624-0.415-1.125-0.999-1.206
			c-1.58-0.294-2.746-1.666-2.746-3.29c0-1.623,1.166-2.996,2.746-3.289c0.584-0.124,0.999-0.625,0.999-1.207v-3.412
			c0-0.708-0.542-1.247-1.247-1.247H964.763z M964.763,1264.335h4.58c0,0.25,0.164,0.416,0.416,0.416h0.832
			c0.251,0,0.416-0.166,0.416-0.416h17.898c0.249,0,0.415,0.165,0.415,0.416v3.412c0,0.209-0.125,0.374-0.334,0.418
			c-1.955,0.332-3.411,2.08-3.411,4.078c0,1.999,1.456,3.747,3.411,4.079c0.209,0.044,0.334,0.208,0.334,0.417v3.411
			c0,0.252-0.166,0.417-0.415,0.417h-17.898c0-0.251-0.165-0.417-0.416-0.417h-0.832c-0.252,0-0.416,0.166-0.416,0.417h-4.58
			c-0.25,0-0.416-0.165-0.416-0.417v-3.411c0-0.209,0.125-0.373,0.334-0.417c1.955-0.332,3.412-2.08,3.412-4.079
			c0-1.998-1.457-3.746-3.412-4.078c-0.209-0.044-0.334-0.209-0.334-0.418v-3.412C964.347,1264.5,964.513,1264.335,964.763,1264.335
			L964.763,1264.335z M972.255,1265.167c-0.25,0-0.416,0.166-0.416,0.416v14.153c0,0.25,0.166,0.415,0.416,0.415
			c0.251,0,0.416-0.165,0.416-0.415v-14.153C972.671,1265.333,972.506,1265.167,972.255,1265.167L972.255,1265.167z M969.759,1266
			c-0.252,0-0.416,0.166-0.416,0.415c0,0.252,0.164,0.417,0.416,0.417h0.832c0.251,0,0.416-0.165,0.416-0.417
			c0-0.249-0.165-0.415-0.416-0.415H969.759z M982.293,1267.65c-0.162-0.02-0.32,0.067-0.382,0.223l-4.994,9.572
			c-0.125,0.208-0.043,0.458,0.165,0.542c0.044,0.081,0.085,0.081,0.169,0.081c0.165,0,0.291-0.081,0.375-0.206l4.994-9.573
			c0.084-0.208,0.041-0.459-0.168-0.584C982.401,1267.674,982.347,1267.656,982.293,1267.65L982.293,1267.65z M969.759,1268.081
			c-0.252,0-0.416,0.166-0.416,0.416c0,0.251,0.164,0.416,0.416,0.416h0.832c0.251,0,0.416-0.165,0.416-0.416
			c0-0.25-0.165-0.416-0.416-0.416H969.759z M977.251,1268.081c-0.709,0-1.25,0.542-1.25,1.248v1.248c0,0.709,0.541,1.25,1.25,1.25
			h0.415c0.708,0,1.249-0.541,1.249-1.25v-1.248c0-0.706-0.541-1.248-1.249-1.248H977.251z M977.251,1268.913h0.415
			c0.25,0,0.417,0.166,0.417,0.416v1.248c0,0.252-0.167,0.418-0.417,0.418h-0.415c-0.252,0-0.418-0.166-0.418-0.418v-1.248
			C976.833,1269.079,976.999,1268.913,977.251,1268.913L977.251,1268.913z M969.759,1270.162c-0.252,0-0.416,0.166-0.416,0.415
			c0,0.252,0.164,0.418,0.416,0.418h0.832c0.251,0,0.416-0.166,0.416-0.418c0-0.249-0.165-0.415-0.416-0.415H969.759z
			 M969.759,1272.243c-0.252,0-0.416,0.166-0.416,0.416c0,0.251,0.164,0.416,0.416,0.416h0.832c0.251,0,0.416-0.165,0.416-0.416
			c0-0.25-0.165-0.416-0.416-0.416H969.759z M981.828,1273.491c-0.707,0-1.249,0.542-1.249,1.251v1.247
			c0,0.707,0.542,1.247,1.249,1.247h0.417c0.707,0,1.248-0.54,1.248-1.247v-1.247c0-0.709-0.541-1.251-1.248-1.251H981.828z
			 M969.759,1274.323c-0.252,0-0.416,0.167-0.416,0.419c0,0.249,0.164,0.415,0.416,0.415h0.832c0.251,0,0.416-0.166,0.416-0.415
			c0-0.252-0.165-0.419-0.416-0.419H969.759z M981.828,1274.323h0.417c0.251,0,0.416,0.167,0.416,0.419v1.247
			c0,0.251-0.165,0.417-0.416,0.417h-0.417c-0.25,0-0.415-0.166-0.415-0.417v-1.247
			C981.413,1274.49,981.578,1274.323,981.828,1274.323L981.828,1274.323z M969.759,1276.406c-0.252,0-0.416,0.164-0.416,0.415
			s0.164,0.415,0.416,0.415h0.832c0.251,0,0.416-0.164,0.416-0.415s-0.165-0.415-0.416-0.415H969.759z M969.759,1278.486
			c-0.252,0-0.416,0.166-0.416,0.418c0,0.249,0.164,0.415,0.416,0.415h0.832c0.251,0,0.416-0.166,0.416-0.415
			c0-0.252-0.165-0.418-0.416-0.418H969.759z"/>
	</g>
	<g>
		<path fill="#33CCFF" d="M974.562,1189.859v1.945h-3.891c-0.891,0-1.62,0.729-1.62,1.621v16.857c0,0.892,0.729,1.621,1.62,1.621
			h12.319c0.892,0,1.621-0.729,1.621-1.621v-16.857c0-0.892-0.729-1.621-1.621-1.621h-3.89v-1.945H974.562z M975.21,1190.509h3.242
			v3.565h-3.242V1190.509z M976.831,1191.156c-0.358,0-0.648,0.29-0.648,0.648s0.29,0.648,0.648,0.648s0.648-0.29,0.648-0.648
			S977.189,1191.156,976.831,1191.156L976.831,1191.156z M970.671,1192.453h3.891v1.297h-0.486c-0.268,0-0.486,0.218-0.486,0.486
			s0.219,0.486,0.486,0.486h5.512c0.268,0,0.485-0.218,0.485-0.486s-0.218-0.486-0.485-0.486h-0.486v-1.297h3.89
			c0.541,0,0.973,0.432,0.973,0.973v16.857c0,0.54-0.432,0.972-0.973,0.972h-12.319c-0.54,0-0.972-0.432-0.972-0.972v-16.857
			C969.699,1192.885,970.131,1192.453,970.671,1192.453L970.671,1192.453z M976.831,1196.992c-1.25,0-2.27,1.019-2.27,2.269
			c0,0.78,0.399,1.472,1.002,1.879c-1.158,0.495-1.975,1.646-1.975,2.984h0.649c0-1.437,1.157-2.594,2.593-2.594
			s2.593,1.157,2.593,2.594h0.648c0-1.338-0.815-2.489-1.974-2.984c0.603-0.407,1.002-1.099,1.002-1.879
			C979.101,1198.011,978.081,1196.992,976.831,1196.992L976.831,1196.992z M976.831,1197.64c0.898,0,1.621,0.722,1.621,1.621
			s-0.723,1.621-1.621,1.621c-0.899,0-1.621-0.722-1.621-1.621S975.932,1197.64,976.831,1197.64L976.831,1197.64z M973.589,1206.069
			v0.647h6.483v-0.647H973.589z M973.589,1207.689v0.648h5.835v-0.648H973.589z"/>
	</g>
	<path fill="#33CCFF" d="M970.387,1152.534c-0.975,0-1.788,0.695-1.976,1.614h-0.444c-0.666,0-1.21,0.543-1.21,1.209v2.42
		c0,0.525,0.339,0.969,0.806,1.137v0.43c0,0.432,0.24,0.818,0.627,1.014c0.111,0.055,0.181,0.166,0.181,0.291v14.07
		c0,0.666,0.543,1.21,1.21,1.21h13.714c0.667,0,1.21-0.544,1.21-1.21v-14.07c0-0.125,0.069-0.236,0.182-0.291
		c0.386-0.193,0.626-0.582,0.626-1.014v-0.43c0.468-0.168,0.806-0.611,0.806-1.137v-2.42c0-0.666-0.544-1.209-1.21-1.209h-0.444
		c-0.188-0.919-1.001-1.614-1.976-1.614H970.387z M970.387,1153.341h12.101c0.525,0,0.975,0.338,1.141,0.808h-14.382
		C969.412,1153.679,969.861,1153.341,970.387,1153.341L970.387,1153.341z M967.967,1154.954h16.94c0.223,0,0.404,0.182,0.404,0.403
		v2.42c0,0.223-0.182,0.404-0.404,0.404h-16.94c-0.223,0-0.404-0.182-0.404-0.404v-2.42
		C967.562,1155.136,967.744,1154.954,967.967,1154.954L967.967,1154.954z M968.37,1155.761c-0.224,0-0.403,0.181-0.403,0.403v0.807
		c0,0.224,0.18,0.404,0.403,0.404s0.402-0.181,0.402-0.404v-0.807C968.772,1155.941,968.594,1155.761,968.37,1155.761
		L968.37,1155.761z M970.387,1155.761c-0.224,0-0.404,0.181-0.404,0.403v0.807c0,0.224,0.181,0.404,0.404,0.404
		c0.223,0,0.403-0.181,0.403-0.404v-0.807C970.79,1155.941,970.609,1155.761,970.387,1155.761L970.387,1155.761z M972.404,1155.761
		c-0.224,0-0.404,0.181-0.404,0.403v0.807c0,0.224,0.181,0.404,0.404,0.404c0.223,0,0.402-0.181,0.402-0.404v-0.807
		C972.807,1155.941,972.627,1155.761,972.404,1155.761L972.404,1155.761z M974.42,1155.761c-0.223,0-0.403,0.181-0.403,0.403v0.807
		c0,0.224,0.181,0.404,0.403,0.404c0.224,0,0.404-0.181,0.404-0.404v-0.807C974.824,1155.941,974.644,1155.761,974.42,1155.761
		L974.42,1155.761z M976.438,1155.761c-0.224,0-0.403,0.181-0.403,0.403v0.807c0,0.224,0.18,0.404,0.403,0.404
		c0.223,0,0.402-0.181,0.402-0.404v-0.807C976.84,1155.941,976.66,1155.761,976.438,1155.761L976.438,1155.761z M978.454,1155.761
		c-0.224,0-0.404,0.181-0.404,0.403v0.807c0,0.224,0.181,0.404,0.404,0.404c0.223,0,0.403-0.181,0.403-0.404v-0.807
		C978.857,1155.941,978.677,1155.761,978.454,1155.761L978.454,1155.761z M980.47,1155.761c-0.223,0-0.402,0.181-0.402,0.403v0.807
		c0,0.224,0.18,0.404,0.402,0.404c0.224,0,0.404-0.181,0.404-0.404v-0.807C980.874,1155.941,980.693,1155.761,980.47,1155.761
		L980.47,1155.761z M982.487,1155.761c-0.224,0-0.403,0.181-0.403,0.403v0.807c0,0.224,0.18,0.404,0.403,0.404
		s0.403-0.181,0.403-0.404v-0.807C982.891,1155.941,982.711,1155.761,982.487,1155.761L982.487,1155.761z M984.504,1155.761
		c-0.224,0-0.402,0.181-0.402,0.403v0.807c0,0.224,0.179,0.404,0.402,0.404s0.403-0.181,0.403-0.404v-0.807
		C984.907,1155.941,984.728,1155.761,984.504,1155.761L984.504,1155.761z M968.37,1158.988h16.134v0.355
		c0,0.125-0.069,0.236-0.18,0.291c-0.386,0.193-0.627,0.582-0.627,1.014v14.07c0,0.223-0.182,0.403-0.403,0.403H969.58
		c-0.223,0-0.403-0.181-0.403-0.403v-14.07c0-0.016-0.007-0.031-0.007-0.047h10.09c0.224,0,0.404-0.181,0.404-0.404
		c0-0.223-0.181-0.402-0.404-0.402h-10.478c-0.07-0.06-0.146-0.117-0.231-0.16c-0.111-0.055-0.181-0.166-0.181-0.291V1158.988z
		 M980.874,1159.795c-0.224,0-0.404,0.18-0.404,0.402c0,0.224,0.181,0.404,0.404,0.404h1.613c0.224,0,0.403-0.181,0.403-0.404
		c0-0.223-0.18-0.402-0.403-0.402H980.874z M971.193,1162.214c-0.223,0-0.403,0.181-0.403,0.404v10.487
		c0,0.223,0.181,0.403,0.403,0.403h10.486c0.224,0,0.404-0.181,0.404-0.403v-10.487c0-0.224-0.181-0.404-0.404-0.404H971.193z
		 M971.597,1163.021h9.681v9.68h-9.681V1163.021z M974.42,1164.656c-0.223,0-0.403,0.181-0.403,0.403v4.034
		c0,0.222,0.181,0.403,0.403,0.403c0.224,0,0.404-0.18,0.404-0.403v-1.21h0.639l1.613,1.613l-0.925,0.925
		c-0.157,0.158-0.157,0.413,0,0.57c0.079,0.079,0.182,0.117,0.286,0.117c0.104,0,0.205-0.038,0.285-0.117l0.925-0.925l0.924,0.925
		c0.08,0.079,0.182,0.117,0.286,0.117c0.104,0,0.205-0.038,0.285-0.117c0.157-0.157,0.157-0.412,0-0.57l-0.925-0.925l0.925-0.925
		c0.157-0.158,0.157-0.413,0-0.57s-0.413-0.157-0.571,0l-0.924,0.925l-1.141-1.141c0.433-0.185,0.737-0.613,0.737-1.112v-0.808
		c0-0.666-0.545-1.21-1.21-1.21H974.42z M974.824,1165.464h1.21c0.222,0,0.403,0.181,0.403,0.402v0.808
		c0,0.222-0.182,0.402-0.403,0.402h-1.21V1165.464z"/>
	<g>
		<path fill="#33CCFF" d="M966.424,1121.181c-0.71,0-1.292,0.581-1.292,1.292v14.213c0,0.709,0.582,1.291,1.292,1.291h20.027
			c0.71,0,1.292-0.582,1.292-1.291v-14.213c0-0.711-0.582-1.292-1.292-1.292H966.424z M966.424,1121.827h20.027
			c0.36,0,0.646,0.284,0.646,0.646v14.213c0,0.36-0.285,0.645-0.646,0.645h-20.027c-0.36,0-0.646-0.284-0.646-0.645v-14.213
			C965.778,1122.111,966.063,1121.827,966.424,1121.827L966.424,1121.827z M970.946,1126.349c-1.066,0-1.938,0.872-1.938,1.938
			c0,0.639,0.316,1.209,0.798,1.562c-0.853,0.422-1.443,1.3-1.443,2.313h0.646c0-1.073,0.865-1.938,1.938-1.938
			c1.074,0,1.938,0.865,1.938,1.938h0.646c0-1.014-0.591-1.892-1.443-2.313c0.482-0.354,0.798-0.924,0.798-1.562
			C972.885,1127.221,972.013,1126.349,970.946,1126.349L970.946,1126.349z M970.946,1126.994c0.718,0,1.293,0.574,1.293,1.293
			c0,0.717-0.575,1.291-1.293,1.291s-1.291-0.574-1.291-1.291C969.655,1127.568,970.229,1126.994,970.946,1126.994L970.946,1126.994
			z M976.114,1126.994v0.646h8.398v-0.646H976.114z M976.114,1128.933v0.646h7.105v-0.646H976.114z M976.114,1130.871v0.646h8.398
			v-0.646H976.114z M968.039,1135.717c-0.178,0-0.322,0.145-0.322,0.322s0.145,0.323,0.322,0.323s0.323-0.146,0.323-0.323
			S968.217,1135.717,968.039,1135.717L968.039,1135.717z M969.331,1135.717c-0.178,0-0.323,0.145-0.323,0.322
			s0.146,0.323,0.323,0.323s0.324-0.146,0.324-0.323S969.509,1135.717,969.331,1135.717L969.331,1135.717z M970.623,1135.717
			c-0.178,0-0.322,0.145-0.322,0.322s0.145,0.323,0.322,0.323s0.323-0.146,0.323-0.323S970.801,1135.717,970.623,1135.717
			L970.623,1135.717z M971.915,1135.717c-0.178,0-0.323,0.145-0.323,0.322s0.146,0.323,0.323,0.323c0.179,0,0.324-0.146,0.324-0.323
			S972.094,1135.717,971.915,1135.717L971.915,1135.717z M973.208,1135.717c-0.178,0-0.323,0.145-0.323,0.322
			s0.146,0.323,0.323,0.323s0.322-0.146,0.322-0.323S973.386,1135.717,973.208,1135.717L973.208,1135.717z M974.499,1135.717
			c-0.178,0-0.322,0.145-0.322,0.322s0.145,0.323,0.322,0.323c0.179,0,0.323-0.146,0.323-0.323S974.678,1135.717,974.499,1135.717
			L974.499,1135.717z M975.791,1135.717c-0.177,0-0.322,0.145-0.322,0.322s0.146,0.323,0.322,0.323c0.179,0,0.323-0.146,0.323-0.323
			S975.97,1135.717,975.791,1135.717L975.791,1135.717z M977.083,1135.717c-0.178,0-0.322,0.145-0.322,0.322
			s0.145,0.323,0.322,0.323s0.323-0.146,0.323-0.323S977.261,1135.717,977.083,1135.717L977.083,1135.717z M978.376,1135.717
			c-0.179,0-0.323,0.145-0.323,0.322s0.145,0.323,0.323,0.323c0.178,0,0.322-0.146,0.322-0.323S978.554,1135.717,978.376,1135.717
			L978.376,1135.717z M979.667,1135.717c-0.178,0-0.322,0.145-0.322,0.322s0.145,0.323,0.322,0.323s0.323-0.146,0.323-0.323
			S979.845,1135.717,979.667,1135.717L979.667,1135.717z M980.96,1135.717c-0.179,0-0.324,0.145-0.324,0.322
			s0.146,0.323,0.324,0.323c0.178,0,0.323-0.146,0.323-0.323S981.138,1135.717,980.96,1135.717L980.96,1135.717z M982.252,1135.717
			c-0.178,0-0.323,0.145-0.323,0.322s0.146,0.323,0.323,0.323s0.322-0.146,0.322-0.323S982.43,1135.717,982.252,1135.717
			L982.252,1135.717z M983.544,1135.717c-0.178,0-0.324,0.145-0.324,0.322s0.146,0.323,0.324,0.323s0.323-0.146,0.323-0.323
			S983.722,1135.717,983.544,1135.717L983.544,1135.717z M984.836,1135.717c-0.178,0-0.323,0.145-0.323,0.322
			s0.146,0.323,0.323,0.323s0.322-0.146,0.322-0.323S985.014,1135.717,984.836,1135.717L984.836,1135.717z"/>
	</g>
	<path fill="none" stroke="#33CCFF" stroke-width="2" stroke-linejoin="round" stroke-miterlimit="10" d="M976.834,1149.324v-6.861"
		/>
	<path fill="none" stroke="#33CCFF" stroke-width="2" stroke-linejoin="round" stroke-miterlimit="10" d="M976.834,1117.248v-6.861"
		/>
	<path fill="none" stroke="#33CCFF" stroke-width="2" stroke-linejoin="round" stroke-miterlimit="10" d="M976.834,1186.306v-6.861"
		/>
	<path fill="none" stroke="#33CCFF" stroke-width="2" stroke-linejoin="round" stroke-miterlimit="10" d="M976.834,1222.669v-6.861"
		/>
	<path fill="none" stroke="#33CCFF" stroke-width="2" stroke-linejoin="round" stroke-miterlimit="10" d="M976.834,1260.199v-6.861"
		/>
	<path fill="none" stroke="#33CCFF" stroke-width="2" stroke-linejoin="round" stroke-miterlimit="10" d="M976.834,1294.958v-6.861"
		/>
</g>
</svg>
