<?xml version="1.0" encoding="utf-8"?>
<!-- Generator: Adobe Illustrator 16.0.0, SVG Export Plug-In . SVG Version: 6.00 Build 0)  -->
<!DOCTYPE svg PUBLIC "-//W3C//DTD SVG 1.1//EN" "http://www.w3.org/Graphics/SVG/1.1/DTD/svg11.dtd">
<svg version="1.1" id="Layer_1" xmlns="http://www.w3.org/2000/svg" xmlns:xlink="http://www.w3.org/1999/xlink" x="0px" y="0px"
	 width="212.469px" height="263.229px" viewBox="198.728 677.25 212.469 263.229"
	 enable-background="new 198.728 677.25 212.469 263.229" xml:space="preserve">
<g>
	<rect x="268.203" y="794.451" fill="none" width="63.353" height="11.525"/>
	<text transform="matrix(1 0 0 1 271.6147 801.751)" fill="#33CCFF" font-family="'Raleway-Bold'" font-size="10">Accelerator</text>
	<rect x="234.601" y="821.008" fill="none" width="39.798" height="11.158"/>
	<text transform="matrix(1 0 0 1 238.2808 828.3076)" fill="#33CCFF" font-family="'Raleway-Bold'" font-size="10">Wallet</text>
	<rect x="349.666" y="714.241" fill="none" width="57.277" height="19.667"/>
	<text transform="matrix(1 0 0 1 353.5195 721.541)"><tspan x="0" y="0" fill="#FFFFFF" font-family="'Raleway-Bold'" font-size="10">Veres One</tspan><tspan x="-1.846" y="10" fill="#FFFFFF" font-family="'Raleway-Bold'" font-size="10">Blockchain</tspan></text>
	<rect x="198.728" y="708.373" fill="none" width="47.773" height="19.547"/>
	<text transform="matrix(1 0 0 1 200.98 715.6729)"><tspan x="0" y="0" fill="#FFFFFF" font-family="'Raleway-Bold'" font-size="10">Identifier</tspan><tspan x="5.71" y="10" fill="#FFFFFF" font-family="'Raleway-Bold'" font-size="10">Owner</tspan></text>
	<rect x="232.826" y="736.92" fill="none" width="119.071" height="26.246"/>
	<text transform="matrix(1 0 0 1 241.8325 742.0303)"><tspan x="0" y="0" fill="#FFFFFF" font-family="'Raleway-Medium'" font-size="7">You go through an Accelerator </tspan><tspan x="4.935" y="8.399" fill="#FFFFFF" font-family="'Raleway-Medium'" font-size="7">to get a Digital Wallet and a </tspan><tspan x="5.82" y="16.8" fill="#FFFFFF" font-family="'Raleway-Medium'" font-size="7">unique Veres One Identifier</tspan></text>
	<g>
		<rect x="214.201" y="865.716" fill="none" width="156.098" height="21.19"/>
		<text transform="matrix(1 0 0 1 237.6011 870.8262)"><tspan x="0" y="0" fill="#FFFFFF" font-family="'Raleway-Medium'" font-size="7">You can Provide Proof of Work to </tspan><tspan x="-0.354" y="8.399" fill="#FFFFFF" font-family="'Raleway-Medium'" font-size="7">get a Veres One Identifier directly</tspan></text>
	</g>
	<rect x="272.998" y="900.76" fill="none" width="76.463" height="32.654"/>
	<text transform="matrix(1 0 0 1 275.9116 905.8701)"><tspan x="0" y="0" fill="#FFFFFF" font-family="'Raleway-Medium'" font-size="7">A private key enables </tspan><tspan x="5.988" y="8.399" fill="#FFFFFF" font-family="'Raleway-Medium'" font-size="7">a user to uniquely </tspan><tspan x="8.483" y="16.8" fill="#FFFFFF" font-family="'Raleway-Medium'" font-size="7">authenticae as a </tspan><tspan x="2.82" y="25.199" fill="#FFFFFF" font-family="'Raleway-Medium'" font-size="7">Veres One Identifier</tspan></text>
	<path fill="#33CCFF" d="M390.04,735.95h-24.142c-1.313,0-2.382,1.068-2.382,2.382v5.528c0,1.313,1.068,2.382,2.382,2.382h0.56
		c0.592-0.506,1.378-0.834,2.374-0.843c0.353-0.421,0.796-0.771,1.358-0.987c0.027-0.056,0.049-0.115,0.078-0.17h-4.37
		c-0.211,0-0.382-0.171-0.382-0.382v-5.528c0-0.211,0.171-0.382,0.382-0.382h24.142c0.211,0,0.382,0.171,0.382,0.382v5.528
		c0,0.103-0.04,0.198-0.11,0.27c-0.073,0.073-0.169,0.112-0.271,0.112h-4.865c0.21,0.201,0.38,0.432,0.533,0.674
		c0.474,0.021,0.9,0.111,1.278,0.264c0.038,0.003,0.07,0.014,0.107,0.018c0.174-0.021,0.342-0.053,0.531-0.053
		c1.16,0,2.039,0.43,2.657,1.074c0.544-0.055,1.05-0.282,1.443-0.674c0.449-0.451,0.696-1.049,0.696-1.685v-5.528
		C392.422,737.019,391.354,735.95,390.04,735.95z"/>
	<path fill="#33CCFF" d="M390.688,805.325c-0.462,0.973-1.315,1.738-2.573,1.957h2.149c0.211,0,0.382,0.171,0.382,0.382v5.528
		c0,0.102-0.04,0.198-0.112,0.271c-0.071,0.07-0.169,0.111-0.27,0.111h-24.142c-0.211,0-0.382-0.171-0.382-0.382v-5.528
		c0-0.211,0.171-0.382,0.382-0.382h1.889c-1.231-0.214-2.077-0.952-2.546-1.896c-0.992,0.288-1.725,1.194-1.725,2.278v5.528
		c0,1.313,1.068,2.382,2.382,2.382h24.142c0.627,0,1.24-0.254,1.684-0.697c0.45-0.45,0.698-1.049,0.698-1.685v-5.528
		C392.646,806.496,391.799,805.526,390.688,805.325z"/>
	<path fill="none" stroke="#33CCFF" stroke-width="2" stroke-linejoin="round" stroke-miterlimit="10" d="M390.072,823.268
		L390.072,823.268c0.764,0,1.382,0.619,1.382,1.382v5.528l0,0c0,0.367-0.146,0.719-0.404,0.978c-0.26,0.26-0.611,0.405-0.978,0.405
		h-24.142c-0.763,0-1.382-0.619-1.382-1.383v-5.528c0-0.763,0.619-1.382,1.382-1.382H390.072z"/>
	<path fill="none" stroke="#33CCFF" stroke-width="2" stroke-linejoin="round" stroke-miterlimit="10" d="M389.855,841.812
		L389.855,841.812c0.764,0,1.382,0.619,1.382,1.383v5.528l0,0c0,0.366-0.146,0.718-0.404,0.978c-0.26,0.259-0.611,0.404-0.978,0.404
		h-24.142c-0.763,0-1.382-0.619-1.382-1.382v-5.528c0-0.764,0.619-1.383,1.382-1.383H389.855z"/>
	<path fill-opacity="0" d="M377.305,841.118l0.342-9.558"/>
	<path fill="none" stroke="#33CCFF" stroke-width="2" stroke-linejoin="round" stroke-miterlimit="10" d="M389.865,858.281
		L389.865,858.281c0.763,0,1.382,0.618,1.382,1.382v5.528l0,0c0,0.366-0.146,0.718-0.405,0.978c-0.259,0.259-0.61,0.404-0.977,0.404
		h-24.142c-0.764,0-1.382-0.618-1.382-1.382v-5.528c0-0.764,0.618-1.382,1.382-1.382H389.865z"/>
	<path fill="none" stroke="#33CCFF" stroke-width="2" stroke-linejoin="round" stroke-miterlimit="10" d="M389.912,875.614
		L389.912,875.614c0.763,0,1.382,0.618,1.382,1.382v5.528l0,0c0,0.366-0.146,0.718-0.405,0.978c-0.259,0.259-0.61,0.404-0.977,0.404
		h-24.142c-0.764,0-1.382-0.619-1.382-1.382v-5.528c0-0.764,0.618-1.382,1.382-1.382H389.912z"/>
	<path fill="none" stroke="#33CCFF" stroke-width="2" stroke-linejoin="round" stroke-miterlimit="10" d="M390.082,892.947
		L390.082,892.947c0.764,0,1.383,0.618,1.383,1.382v5.528l0,0c0,0.366-0.146,0.718-0.405,0.978c-0.259,0.259-0.61,0.404-0.978,0.404
		h-24.141c-0.764,0-1.383-0.619-1.383-1.382v-5.528c0-0.764,0.619-1.382,1.383-1.382H390.082z"/>
	<path fill="none" stroke="#33CCFF" stroke-width="2" stroke-linejoin="round" stroke-miterlimit="10" d="M345.805,776.105
		L345.805,776.105c0-17.781,14.415-32.196,32.196-32.196l0,0c8.539,0,16.729,3.393,22.767,9.431
		c6.038,6.037,9.43,14.227,9.43,22.766l0,0c0,17.781-14.415,32.196-32.196,32.196l0,0
		C360.22,808.302,345.805,793.887,345.805,776.105z"/>
	<path fill="none" stroke="#33CCFF" stroke-width="0.75" stroke-linejoin="round" stroke-miterlimit="10" d="M351.112,768.795
		L351.112,768.795c0-1.994,1.617-3.61,3.611-3.61h46.79c0.957,0,1.876,0.38,2.553,1.058c0.678,0.678,1.058,1.596,1.058,2.553v14.443
		c0,1.994-1.616,3.611-3.61,3.611h-46.79l0,0c-1.994,0-3.611-1.617-3.611-3.611V768.795z"/>
	<path fill-opacity="0" d="M222.717,724.074v215.405"/>
	<path fill="none" stroke="#33CCFF" stroke-width="2" stroke-linejoin="round" stroke-miterlimit="10" d="M222.717,731.25v20.711
		v187.519"/>
	<path fill="none" stroke="#33CCFF" stroke-width="2" stroke-linejoin="round" stroke-miterlimit="10" d="M226.91,939.479h-0.834
		h-7.55"/>
	<path fill="none" stroke="#33CCFF" stroke-width="2" stroke-linejoin="round" stroke-miterlimit="10" d="M226.91,731.25h-0.834
		h-7.55"/>
	<g>
		<rect x="239.826" y="888.372" fill="#FFFFFF" width="105" height="2"/>
		<polygon fill="#FFFFFF" points="347.281,889.32 343.703,885.74 344.549,889.287 343.703,892.898 		"/>
		<polygon fill="#FFFFFF" points="237.371,889.358 240.949,892.938 240.102,889.392 240.949,885.78 		"/>
	</g>
	<g>
		<rect x="231.753" y="781.554" fill="#FFFFFF" width="45.995" height="2"/>
		<polygon fill="#FFFFFF" points="279.537,782.502 275.958,778.922 276.804,782.469 275.958,786.08 		"/>
		<polygon fill="#FFFFFF" points="229.297,782.54 232.876,786.12 232.029,782.573 232.876,778.962 		"/>
	</g>
	<g>
		<rect x="321.121" y="781.554" fill="#FFFFFF" width="17.622" height="2"/>
		<polygon fill="#FFFFFF" points="340.532,782.502 336.954,778.922 337.8,782.469 336.954,786.08 		"/>
		<polygon fill="#FFFFFF" points="319.332,782.54 322.91,786.12 322.063,782.573 322.91,778.962 		"/>
	</g>
	<rect x="353.227" y="772.047" fill="none" width="36.412" height="11.256"/>
	<text transform="matrix(1 0 0 1 359.1816 775.6973)"><tspan x="0" y="0" fill="#33CCFF" font-family="'Raleway-Medium'" font-size="5">Veres One</tspan><tspan x="-4.035" y="6" fill="#33CCFF" font-family="'Raleway-Medium'" font-size="5">Identifier 123...</tspan></text>
	
		<line fill="none" stroke="#33CCFF" stroke-width="2" stroke-linejoin="round" stroke-miterlimit="10" x1="377.852" y1="883.906" x2="377.842" y2="892.947"/>
	
		<line fill="none" stroke="#33CCFF" stroke-width="2" stroke-linejoin="round" stroke-miterlimit="10" x1="377.869" y1="866.917" x2="377.86" y2="875.614"/>
	
		<line fill="none" stroke="#33CCFF" stroke-width="2" stroke-linejoin="round" stroke-miterlimit="10" x1="377.887" y1="850.105" x2="377.878" y2="858.28"/>
	
		<line fill="none" stroke="#33CCFF" stroke-width="2" stroke-linejoin="round" stroke-miterlimit="10" x1="377.907" y1="831.578" x2="377.896" y2="841.812"/>
	
		<line fill="none" stroke="#33CCFF" stroke-width="2" stroke-linejoin="round" stroke-miterlimit="10" x1="377.925" y1="814.584" x2="377.916" y2="823.269"/>
	
		<line fill="none" stroke="#33CCFF" stroke-width="2" stroke-linejoin="round" stroke-miterlimit="10" x1="377.955" y1="787.084" x2="377.933" y2="808.302"/>
	
		<line fill="none" stroke="#33CCFF" stroke-width="2" stroke-linejoin="round" stroke-miterlimit="10" x1="378.001" y1="743.909" x2="377.979" y2="765.25"/>
	<g>
		<path fill="#33CCFF" d="M259.011,902.647c-5.141,0-9.319,4.178-9.319,9.319c0,0.478,0.058,0.938,0.127,1.389l-1.202,1.204
			c-0.819,0.819-0.822,2.153-0.015,2.979l-8.653,8.654v2.893l1.943,1.942h2.892l2.366-2.365v-0.601h0.599l1.518-1.519v-1.022h1.023
			l3.147-3.147c0.827,0.808,2.162,0.805,2.981-0.016l1.203-1.2c0.452,0.069,0.912,0.126,1.39,0.126c5.141,0,9.319-4.177,9.319-9.317
			C268.33,906.825,264.152,902.647,259.011,902.647L259.011,902.647z M259.011,903.494c4.684,0,8.472,3.788,8.472,8.473
			c0,4.684-3.788,8.472-8.472,8.472c-0.501,0-0.993-0.053-1.478-0.138l-0.217-0.038l-1.498,1.498c-0.5,0.499-1.298,0.499-1.799,0
			l-4.803-4.804c-0.5-0.502-0.5-1.3,0-1.799l1.497-1.498l-0.038-0.217c-0.084-0.483-0.137-0.976-0.137-1.477
			C250.539,907.282,254.326,903.494,259.011,903.494L259.011,903.494z M259.011,906.037c-1.52,0-3.036,0.579-4.193,1.737l-0.3,0.298
			l8.386,8.387l0.3-0.299c2.313-2.312,2.313-6.072,0.001-8.386C262.049,906.616,260.53,906.037,259.011,906.037L259.011,906.037z
			 M259.011,906.881c1.3,0,2.601,0.498,3.594,1.491c1.883,1.885,1.919,4.829,0.239,6.829l-7.067-7.066
			C256.721,907.34,257.85,906.881,259.011,906.881L259.011,906.881z M253.504,909.425c-0.233,0-0.424,0.189-0.424,0.423
			c0,0.234,0.191,0.424,0.424,0.424s0.423-0.189,0.423-0.424C253.928,909.614,253.738,909.425,253.504,909.425L253.504,909.425z
			 M254.775,910.694c-0.233,0-0.423,0.191-0.423,0.425s0.19,0.424,0.423,0.424s0.424-0.19,0.424-0.424
			S255.008,910.694,254.775,910.694L254.775,910.694z M256.046,911.967c-0.233,0-0.423,0.189-0.423,0.424
			c0,0.232,0.19,0.423,0.423,0.423s0.423-0.19,0.423-0.423C256.469,912.156,256.279,911.967,256.046,911.967L256.046,911.967z
			 M257.317,913.237c-0.233,0-0.424,0.19-0.424,0.423c0,0.234,0.19,0.424,0.424,0.424s0.423-0.189,0.423-0.424
			C257.74,913.428,257.55,913.237,257.317,913.237L257.317,913.237z M251.386,914.084c-0.234,0-0.424,0.19-0.424,0.423
			c0,0.234,0.19,0.425,0.424,0.425c0.233,0,0.424-0.19,0.424-0.425C251.81,914.274,251.62,914.084,251.386,914.084L251.386,914.084z
			 M258.587,914.507c-0.233,0-0.423,0.191-0.423,0.425s0.19,0.425,0.423,0.425s0.424-0.191,0.424-0.425
			S258.821,914.507,258.587,914.507L258.587,914.507z M252.657,915.356c-0.233,0-0.423,0.189-0.423,0.423
			c0,0.232,0.19,0.424,0.423,0.424c0.233,0,0.423-0.191,0.423-0.424C253.08,915.546,252.89,915.356,252.657,915.356L252.657,915.356
			z M259.858,915.779c-0.233,0-0.423,0.189-0.423,0.424c0,0.232,0.19,0.423,0.423,0.423c0.233,0,0.424-0.19,0.424-0.423
			C260.282,915.969,260.091,915.779,259.858,915.779L259.858,915.779z M253.928,916.626c-0.233,0-0.423,0.189-0.423,0.424
			c0,0.233,0.19,0.423,0.423,0.423c0.233,0,0.424-0.189,0.424-0.423C254.352,916.815,254.161,916.626,253.928,916.626
			L253.928,916.626z M261.129,917.05c-0.233,0-0.423,0.19-0.423,0.423c0,0.234,0.19,0.424,0.423,0.424
			c0.233,0,0.423-0.189,0.423-0.424C261.552,917.24,261.362,917.05,261.129,917.05L261.129,917.05z M255.199,917.896
			c-0.234,0-0.424,0.19-0.424,0.423c0,0.234,0.19,0.425,0.424,0.425c0.233,0,0.423-0.19,0.423-0.425
			C255.623,918.087,255.432,917.896,255.199,917.896L255.199,917.896z M249.202,918.138l1.1,1.103
			c-0.023,0.016-0.043,0.032-0.063,0.051l-5.083,5.084c-0.111,0.105-0.155,0.265-0.116,0.412c0.038,0.149,0.154,0.265,0.303,0.303
			c0.147,0.039,0.306-0.006,0.412-0.116l5.083-5.083c0.02-0.019,0.038-0.04,0.053-0.062l1.947,1.947l-2.899,2.898h-1.519v1.52
			l-1.023,1.022h-1.095v1.097l-1.871,1.869h-2.191l-1.446-1.446v-2.191L249.202,918.138z M256.469,919.169
			c-0.233,0-0.423,0.189-0.423,0.423c0,0.232,0.19,0.424,0.423,0.424c0.234,0,0.424-0.191,0.424-0.424
			C256.893,919.358,256.703,919.169,256.469,919.169L256.469,919.169z M244.185,925.521c-0.233,0-0.424,0.19-0.424,0.424
			s0.19,0.424,0.424,0.424c0.234,0,0.424-0.19,0.424-0.424S244.419,925.521,244.185,925.521L244.185,925.521z M242.915,926.792
			c-0.233,0-0.424,0.19-0.424,0.424s0.19,0.424,0.424,0.424c0.233,0,0.423-0.19,0.423-0.424S243.147,926.792,242.915,926.792
			L242.915,926.792z"/>
	</g>
	<g>
		<path fill="#33CCFF" d="M256.458,797.416c-1.931,0-3.5,1.569-3.5,3.5c0,0.18,0.021,0.353,0.047,0.521l-0.451,0.452
			c-0.308,0.309-0.309,0.809-0.006,1.118l-3.249,3.251v1.086l0.729,0.729h1.087l0.888-0.888v-0.227h0.225l0.57-0.57v-0.383h0.385
			l1.181-1.184c0.31,0.304,0.812,0.304,1.12-0.005l0.452-0.45c0.17,0.025,0.343,0.047,0.522,0.047c1.931,0,3.5-1.569,3.5-3.499
			C259.958,798.985,258.389,797.416,256.458,797.416L256.458,797.416z M256.458,797.734c1.759,0,3.182,1.422,3.182,3.182
			c0,1.759-1.423,3.182-3.182,3.182c-0.188,0-0.373-0.02-0.555-0.051l-0.081-0.016l-0.563,0.563c-0.188,0.187-0.486,0.187-0.675,0
			l-1.804-1.805c-0.188-0.188-0.188-0.488,0-0.676l0.562-0.562l-0.015-0.083c-0.032-0.181-0.052-0.365-0.052-0.554
			C253.276,799.156,254.698,797.734,256.458,797.734L256.458,797.734z M256.458,798.689c-0.571,0-1.14,0.217-1.574,0.652
			l-0.113,0.111l3.149,3.15l0.113-0.112c0.868-0.868,0.868-2.281,0-3.149C257.599,798.906,257.028,798.689,256.458,798.689
			L256.458,798.689z M256.458,799.006c0.489,0,0.976,0.188,1.35,0.561c0.708,0.707,0.721,1.812,0.089,2.564l-2.654-2.653
			C255.598,799.179,256.021,799.006,256.458,799.006L256.458,799.006z M254.39,799.961c-0.087,0-0.159,0.071-0.159,0.16
			c0,0.087,0.072,0.157,0.159,0.157c0.088,0,0.16-0.07,0.16-0.157C254.549,800.032,254.478,799.961,254.39,799.961L254.39,799.961z
			 M254.868,800.438c-0.088,0-0.159,0.071-0.159,0.159c0,0.089,0.071,0.159,0.159,0.159c0.086,0,0.159-0.07,0.159-0.159
			C255.027,800.51,254.954,800.438,254.868,800.438L254.868,800.438z M255.345,800.916c-0.088,0-0.159,0.071-0.159,0.159
			c0,0.087,0.071,0.159,0.159,0.159c0.087,0,0.159-0.072,0.159-0.159C255.503,800.987,255.432,800.916,255.345,800.916
			L255.345,800.916z M255.822,801.394c-0.088,0-0.16,0.07-0.16,0.159c0,0.088,0.072,0.158,0.16,0.158
			c0.087,0,0.159-0.07,0.159-0.158C255.981,801.464,255.909,801.394,255.822,801.394L255.822,801.394z M253.595,801.711
			c-0.088,0-0.159,0.072-0.159,0.159s0.071,0.159,0.159,0.159s0.159-0.072,0.159-0.159S253.683,801.711,253.595,801.711
			L253.595,801.711z M256.299,801.87c-0.088,0-0.159,0.071-0.159,0.159s0.071,0.16,0.159,0.16c0.088,0,0.159-0.072,0.159-0.16
			S256.387,801.87,256.299,801.87L256.299,801.87z M254.072,802.189c-0.087,0-0.159,0.07-0.159,0.159
			c0,0.086,0.072,0.158,0.159,0.158c0.088,0,0.159-0.072,0.159-0.158C254.23,802.26,254.16,802.189,254.072,802.189L254.072,802.189
			z M256.776,802.349c-0.087,0-0.159,0.069-0.159,0.158c0,0.088,0.072,0.159,0.159,0.159c0.088,0,0.159-0.071,0.159-0.159
			C256.935,802.418,256.864,802.349,256.776,802.349L256.776,802.349z M254.549,802.666c-0.087,0-0.16,0.07-0.16,0.159
			c0,0.088,0.072,0.158,0.16,0.158s0.159-0.07,0.159-0.158C254.708,802.736,254.637,802.666,254.549,802.666L254.549,802.666z
			 M257.253,802.825c-0.087,0-0.159,0.071-0.159,0.158c0,0.089,0.071,0.158,0.159,0.158s0.159-0.069,0.159-0.158
			C257.412,802.896,257.341,802.825,257.253,802.825L257.253,802.825z M255.027,803.142c-0.089,0-0.159,0.073-0.159,0.16
			c0,0.088,0.07,0.16,0.159,0.16c0.087,0,0.159-0.072,0.159-0.16C255.186,803.215,255.114,803.142,255.027,803.142L255.027,803.142z
			 M252.774,803.233l0.414,0.414c-0.008,0.005-0.017,0.013-0.024,0.02l-1.909,1.909c-0.041,0.039-0.058,0.099-0.043,0.154
			c0.014,0.056,0.058,0.1,0.113,0.113c0.056,0.016,0.115-0.002,0.155-0.043l1.909-1.909c0.007-0.008,0.014-0.015,0.02-0.023
			l0.731,0.732l-1.089,1.087h-0.57v0.571l-0.385,0.384h-0.411v0.412l-0.702,0.701h-0.823l-0.543-0.543v-0.823L252.774,803.233z
			 M255.503,803.619c-0.087,0-0.159,0.072-0.159,0.161c0,0.086,0.071,0.158,0.159,0.158s0.159-0.072,0.159-0.158
			C255.662,803.691,255.591,803.619,255.503,803.619L255.503,803.619z M250.89,806.007c-0.087,0-0.159,0.07-0.159,0.158
			c0,0.089,0.072,0.159,0.159,0.159c0.088,0,0.16-0.07,0.16-0.159C251.05,806.077,250.978,806.007,250.89,806.007L250.89,806.007z
			 M250.413,806.483c-0.087,0-0.159,0.071-0.159,0.159s0.071,0.159,0.159,0.159c0.088,0,0.159-0.071,0.159-0.159
			S250.501,806.483,250.413,806.483L250.413,806.483z"/>
	</g>
	<g>
		<path fill="#33CCFF" d="M248.91,792.269c-1.168,0-2.118,0.948-2.118,2.117v21.181c0,1.169,0.95,2.117,2.118,2.117h11.014
			c1.168,0,2.118-0.948,2.118-2.117v-21.181c0-1.169-0.95-2.117-2.118-2.117H248.91z M248.91,793.114h11.014
			c0.7,0,1.271,0.571,1.271,1.271v0.424h-4.66c-0.235,0-0.424,0.189-0.424,0.424c0,0.233,0.189,0.423,0.424,0.423h4.66v16.945
			h-13.556v-16.945h4.66c0.235,0,0.424-0.189,0.424-0.423c0-0.234-0.189-0.424-0.424-0.424h-4.66v-0.424
			C247.639,793.686,248.21,793.114,248.91,793.114L248.91,793.114z M253.993,794.81c-0.235,0-0.423,0.189-0.423,0.424
			c0,0.233,0.188,0.423,0.423,0.423h0.848c0.235,0,0.423-0.189,0.423-0.423c0-0.234-0.188-0.424-0.423-0.424H253.993z
			 M248.91,809.212c-0.235,0-0.424,0.19-0.424,0.424v0.847c0,0.234,0.189,0.424,0.424,0.424s0.424-0.189,0.424-0.424v-0.847
			C249.334,809.402,249.145,809.212,248.91,809.212L248.91,809.212z M251.028,809.212c-0.235,0-0.423,0.19-0.423,0.424v0.847
			c0,0.234,0.188,0.424,0.423,0.424c0.235,0,0.424-0.189,0.424-0.424v-0.847C251.452,809.402,251.263,809.212,251.028,809.212
			L251.028,809.212z M253.146,809.212c-0.235,0-0.423,0.19-0.423,0.424v0.847c0,0.234,0.188,0.424,0.423,0.424
			c0.235,0,0.424-0.189,0.424-0.424v-0.847C253.57,809.402,253.381,809.212,253.146,809.212L253.146,809.212z M255.688,809.212
			c-0.235,0-0.424,0.19-0.424,0.424v0.847c0,0.234,0.188,0.424,0.424,0.424c0.235,0,0.423-0.189,0.423-0.424v-0.847
			C256.111,809.402,255.923,809.212,255.688,809.212L255.688,809.212z M257.806,809.212c-0.235,0-0.424,0.19-0.424,0.424v0.847
			c0,0.234,0.189,0.424,0.424,0.424c0.234,0,0.423-0.189,0.423-0.424v-0.847C258.229,809.402,258.041,809.212,257.806,809.212
			L257.806,809.212z M259.924,809.212c-0.235,0-0.424,0.19-0.424,0.424v0.847c0,0.234,0.189,0.424,0.424,0.424
			s0.424-0.189,0.424-0.424v-0.847C260.348,809.402,260.159,809.212,259.924,809.212L259.924,809.212z M247.639,813.448h13.556
			v2.118c0,0.7-0.571,1.271-1.271,1.271H248.91c-0.7,0-1.271-0.571-1.271-1.271V813.448z M253.146,814.296
			c-0.235,0-0.423,0.189-0.423,0.423c0,0.234,0.188,0.424,0.423,0.424h2.542c0.235,0,0.423-0.189,0.423-0.424
			c0-0.233-0.188-0.423-0.423-0.423H253.146z"/>
	</g>
	<path fill="#33CCFF" d="M297.66,764.84c-0.379,0-0.685,0.305-0.685,0.683v4.761h-10.283c-1.132,0-2.056,0.924-2.056,2.057
		c0,0.891,0.577,1.647,1.372,1.93v15.658h-2.057c-0.381,0-0.686,0.308-0.686,0.684c0,0.379,0.305,0.687,0.686,0.687h31.531
		c0.38,0,0.686-0.308,0.686-0.687c0-0.376-0.306-0.684-0.686-0.684h-2.057V774.27c0.795-0.282,1.371-1.039,1.371-1.93
		c0-1.133-0.924-2.057-2.057-2.057h-11.653v-2.705c0-0.377-0.305-0.685-0.685-0.685c-0.381,0-0.686,0.308-0.686,0.685v2.705h-1.371
		v-4.761C298.346,765.145,298.04,764.84,297.66,764.84L297.66,764.84z M286.692,771.654h26.048c0.377,0,0.686,0.309,0.686,0.686
		s-0.309,0.686-0.686,0.686h-26.048c-0.376,0-0.684-0.309-0.684-0.686S286.316,771.654,286.692,771.654L286.692,771.654z
		 M287.378,774.396h24.677v11.418h-9.597v-0.035c0-0.755-0.616-1.371-1.371-1.371h-2.742c-0.755,0-1.371,0.616-1.371,1.371v0.035
		h-9.597v-8.677H305.2c0.381,0,0.686-0.308,0.686-0.685c0-0.378-0.305-0.687-0.686-0.687h-17.822V774.396z M307.256,775.767
		c-0.38,0-0.686,0.309-0.686,0.687c0,0.377,0.306,0.685,0.686,0.685h2.742c0.381,0,0.686-0.308,0.686-0.685
		c0-0.378-0.305-0.687-0.686-0.687H307.256z M290.806,778.96c-0.38,0-0.686,0.308-0.686,0.686c0,0.377,0.305,0.685,0.686,0.685
		h1.371c0.38,0,0.685-0.308,0.685-0.685c0-0.378-0.305-0.686-0.685-0.686H290.806z M296.289,778.96c-0.38,0-0.686,0.308-0.686,0.686
		c0,0.377,0.305,0.685,0.686,0.685h1.371c0.38,0,0.686-0.308,0.686-0.685c0-0.378-0.306-0.686-0.686-0.686H296.289z M301.773,778.96
		c-0.381,0-0.686,0.308-0.686,0.686c0,0.377,0.305,0.685,0.686,0.685h1.37c0.38,0,0.686-0.308,0.686-0.685
		c0-0.378-0.305-0.686-0.686-0.686H301.773z M307.256,778.96c-0.38,0-0.686,0.308-0.686,0.686c0,0.377,0.306,0.685,0.686,0.685
		h1.371c0.38,0,0.686-0.308,0.686-0.685c0-0.378-0.306-0.686-0.686-0.686H307.256z M290.806,781.701
		c-0.38,0-0.686,0.309-0.686,0.686c0,0.378,0.305,0.686,0.686,0.686h1.371c0.38,0,0.685-0.308,0.685-0.686
		c0-0.377-0.305-0.686-0.685-0.686H290.806z M296.289,781.701c-0.38,0-0.686,0.309-0.686,0.686c0,0.378,0.305,0.686,0.686,0.686
		h1.371c0.38,0,0.686-0.308,0.686-0.686c0-0.377-0.306-0.686-0.686-0.686H296.289z M301.773,781.701
		c-0.381,0-0.686,0.309-0.686,0.686c0,0.378,0.305,0.686,0.686,0.686h1.37c0.38,0,0.686-0.308,0.686-0.686
		c0-0.377-0.305-0.686-0.686-0.686H301.773z M307.256,781.701c-0.38,0-0.686,0.309-0.686,0.686c0,0.378,0.306,0.686,0.686,0.686
		h1.371c0.38,0,0.686-0.308,0.686-0.686c0-0.377-0.306-0.686-0.686-0.686H307.256z M298.346,785.779h2.742v4.113h-2.742V785.779z
		 M287.378,787.186h9.597v2.742h-9.597V787.186z M302.458,787.186h9.597v2.742h-9.597V787.186z"/>
	<g>
		<path fill="#33CCFF" d="M396.072,769.015c-3.909,0-7.09,3.18-7.09,7.089c0,3.91,3.181,7.09,7.09,7.09s7.09-3.18,7.09-7.09
			C403.162,772.194,399.981,769.015,396.072,769.015L396.072,769.015z M396.072,769.504c3.64,0,6.601,2.961,6.601,6.6
			c0,3.64-2.961,6.602-6.601,6.602s-6.601-2.962-6.601-6.602C389.472,772.465,392.433,769.504,396.072,769.504L396.072,769.504z
			 M395.966,770.483c-1.442,0.028-2.835,0.612-3.869,1.644c-1.062,1.063-1.646,2.475-1.646,3.977c0,1.503,0.584,2.914,1.646,3.977
			c0.048,0.047,0.109,0.072,0.172,0.072c0.063,0,0.127-0.025,0.175-0.072c0.094-0.096,0.094-0.25,0-0.346
			c-0.113-0.113-0.217-0.229-0.317-0.35c0.003-0.004,0.009-0.008,0.011-0.014c0.549-1.127,1.518-1.905,2.632-2.158
			c0.365,0.363,0.813,0.602,1.304,0.602s0.939-0.238,1.304-0.602c1.115,0.252,2.085,1.031,2.633,2.158
			c0.002,0.006,0.006,0.01,0.01,0.015c-0.101,0.12-0.204,0.236-0.316,0.349c-0.094,0.096-0.094,0.25,0,0.346
			c0.047,0.047,0.111,0.072,0.174,0.072s0.125-0.025,0.173-0.072c1.062-1.062,1.646-2.474,1.646-3.977
			c0-1.502-0.584-2.913-1.646-3.977c-0.162-0.16-0.333-0.313-0.513-0.453c-0.106-0.082-0.26-0.063-0.343,0.043
			c-0.083,0.105-0.064,0.26,0.042,0.342c0.162,0.129,0.321,0.268,0.467,0.416c0.971,0.969,1.504,2.259,1.504,3.629
			c0,1.031-0.301,2.015-0.862,2.852c-0.589-1.078-1.53-1.844-2.621-2.158c0.342-0.5,0.55-1.111,0.55-1.671v-0.489
			c0-1.213-0.987-2.199-2.2-2.199c-1.211,0-2.199,0.986-2.199,2.199v0.489c0,0.56,0.207,1.171,0.549,1.671
			c-1.09,0.314-2.033,1.08-2.62,2.158c-0.562-0.837-0.862-1.82-0.862-2.852c0-1.37,0.533-2.66,1.504-3.629
			c1.16-1.161,2.82-1.699,4.446-1.439c0.134,0.021,0.258-0.07,0.28-0.203c0.021-0.133-0.07-0.26-0.204-0.28
			C396.632,770.498,396.297,770.475,395.966,770.483L395.966,770.483z M397.945,770.82c-0.095,0.004-0.185,0.064-0.219,0.158
			c-0.048,0.127,0.017,0.268,0.144,0.315c0.174,0.065,0.346,0.14,0.513,0.223c0.035,0.019,0.073,0.027,0.11,0.027
			c0.089,0,0.175-0.049,0.218-0.136c0.061-0.119,0.013-0.266-0.107-0.327c-0.183-0.091-0.371-0.174-0.562-0.245
			C398.01,770.824,397.977,770.82,397.945,770.82L397.945,770.82z M396.072,772.927c0.942,0,1.711,0.768,1.711,1.71v0.489
			c0,0.972-0.806,2.2-1.711,2.2c-0.904,0-1.71-1.229-1.71-2.2v-0.489C394.362,773.694,395.13,772.927,396.072,772.927
			L396.072,772.927z M393.72,780.111c-0.096-0.011-0.192,0.033-0.241,0.121l-0.245,0.424c-0.067,0.117-0.027,0.266,0.089,0.334
			c0.038,0.021,0.081,0.033,0.122,0.033c0.083,0,0.166-0.045,0.212-0.122l0.244-0.425c0.067-0.116,0.028-0.266-0.09-0.334
			C393.781,780.126,393.751,780.115,393.72,780.111L393.72,780.111z M398.426,780.111c-0.032,0.004-0.062,0.015-0.092,0.031
			c-0.118,0.068-0.155,0.218-0.089,0.336l0.244,0.423c0.045,0.077,0.128,0.122,0.212,0.122c0.041,0,0.084-0.011,0.122-0.033
			c0.117-0.066,0.156-0.217,0.088-0.334l-0.244-0.424C398.617,780.146,398.52,780.101,398.426,780.111L398.426,780.111z
			 M394.804,780.589c-0.094,0.013-0.176,0.081-0.202,0.179l-0.125,0.473c-0.036,0.131,0.042,0.264,0.172,0.301
			c0.022,0.004,0.044,0.008,0.063,0.008c0.107,0,0.208-0.072,0.236-0.183l0.126-0.472c0.036-0.131-0.043-0.266-0.172-0.299
			C394.869,780.586,394.837,780.584,394.804,780.589L394.804,780.589z M397.341,780.589c-0.032-0.005-0.064-0.003-0.099,0.007
			c-0.129,0.033-0.207,0.168-0.174,0.299l0.129,0.472c0.027,0.11,0.128,0.183,0.235,0.183c0.021,0,0.041-0.004,0.063-0.008
			c0.13-0.037,0.207-0.17,0.174-0.301l-0.127-0.473C397.517,780.67,397.435,780.602,397.341,780.589L397.341,780.589z
			 M396.072,780.748c-0.135,0-0.244,0.111-0.244,0.245v0.489c0,0.135,0.109,0.244,0.244,0.244c0.136,0,0.246-0.109,0.246-0.244
			v-0.489C396.318,780.859,396.208,780.748,396.072,780.748L396.072,780.748z"/>
	</g>
	<path fill="#33CCFF" d="M222.615,677.25c-3.998,0-7.25,3.253-7.25,7.251v1.035c0,1.76,0.67,3.921,1.814,5.72l-6.862,3.281
		c-1.968,0.94-3.239,2.958-3.239,5.139v3.986c0,0.855,0.698,1.555,1.554,1.555h27.966c0.856,0,1.554-0.699,1.554-1.555v-3.986
		c0-2.181-1.271-4.198-3.239-5.139l-6.862-3.281c1.145-1.799,1.814-3.96,1.814-5.72v-1.035
		C229.865,680.503,226.612,677.25,222.615,677.25L222.615,677.25z M222.615,678.285c3.427,0,6.215,2.789,6.215,6.216v1.035
		c0,3.654-2.925,8.286-6.215,8.286s-6.215-4.632-6.215-8.286v-1.035C216.4,681.074,219.188,678.285,222.615,678.285L222.615,678.285
		z M217.788,692.111c1.254,1.6,2.922,2.748,4.827,2.748s3.573-1.146,4.827-2.746l7.023,3.358c1.611,0.769,2.65,2.419,2.65,4.204
		v3.986c0,0.286-0.233,0.519-0.518,0.519h-27.966c-0.285,0-0.518-0.232-0.518-0.519v-3.986c0-1.785,1.04-3.436,2.65-4.204
		L217.788,692.111z M220.025,697.966c-0.285,0-0.518,0.232-0.518,0.519c0,0.285,0.233,0.518,0.518,0.518h5.18
		c0.285,0,0.518-0.232,0.518-0.518c0-0.286-0.233-0.519-0.518-0.519H220.025z M209.667,701.073c-0.285,0-0.518,0.233-0.518,0.518
		v1.036c0,0.285,0.233,0.518,0.518,0.518c0.285,0,0.518-0.232,0.518-0.518v-1.036C210.185,701.307,209.952,701.073,209.667,701.073
		L209.667,701.073z M212.257,701.073c-0.285,0-0.518,0.233-0.518,0.518v1.036c0,0.285,0.233,0.518,0.518,0.518
		s0.518-0.232,0.518-0.518v-1.036C212.775,701.307,212.542,701.073,212.257,701.073L212.257,701.073z M214.847,701.073
		c-0.286,0-0.519,0.233-0.519,0.518v1.036c0,0.285,0.233,0.518,0.519,0.518c0.285,0,0.518-0.232,0.518-0.518v-1.036
		C215.364,701.307,215.131,701.073,214.847,701.073L214.847,701.073z M217.436,701.073c-0.285,0-0.518,0.233-0.518,0.518v1.036
		c0,0.285,0.233,0.518,0.518,0.518c0.285,0,0.518-0.232,0.518-0.518v-1.036C217.954,701.307,217.721,701.073,217.436,701.073
		L217.436,701.073z M220.025,701.073c-0.285,0-0.518,0.233-0.518,0.518v1.036c0,0.285,0.233,0.518,0.518,0.518
		c0.285,0,0.519-0.232,0.519-0.518v-1.036C220.543,701.307,220.31,701.073,220.025,701.073L220.025,701.073z M222.615,701.073
		c-0.285,0-0.518,0.233-0.518,0.518v1.036c0,0.285,0.233,0.518,0.518,0.518s0.518-0.232,0.518-0.518v-1.036
		C223.133,701.307,222.9,701.073,222.615,701.073L222.615,701.073z M225.205,701.073c-0.285,0-0.518,0.233-0.518,0.518v1.036
		c0,0.285,0.233,0.518,0.518,0.518c0.285,0,0.518-0.232,0.518-0.518v-1.036C225.722,701.307,225.489,701.073,225.205,701.073
		L225.205,701.073z M227.794,701.073c-0.285,0-0.518,0.233-0.518,0.518v1.036c0,0.285,0.233,0.518,0.518,0.518
		c0.285,0,0.518-0.232,0.518-0.518v-1.036C228.312,701.307,228.079,701.073,227.794,701.073L227.794,701.073z M230.383,701.073
		c-0.285,0-0.518,0.233-0.518,0.518v1.036c0,0.285,0.233,0.518,0.518,0.518c0.286,0,0.519-0.232,0.519-0.518v-1.036
		C230.901,701.307,230.668,701.073,230.383,701.073L230.383,701.073z M232.973,701.073c-0.285,0-0.518,0.233-0.518,0.518v1.036
		c0,0.285,0.233,0.518,0.518,0.518s0.518-0.232,0.518-0.518v-1.036C233.491,701.307,233.258,701.073,232.973,701.073
		L232.973,701.073z M235.562,701.073c-0.285,0-0.518,0.233-0.518,0.518v1.036c0,0.285,0.233,0.518,0.518,0.518
		c0.285,0,0.518-0.232,0.518-0.518v-1.036C236.08,701.307,235.847,701.073,235.562,701.073L235.562,701.073z"/>
	<rect x="266.289" y="838.593" fill="none" width="51.088" height="9.294"/>
	<text transform="matrix(1 0 0 1 284.6328 845.8926)" fill="#FFFDFD" font-family="'Raleway-Black'" font-size="10">OR</text>
</g>
</svg>
